<svg width="100" height="100" viewBox="0 0 100 100" fill="none" xmlns="http://www.w3.org/2000/svg">
<rect x="0.5" y="0.5" width="99" height="99" rx="11.5" fill="url(#paint0_linear_1567_4400)" stroke="#F3DBEB"/>
<path d="M45.8565 43.2992L50.316 51.4789L48.5657 53.2292L46.5539 50.5451C46.2236 50.1075 45.486 50.1075 45.1591 50.5451L43.1456 53.2292L41.3952 51.4773L45.8565 43.2992ZM71.0311 69.8285L61.4431 52.3926C61.2855 52.1059 60.9837 51.9567 60.6551 51.94C60.3299 51.95 60.0365 52.1412 59.894 52.4329L56.5711 59.3049L46.7266 41.2555V37.9913H56.318C56.67 37.9913 56.9886 37.7784 57.1227 37.4532C57.2585 37.1279 57.1831 36.7524 56.9333 36.5009L54.063 33.6324L56.9349 30.7621C57.1848 30.5123 57.2602 30.1385 57.1244 29.8116C56.9886 29.4863 56.67 29.2734 56.318 29.2734H45.8565C45.3753 29.2734 44.983 29.6624 44.983 30.1435V41.2555L29.3964 69.8301C29.2505 70.1001 29.2539 70.4304 29.4115 70.6953C29.5691 70.9585 29.8557 71.1211 30.1625 71.1211H61.5487H70.2667C70.5751 71.1211 70.8601 70.9585 71.0194 70.6919C71.177 70.4287 71.1803 70.1001 71.0311 69.8285Z" fill="white"/>
<defs>
<linearGradient id="paint0_linear_1567_4400" x1="50" y1="0" x2="50" y2="100" gradientUnits="userSpaceOnUse">
<stop stop-color="#FFA4DE"/>
<stop offset="1" stop-color="#F572C6"/>
</linearGradient>
</defs>
</svg>
