<svg width="334" height="331" viewBox="0 0 334 331" fill="none" xmlns="http://www.w3.org/2000/svg">
<rect width="290.292" height="288.168" rx="11.7022" transform="matrix(-0.990268 -0.139173 -0.139173 0.990268 330.799 43.1445)" fill="#E9FAFF"/>
<rect x="-0.5" y="-0.5" width="117.261" height="117.261" rx="11.5" transform="matrix(-4.42684e-08 -1 -1 4.42684e-08 219.663 216.268)" fill="url(#paint0_linear_2224_1335)" stroke="#ECF7F5"/>
<g filter="url(#filter0_b_2224_1335)">
<rect width="88.6954" height="88.6954" rx="11.7022" transform="matrix(1 0 0 -1 189.049 241.13)" fill="#C9DEEB" fill-opacity="0.32"/>
<rect x="0.365695" y="-0.365695" width="87.964" height="87.964" rx="11.3365" transform="matrix(1 0 0 -1 189.049 240.398)" stroke="#DFF3FF" stroke-width="0.73139"/>
</g>
<g filter="url(#filter1_b_2224_1335)">
<rect width="111.449" height="111.449" rx="11.7022" transform="matrix(1 0 0 -1 53.1611 223.783)" fill="#C9DEEB" fill-opacity="0.32"/>
<rect x="0.365695" y="-0.365695" width="110.718" height="110.718" rx="11.3365" transform="matrix(1 0 0 -1 53.1611 223.052)" stroke="#DFF3FF" stroke-width="0.73139"/>
</g>
<path d="M107 180.001L107 186.001C107 187.592 106.368 189.118 105.243 190.244C104.117 191.369 102.591 192.001 101 192.001L89.6 192.001L84.1 195.661C83.7992 195.859 83.4505 195.972 83.0907 195.989C82.7309 196.005 82.3734 195.924 82.0558 195.754C81.7383 195.584 81.4726 195.331 81.2868 195.023C81.1009 194.714 81.0019 194.361 81 194.001L81 180.001C81 178.41 81.6321 176.884 82.7574 175.758C83.8826 174.633 85.4087 174.001 87 174.001L101 174.001C102.591 174.001 104.117 174.633 105.243 175.758C106.368 176.884 107 178.41 107 180.001ZM90.04 152.281L90.38 152.121L90.78 152.121L91.14 152.121L91.52 152.121C91.6373 152.149 91.7512 152.189 91.86 152.241L92.2 152.461C92.2 152.461 92.36 152.461 92.42 152.601L97.26 157.441L101.9 154.361C102.106 154.183 102.354 154.059 102.62 154.001L103.38 154.001C103.641 154.042 103.888 154.145 104.1 154.301L111 158.921L111 146.001C111 144.41 110.368 142.884 109.243 141.758C108.117 140.633 106.591 140.001 105 140.001L87 140.001C85.4087 140.001 83.8826 140.633 82.7574 141.758C81.6321 142.884 81 144.41 81 146.001L81 159.001L89.8 152.401L90.04 152.281ZM111 163.741L103 158.401L100.14 160.401L100.42 160.661C100.607 160.847 100.756 161.068 100.858 161.312C100.959 161.556 101.012 161.817 101.012 162.081C101.012 162.345 100.959 162.606 100.858 162.85C100.756 163.094 100.607 163.315 100.42 163.501C100.234 163.688 100.013 163.837 99.7692 163.939C99.5254 164.04 99.264 164.093 99 164.093C98.736 164.093 98.4746 164.04 98.2308 163.939C97.9871 163.837 97.7659 163.688 97.58 163.501L90.82 156.641L81 164.001C81 165.592 81.6321 167.118 82.7574 168.244C83.8826 169.369 85.4087 170.001 87 170.001L105 170.001C106.591 170.001 108.117 169.369 109.243 168.244C110.368 167.118 111 165.592 111 164.001L111 163.741ZM137 146.001L137 164.001C137 165.592 136.368 167.118 135.243 168.244C134.117 169.369 132.591 170.001 131 170.001L121 170.001C119.409 170.001 117.883 169.369 116.757 168.244C115.632 167.118 115 165.592 115 164.001L115 146.001C115 144.41 115.632 142.884 116.757 141.758C117.883 140.633 119.409 140.001 121 140.001L131 140.001C132.591 140.001 134.117 140.633 135.243 141.758C136.368 142.884 137 144.41 137 146.001ZM131 162.001C131 161.471 130.789 160.962 130.414 160.587C130.039 160.212 129.53 160.001 129 160.001L123 160.001C122.47 160.001 121.961 160.212 121.586 160.587C121.211 160.962 121 161.471 121 162.001C121 162.531 121.211 163.04 121.586 163.415C121.961 163.79 122.47 164.001 123 164.001L129 164.001C129.53 164.001 130.039 163.79 130.414 163.415C130.789 163.04 131 162.531 131 162.001ZM131 155.001C131 154.471 130.789 153.962 130.414 153.587C130.039 153.212 129.53 153.001 129 153.001L123 153.001C122.47 153.001 121.961 153.212 121.586 153.587C121.211 153.962 121 154.471 121 155.001C121 155.531 121.211 156.04 121.586 156.415C121.961 156.79 122.47 157.001 123 157.001L129 157.001C129.53 157.001 130.039 156.79 130.414 156.415C130.789 156.04 131 155.531 131 155.001ZM131 148.001C131 147.471 130.789 146.962 130.414 146.587C130.039 146.212 129.53 146.001 129 146.001L123 146.001C122.47 146.001 121.961 146.212 121.586 146.587C121.211 146.962 121 147.471 121 148.001C121 148.531 121.211 149.04 121.586 149.415C121.961 149.79 122.47 150.001 123 150.001L129 150.001C129.53 150.001 130.039 149.79 130.414 149.415C130.789 149.04 131 148.531 131 148.001ZM137 180.001L137 190.001C137 191.592 136.368 193.118 135.243 194.244C134.117 195.369 132.591 196.001 131 196.001L117 196.001C115.409 196.001 113.883 195.369 112.757 194.244C111.632 193.118 111 191.592 111 190.001L111 180.001C111 178.41 111.632 176.884 112.757 175.758C113.883 174.633 115.409 174.001 117 174.001L131 174.001C132.591 174.001 134.117 174.633 135.243 175.758C136.368 176.884 137 178.41 137 180.001ZM128 185.001C127.999 184.632 127.896 184.27 127.701 183.956C127.507 183.641 127.23 183.387 126.9 183.221L122.9 181.221C122.596 181.068 122.257 180.995 121.916 181.009C121.576 181.023 121.244 181.124 120.954 181.303C120.663 181.481 120.423 181.731 120.256 182.028C120.089 182.325 120.001 182.66 120 183.001L120 187.001C119.999 187.341 120.085 187.675 120.25 187.973C120.414 188.27 120.652 188.521 120.94 188.701C121.258 188.898 121.626 189.002 122 189.001C122.313 188.999 122.621 188.924 122.9 188.781L126.9 186.781C127.23 186.615 127.507 186.36 127.701 186.046C127.896 185.732 127.999 185.37 128 185.001Z" fill="#2585BA"/>
<defs>
<filter id="filter0_b_2224_1335" x="165.644" y="129.03" width="135.504" height="135.504" filterUnits="userSpaceOnUse" color-interpolation-filters="sRGB">
<feFlood flood-opacity="0" result="BackgroundImageFix"/>
<feGaussianBlur in="BackgroundImageFix" stdDeviation="11.7022"/>
<feComposite in2="SourceAlpha" operator="in" result="effect1_backgroundBlur_2224_1335"/>
<feBlend mode="normal" in="SourceGraphic" in2="effect1_backgroundBlur_2224_1335" result="shape"/>
</filter>
<filter id="filter1_b_2224_1335" x="29.7567" y="88.9295" width="158.258" height="158.258" filterUnits="userSpaceOnUse" color-interpolation-filters="sRGB">
<feFlood flood-opacity="0" result="BackgroundImageFix"/>
<feGaussianBlur in="BackgroundImageFix" stdDeviation="11.7022"/>
<feComposite in2="SourceAlpha" operator="in" result="effect1_backgroundBlur_2224_1335"/>
<feBlend mode="normal" in="SourceGraphic" in2="effect1_backgroundBlur_2224_1335" result="shape"/>
</filter>
<linearGradient id="paint0_linear_2224_1335" x1="59.1303" y1="8.19432e-07" x2="59.1303" y2="118.26" gradientUnits="userSpaceOnUse">
<stop stop-color="#BBE7FF"/>
<stop offset="1" stop-color="#329BD6"/>
</linearGradient>
</defs>
</svg>
