<svg width="324" height="180" viewBox="0 0 324 180" fill="none" xmlns="http://www.w3.org/2000/svg">
<rect x="81.842" y="8.04025" width="145.215" height="145.215" rx="15.5" transform="rotate(7.86111 81.842 8.04025)" fill="url(#paint0_linear_1531_999)" stroke="#ECF7F5"/>
<path d="M139.219 79.3234L144.043 92.0628L141.158 94.2479L138.781 89.958C138.39 89.2581 137.321 89.1106 136.76 89.6791L133.307 93.1642L131.122 90.2766L139.219 79.3234ZM170.378 122.783L159.977 95.6111C159.806 95.1644 159.399 94.8879 158.926 94.7979C158.453 94.7475 157.99 94.9656 157.725 95.3596L151.538 104.649L140.888 76.5373L141.541 71.8094L155.433 73.7272C155.943 73.7976 156.447 73.5529 156.706 73.1087C156.968 72.6647 156.934 72.1057 156.622 71.6915L153.039 66.9628L157.772 63.3797C158.184 63.0678 158.368 62.5414 158.237 62.0408C158.105 61.5425 157.686 61.1704 157.176 61.1L142.024 59.0082C141.327 58.912 140.681 59.3969 140.585 60.0939L138.363 76.1887L110.073 114.46C109.808 114.822 109.747 115.301 109.922 115.716C110.098 116.129 110.481 116.422 110.925 116.483L156.385 122.759L169.012 124.502C169.459 124.564 169.904 124.385 170.188 124.031C170.469 123.681 170.54 123.206 170.378 122.783Z" fill="white"/>
<g filter="url(#filter0_b_1531_999)">
<rect x="0.37793" y="115.756" width="77.3679" height="77.3679" rx="16" transform="rotate(-33.8638 0.37793 115.756)" fill="#DBEAE8" fill-opacity="0.28"/>
<rect x="1.07172" y="115.892" width="76.3679" height="76.3679" rx="15.5" transform="rotate(-33.8638 1.07172 115.892)" stroke="#ECF7F5"/>
</g>
<g filter="url(#filter1_b_1531_999)">
<rect x="295.194" width="123.562" height="123.562" rx="16" transform="rotate(76.699 295.194 0)" fill="#DBEAE8" fill-opacity="0.28"/>
<rect x="294.823" y="0.601621" width="122.562" height="122.562" rx="15.5" transform="rotate(76.699 294.823 0.601621)" stroke="#ECF7F5"/>
</g>
<defs>
<filter id="filter0_b_1531_999" x="-49.4224" y="22.8446" width="206.955" height="206.955" filterUnits="userSpaceOnUse" color-interpolation-filters="sRGB">
<feFlood flood-opacity="0" result="BackgroundImageFix"/>
<feGaussianBlur in="BackgroundImageFix" stdDeviation="28"/>
<feComposite in2="SourceAlpha" operator="in" result="effect1_backgroundBlur_1531_999"/>
<feBlend mode="normal" in="SourceGraphic" in2="effect1_backgroundBlur_1531_999" result="shape"/>
</filter>
<filter id="filter1_b_1531_999" x="122.195" y="-52.7518" width="254.178" height="254.178" filterUnits="userSpaceOnUse" color-interpolation-filters="sRGB">
<feFlood flood-opacity="0" result="BackgroundImageFix"/>
<feGaussianBlur in="BackgroundImageFix" stdDeviation="28"/>
<feComposite in2="SourceAlpha" operator="in" result="effect1_backgroundBlur_1531_999"/>
<feBlend mode="normal" in="SourceGraphic" in2="effect1_backgroundBlur_1531_999" result="shape"/>
</filter>
<linearGradient id="paint0_linear_1531_999" x1="238.027" y1="81.4594" x2="82.654" y2="79.8488" gradientUnits="userSpaceOnUse">
<stop stop-color="#70EFDD"/>
<stop offset="1" stop-color="#3ED1C4"/>
</linearGradient>
</defs>
</svg>
