<svg width="24" height="24" viewBox="0 0 24 24" fill="none" xmlns="http://www.w3.org/2000/svg">
<path d="M4.6875 15.1543H7.5C8.01778 15.1543 8.4375 14.7346 8.4375 14.2168C8.4375 13.699 8.01778 13.2793 7.5 13.2793H4.6875C4.16972 13.2793 3.75 13.699 3.75 14.2168C3.75 14.7346 4.16972 15.1543 4.6875 15.1543Z" fill="#D7DAE0"/>
<path d="M4.6875 11.4043H7.5C8.01778 11.4043 8.4375 10.9846 8.4375 10.4668C8.4375 9.94902 8.01778 9.5293 7.5 9.5293H4.6875C4.16972 9.5293 3.75 9.94902 3.75 10.4668C3.75 10.9846 4.16972 11.4043 4.6875 11.4043Z" fill="#D7DAE0"/>
<path d="M10.1926 14.2163C10.1926 14.7341 10.6123 15.1538 11.1301 15.1538C13.0905 15.1538 14.9335 14.3904 16.3197 13.0042L23.1756 6.14759C24.2748 5.04851 24.275 3.26937 23.1756 2.1701C22.0791 1.07351 20.2948 1.07351 19.1982 2.1701L12.3422 9.0267C10.9561 10.4129 10.1926 12.2559 10.1926 14.2163ZM20.5241 3.49596C20.8895 3.13043 21.4843 3.13043 21.8498 3.49596C22.2162 3.86224 22.2163 4.45535 21.8498 4.82177L14.9938 11.6784C14.2101 12.4621 13.2302 12.9784 12.1648 13.1816C12.368 12.1162 12.8843 11.1363 13.668 10.3526L20.5241 3.49596Z" fill="#D7DAE0"/>
<path d="M2.8125 22.6543C3.50513 22.6543 4.17084 22.4001 4.68712 21.9385L5.98308 20.7793H15.5625C18.1472 20.7793 20.25 18.6765 20.25 16.0918V13.9888C20.25 13.4711 19.8303 13.0513 19.3125 13.0513C18.7947 13.0513 18.375 13.4711 18.375 13.9888V16.0918C18.375 17.6426 17.1133 18.9043 15.5625 18.9043H5.625C5.39437 18.9043 5.17186 18.9893 4.99997 19.143L3.43725 20.5409C3.26527 20.6946 3.04341 20.7793 2.8125 20.7793C2.29556 20.7793 1.875 20.3587 1.875 19.8418V8.5918C1.875 7.04098 3.13669 5.7793 4.6875 5.7793H12.5507C13.0685 5.7793 13.4882 5.35958 13.4882 4.8418C13.4882 4.32402 13.0685 3.9043 12.5507 3.9043H4.6875C2.10277 3.9043 0 6.00711 0 8.5918V19.8418C0 21.3926 1.26169 22.6543 2.8125 22.6543Z" fill="#D7DAE0"/>
</svg>
