<svg width="1050" height="800" viewBox="0 0 1050 800" fill="none" xmlns="http://www.w3.org/2000/svg">
<g clip-path="url(#clip0_605_265)">
<g filter="url(#filter0_f_605_265)">
<path d="M949.439 521C949.439 623.415 866.416 706.438 764.001 706.438C661.586 706.438 578.562 623.415 578.562 521C578.562 418.585 661.586 335.562 764.001 335.562C866.416 335.562 949.439 418.585 949.439 521Z" fill="url(#paint0_radial_605_265)" fill-opacity="0.15"/>
</g>
<path d="M53.021 -0.302246V56.6164M53.021 56.6164L53.021 118.865M53.021 56.6164H-4.55273M53.021 56.6164H115.295M53.021 118.865V181.114M53.021 118.865H-4.55273M53.021 118.865H115.295M53.021 181.114L53.021 243.362M53.021 181.114H-4.55273M53.021 181.114H115.295M53.021 243.362V305.611M53.021 243.362H-4.55273M53.021 243.362H115.295M53.021 305.611L53.021 367.859M53.021 305.611H-4.55273M53.021 305.611H115.295M53.021 367.859V430.108M53.021 367.859H-4.55273M53.021 367.859H115.295M53.021 430.108L53.021 492.356M53.021 430.108H-4.55273M53.021 430.108H115.295M53.021 492.356V549.906M53.021 492.356H-4.55273M53.021 492.356H115.295M115.295 492.356H177.569M115.295 492.356V430.108M115.295 492.356V549.906M177.569 492.356H239.843M177.569 492.356V430.108M177.569 492.356V549.906M239.843 492.356H302.117M239.843 492.356V430.108M239.843 492.356V549.906M302.117 492.356H364.391M302.117 492.356V430.108M302.117 492.356V549.906M364.391 492.356H426.665M364.391 492.356V430.108M364.391 492.356V549.906M426.665 492.356H488.94M426.665 492.356V430.108M426.665 492.356V549.906M488.94 492.356H545.882M488.94 492.356V430.108M488.94 492.356V549.906M115.295 -0.302246V56.6164M115.295 56.6164V118.865M115.295 56.6164H177.569M115.295 118.865L115.295 181.114M115.295 118.865H177.569M115.295 181.114V243.362M115.295 181.114H177.569M115.295 243.362V305.611M115.295 243.362H177.569M115.295 305.611V367.859M115.295 305.611H177.569M115.295 367.859L115.295 430.108M115.295 367.859H177.569M115.295 430.108H177.569M177.569 430.108H239.843M177.569 430.108V367.859M239.843 430.108H302.117M239.843 430.108V367.859M302.117 430.108H364.391M302.117 430.108V367.859M364.391 430.108H426.665M364.391 430.108V367.859M426.665 430.108H488.94M426.665 430.108V367.859M488.94 430.108H545.882M488.94 430.108V367.859M177.569 -0.302246V56.6164M177.569 56.6164V118.865M177.569 56.6164H239.843M177.569 118.865V181.114M177.569 118.865H239.843M177.569 181.114V243.362M177.569 181.114H239.843M177.569 243.362L177.569 305.611M177.569 243.362H239.843M177.569 305.611V367.859M177.569 305.611H239.843M177.569 367.859H239.843M239.843 367.859H302.117M239.843 367.859V305.611M302.117 367.859H364.391M302.117 367.859V305.611M364.391 367.859H426.665M364.391 367.859V305.611M426.665 367.859H488.94M426.665 367.859V305.611M488.94 367.859H545.882M488.94 367.859V305.611M239.843 -0.302246V56.6164M239.843 56.6164V118.865M239.843 56.6164H302.117M239.843 118.865V181.114M239.843 118.865H302.117M239.843 181.114V243.362M239.843 181.114H302.117M239.843 243.362L239.843 305.611M239.843 243.362H302.117M239.843 305.611H302.117M302.117 305.611H364.391M302.117 305.611L302.117 243.362M364.391 305.611H426.665M364.391 305.611L364.391 243.362M426.665 305.611H488.94M426.665 305.611L426.666 243.362M488.94 305.611H545.882M488.94 305.611L488.94 243.362M302.117 -0.302246V56.6164M302.117 56.6164V118.865M302.117 56.6164H364.391M302.117 118.865V181.114M302.117 118.865H364.391M302.117 181.114V243.362M302.117 181.114H364.391M302.117 243.362H364.391M364.391 243.362H426.666M364.391 243.362V181.114M426.666 243.362H488.94M426.666 243.362V181.114M488.94 243.362H545.882M488.94 243.362V181.114M364.391 -0.302246V56.6164M364.391 56.6164V118.865M364.391 56.6164H426.666M364.391 118.865V181.114M364.391 118.865H426.666M364.391 181.114H426.666M426.666 181.114H488.94M426.666 181.114V118.865M488.94 181.114H545.882M488.94 181.114V118.865M426.666 -0.302246V56.6164M426.666 56.6164V118.865M426.666 56.6164H488.94M426.666 118.865H488.94M488.94 118.865H545.882M488.94 118.865V56.6164M488.94 -0.302246V56.6164M488.94 56.6164H545.882M546.357 -0.302246V56.6164M546.357 56.6164V118.865M546.357 56.6164H488.784M546.357 56.6164H608.631M546.357 118.865V181.114M546.357 118.865H488.784M546.357 118.865H608.631M546.357 181.114V243.362M546.357 181.114H488.784M546.357 181.114H608.631M546.357 243.362V305.611M546.357 243.362H488.784M546.357 243.362H608.631M546.357 305.611L546.357 367.859M546.357 305.611H488.784M546.357 305.611H608.631M546.357 367.859V430.108M546.357 367.859H488.784M546.357 367.859H608.631M546.357 430.108V492.356M546.357 430.108H488.784M546.357 430.108H608.631M546.357 492.356V549.906M546.357 492.356H488.784M546.357 492.356H608.631M608.631 492.356H670.905M608.631 492.356V430.108M608.631 492.356V549.906M670.905 492.356H733.179M670.905 492.356V430.108M670.905 492.356V549.906M733.179 492.356H795.454M733.179 492.356V430.108M733.179 492.356V549.906M795.454 492.356H857.728M795.454 492.356V430.108M795.454 492.356V549.906M857.728 492.356H920.002M857.728 492.356V430.108M857.728 492.356V549.906M920.002 492.356H982.276M920.002 492.356V430.108M920.002 492.356V549.906M982.276 492.356H1039.22M982.276 492.356V430.108M982.276 492.356V549.906M608.631 -0.302246V56.6164M608.631 56.6164V118.865M608.631 56.6164H670.905M608.631 118.865V181.114M608.631 118.865H670.905M608.631 181.114V243.362M608.631 181.114H670.905M608.631 243.362V305.611M608.631 243.362H670.905M608.631 305.611V367.859M608.631 305.611H670.905M608.631 367.859L608.631 430.108M608.631 367.859H670.905M608.631 430.108H670.905M670.905 430.108H733.179M670.905 430.108V367.859M733.179 430.108H795.454M733.179 430.108V367.859M795.454 430.108H857.728M795.454 430.108V367.859M857.728 430.108H920.002M857.728 430.108V367.859M920.002 430.108H982.276M920.002 430.108V367.859M982.276 430.108H1039.22M982.276 430.108V367.859M670.905 -0.302246V56.6164M670.905 56.6164V118.865M670.905 56.6164H733.18M670.905 118.865V181.114M670.905 118.865H733.18M670.905 181.114V243.362M670.905 181.114H733.18M670.905 243.362V305.611M670.905 243.362H733.18M670.905 305.611V367.859M670.905 305.611H733.179M670.905 367.859H733.179M733.179 367.859H795.454M733.179 367.859V305.611M795.454 367.859H857.728M795.454 367.859V305.611M857.728 367.859H920.002M857.728 367.859V305.611M920.002 367.859H982.276M920.002 367.859V305.611M982.276 367.859H1039.22M982.276 367.859V305.611M733.18 -0.302246V56.6164M733.18 56.6164V118.865M733.18 56.6164H795.454M733.18 118.865V181.114M733.18 118.865H795.454M733.18 181.114V243.362M733.18 181.114H795.454M733.18 243.362L733.179 305.611M733.18 243.362H795.454M733.179 305.611H795.454M795.454 305.611H857.728M795.454 305.611V243.362M857.728 305.611H920.002M857.728 305.611V243.362M920.002 305.611H982.276M920.002 305.611V243.362M982.276 305.611H1039.22M982.276 305.611L982.276 243.362M795.454 -0.302246V56.6164M795.454 56.6164V118.865M795.454 56.6164H857.728M795.454 118.865V181.114M795.454 118.865H857.728M795.454 181.114V243.362M795.454 181.114H857.728M795.454 243.362H857.728M857.728 243.362H920.002M857.728 243.362V181.114M920.002 243.362H982.276M920.002 243.362V181.114M982.276 243.362H1039.22M982.276 243.362V181.114M857.728 -0.302246V56.6164M857.728 56.6164V118.865M857.728 56.6164H920.002M857.728 118.865V181.114M857.728 118.865H920.002M857.728 181.114H920.002M920.002 181.114H982.276M920.002 181.114V118.865M982.276 181.114H1039.22M982.276 181.114V118.865M920.002 -0.302246V56.6164M920.002 56.6164V118.865M920.002 56.6164H982.276M920.002 118.865H982.276M982.276 118.865H1039.22M982.276 118.865V56.6164M982.276 -0.302246V56.6164M982.276 56.6164H1039.22M1039.69 -0.302246V56.6164M1039.69 56.6164V118.865M1039.69 56.6164H982.12M1039.69 56.6164H1101.97M1039.69 118.865V181.114M1039.69 118.865H982.12M1039.69 118.865H1101.97M1039.69 181.114V243.362M1039.69 181.114H982.12M1039.69 181.114H1101.97M1039.69 243.362V305.611M1039.69 243.362H982.12M1039.69 243.362H1101.97M1039.69 305.611V367.859M1039.69 305.611H982.12M1039.69 305.611H1101.97M1039.69 367.859V430.108M1039.69 367.859H982.12M1039.69 367.859H1101.97M1039.69 430.108V492.356M1039.69 430.108H982.12M1039.69 430.108H1101.97M1039.69 492.356V549.906M1039.69 492.356H982.12M1039.69 492.356H1101.97M1101.97 492.356H1164.24M1101.97 492.356V430.108M1101.97 492.356V549.906M1164.24 492.356H1226.52M1164.24 492.356V430.108M1164.24 492.356V549.906M1226.52 492.356H1288.79M1226.52 492.356V430.108M1226.52 492.356V549.906M1288.79 492.356H1351.06M1288.79 492.356V430.108M1288.79 492.356V549.906M1351.06 492.356H1413.34M1351.06 492.356V430.108M1351.06 492.356V549.906M1413.34 492.356H1475.61M1413.34 492.356V430.108M1413.34 492.356V549.906M1475.61 492.356H1532.55M1475.61 492.356V430.108M1475.61 492.356V549.906M1101.97 -0.302246V56.6164M1101.97 56.6164V118.865M1101.97 56.6164H1164.24M1101.97 118.865L1101.97 181.114M1101.97 118.865H1164.24M1101.97 181.114V243.362M1101.97 181.114H1164.24M1101.97 243.362V305.611M1101.97 243.362H1164.24M1101.97 305.611V367.859M1101.97 305.611H1164.24M1101.97 367.859V430.108M1101.97 367.859H1164.24M1101.97 430.108H1164.24M1164.24 430.108H1226.52M1164.24 430.108V367.859M1226.52 430.108H1288.79M1226.52 430.108V367.859M1288.79 430.108H1351.06M1288.79 430.108V367.859M1351.06 430.108H1413.34M1351.06 430.108V367.859M1413.34 430.108H1475.61M1413.34 430.108V367.859M1475.61 430.108H1532.55M1475.61 430.108V367.859M1164.24 -0.302246V56.6164M1164.24 56.6164V118.865M1164.24 56.6164H1226.52M1164.24 118.865V181.114M1164.24 118.865H1226.52M1164.24 181.114V243.362M1164.24 181.114H1226.52M1164.24 243.362V305.611M1164.24 243.362H1226.52M1164.24 305.611V367.859M1164.24 305.611H1226.52M1164.24 367.859H1226.52M1226.52 367.859H1288.79M1226.52 367.859V305.611M1288.79 367.859H1351.06M1288.79 367.859V305.611M1351.06 367.859H1413.34M1351.06 367.859V305.611M1413.34 367.859H1475.61M1413.34 367.859V305.611M1475.61 367.859H1532.55M1475.61 367.859V305.611M1226.52 -0.302246V56.6164M1226.52 56.6164V118.865M1226.52 56.6164H1288.79M1226.52 118.865V181.114M1226.52 118.865H1288.79M1226.52 181.114V243.362M1226.52 181.114H1288.79M1226.52 243.362L1226.52 305.611M1226.52 243.362H1288.79M1226.52 305.611H1288.79M1288.79 305.611H1351.06M1288.79 305.611V243.362M1351.06 305.611H1413.34M1351.06 305.611V243.362M1413.34 305.611H1475.61M1413.34 305.611V243.362M1475.61 305.611H1532.55M1475.61 305.611L1475.61 243.362M1288.79 -0.302246V56.6164M1288.79 56.6164V118.865M1288.79 56.6164H1351.06M1288.79 118.865V181.114M1288.79 118.865H1351.06M1288.79 181.114V243.362M1288.79 181.114H1351.06M1288.79 243.362H1351.06M1351.06 243.362H1413.34M1351.06 243.362V181.114M1413.34 243.362H1475.61M1413.34 243.362V181.114M1475.61 243.362H1532.55M1475.61 243.362V181.114M1351.06 -0.302246V56.6164M1351.06 56.6164V118.865M1351.06 56.6164H1413.34M1351.06 118.865V181.114M1351.06 118.865H1413.34M1351.06 181.114H1413.34M1413.34 181.114H1475.61M1413.34 181.114V118.865M1475.61 181.114H1532.55M1475.61 181.114V118.865M1413.34 -0.302246V56.6164M1413.34 56.6164V118.865M1413.34 56.6164H1475.61M1413.34 118.865H1475.61M1475.61 118.865H1532.55M1475.61 118.865V56.6164M1475.61 -0.302246V56.6164M1475.61 56.6164H1532.55M53.021 492.094V549.012M53.021 549.012L53.021 611.261M53.021 549.012H-4.55273M53.021 549.012H115.295M53.021 611.261V673.509M53.021 611.261H-4.55273M53.021 611.261H115.295M53.021 673.509L53.021 735.758M53.021 673.509H-4.55273M53.021 673.509H115.295M53.021 735.758V798.006M53.021 735.758H-4.55273M53.021 735.758H115.295M53.021 798.006L53.021 860.255M53.021 798.006H-4.55273M53.021 798.006H115.295M53.021 860.255V922.504M53.021 860.255H-4.55273M53.021 860.255H115.295M53.021 922.504L53.021 984.752M53.021 922.504H-4.55273M53.021 922.504H115.295M53.021 984.752V1042.3M53.021 984.752H-4.55273M53.021 984.752H115.295M115.295 984.752H177.569M115.295 984.752V922.504M115.295 984.752V1042.3M177.569 984.752H239.843M177.569 984.752V922.504M177.569 984.752V1042.3M239.843 984.752H302.117M239.843 984.752V922.504M239.843 984.752V1042.3M302.117 984.752H364.391M302.117 984.752V922.504M302.117 984.752V1042.3M364.391 984.752H426.665M364.391 984.752V922.504M364.391 984.752V1042.3M426.665 984.752H488.94M426.665 984.752V922.504M426.665 984.752V1042.3M488.94 984.752H545.882M488.94 984.752V922.504M488.94 984.752V1042.3M115.295 492.094V549.012M115.295 549.012V611.261M115.295 549.012H177.569M115.295 611.261L115.295 673.509M115.295 611.261H177.569M115.295 673.509V735.758M115.295 673.509H177.569M115.295 735.758V798.006M115.295 735.758H177.569M115.295 798.006V860.255M115.295 798.006H177.569M115.295 860.255L115.295 922.504M115.295 860.255H177.569M115.295 922.504H177.569M177.569 922.504H239.843M177.569 922.504V860.255M239.843 922.504H302.117M239.843 922.504V860.255M302.117 922.504H364.391M302.117 922.504V860.255M364.391 922.504H426.665M364.391 922.504V860.255M426.665 922.504H488.94M426.665 922.504V860.255M488.94 922.504H545.882M488.94 922.504V860.255M177.569 492.094V549.012M177.569 549.012V611.261M177.569 549.012H239.843M177.569 611.261V673.509M177.569 611.261H239.843M177.569 673.509V735.758M177.569 673.509H239.843M177.569 735.758L177.569 798.006M177.569 735.758H239.843M177.569 798.006V860.255M177.569 798.006H239.843M177.569 860.255H239.843M239.843 860.255H302.117M239.843 860.255V798.006M302.117 860.255H364.391M302.117 860.255V798.006M364.391 860.255H426.665M364.391 860.255V798.006M426.665 860.255H488.94M426.665 860.255V798.006M488.94 860.255H545.882M488.94 860.255V798.006M239.843 492.094V549.012M239.843 549.012V611.261M239.843 549.012H302.117M239.843 611.261V673.509M239.843 611.261H302.117M239.843 673.509V735.758M239.843 673.509H302.117M239.843 735.758L239.843 798.006M239.843 735.758H302.117M239.843 798.006H302.117M302.117 798.006H364.391M302.117 798.006L302.117 735.758M364.391 798.006H426.665M364.391 798.006L364.391 735.758M426.665 798.006H488.94M426.665 798.006L426.666 735.758M488.94 798.006H545.882M488.94 798.006L488.94 735.758M302.117 492.094V549.012M302.117 549.012V611.261M302.117 549.012H364.391M302.117 611.261V673.509M302.117 611.261H364.391M302.117 673.509V735.758M302.117 673.509H364.391M302.117 735.758H364.391M364.391 735.758H426.666M364.391 735.758V673.509M426.666 735.758H488.94M426.666 735.758V673.509M488.94 735.758H545.882M488.94 735.758V673.509M364.391 492.094V549.012M364.391 549.012V611.261M364.391 549.012H426.666M364.391 611.261V673.509M364.391 611.261H426.666M364.391 673.509H426.666M426.666 673.509H488.94M426.666 673.509V611.261M488.94 673.509H545.882M488.94 673.509V611.261M426.666 492.094V549.012M426.666 549.012V611.261M426.666 549.012H488.94M426.666 611.261H488.94M488.94 611.261H545.882M488.94 611.261V549.012M488.94 492.094V549.012M488.94 549.012H545.882M546.357 492.094V549.012M546.357 549.012V611.261M546.357 549.012H488.784M546.357 549.012H608.631M546.357 611.261V673.509M546.357 611.261H488.784M546.357 611.261H608.631M546.357 673.509V735.758M546.357 673.509H488.784M546.357 673.509H608.631M546.357 735.758V798.006M546.357 735.758H488.784M546.357 735.758H608.631M546.357 798.006L546.357 860.255M546.357 798.006H488.784M546.357 798.006H608.631M546.357 860.255V922.504M546.357 860.255H488.784M546.357 860.255H608.631M546.357 922.504V984.752M546.357 922.504H488.784M546.357 922.504H608.631M546.357 984.752V1042.3M546.357 984.752H488.784M546.357 984.752H608.631M608.631 984.752H670.905M608.631 984.752V922.504M608.631 984.752V1042.3M670.905 984.752H733.179M670.905 984.752V922.504M670.905 984.752V1042.3M733.179 984.752H795.454M733.179 984.752V922.504M733.179 984.752V1042.3M795.454 984.752H857.728M795.454 984.752V922.504M795.454 984.752V1042.3M857.728 984.752H920.002M857.728 984.752V922.504M857.728 984.752V1042.3M920.002 984.752H982.276M920.002 984.752V922.504M920.002 984.752V1042.3M982.276 984.752H1039.22M982.276 984.752V922.504M982.276 984.752V1042.3M608.631 492.094V549.012M608.631 549.012V611.261M608.631 549.012H670.905M608.631 611.261V673.509M608.631 611.261H670.905M608.631 673.509V735.758M608.631 673.509H670.905M608.631 735.758V798.006M608.631 735.758H670.905M608.631 798.006V860.255M608.631 798.006H670.905M608.631 860.255L608.631 922.504M608.631 860.255H670.905M608.631 922.504H670.905M670.905 922.504H733.179M670.905 922.504V860.255M733.179 922.504H795.454M733.179 922.504V860.255M795.454 922.504H857.728M795.454 922.504V860.255M857.728 922.504H920.002M857.728 922.504V860.255M920.002 922.504H982.276M920.002 922.504V860.255M982.276 922.504H1039.22M982.276 922.504V860.255M670.905 492.094V549.012M670.905 549.012V611.261M670.905 549.012H733.18M670.905 611.261V673.509M670.905 611.261H733.18M670.905 673.509V735.758M670.905 673.509H733.18M670.905 735.758V798.006M670.905 735.758H733.18M670.905 798.006V860.255M670.905 798.006H733.179M670.905 860.255H733.179M733.179 860.255H795.454M733.179 860.255V798.006M795.454 860.255H857.728M795.454 860.255V798.006M857.728 860.255H920.002M857.728 860.255V798.006M920.002 860.255H982.276M920.002 860.255V798.006M982.276 860.255H1039.22M982.276 860.255V798.006M733.18 492.094V549.012M733.18 549.012V611.261M733.18 549.012H795.454M733.18 611.261V673.509M733.18 611.261H795.454M733.18 673.509V735.758M733.18 673.509H795.454M733.18 735.758L733.179 798.006M733.18 735.758H795.454M733.179 798.006H795.454M795.454 798.006H857.728M795.454 798.006V735.758M857.728 798.006H920.002M857.728 798.006V735.758M920.002 798.006H982.276M920.002 798.006V735.758M982.276 798.006H1039.22M982.276 798.006L982.276 735.758M795.454 492.094V549.012M795.454 549.012V611.261M795.454 549.012H857.728M795.454 611.261V673.509M795.454 611.261H857.728M795.454 673.509V735.758M795.454 673.509H857.728M795.454 735.758H857.728M857.728 735.758H920.002M857.728 735.758V673.509M920.002 735.758H982.276M920.002 735.758V673.509M982.276 735.758H1039.22M982.276 735.758V673.509M857.728 492.094V549.012M857.728 549.012V611.261M857.728 549.012H920.002M857.728 611.261V673.509M857.728 611.261H920.002M857.728 673.509H920.002M920.002 673.509H982.276M920.002 673.509V611.261M982.276 673.509H1039.22M982.276 673.509V611.261M920.002 492.094V549.012M920.002 549.012V611.261M920.002 549.012H982.276M920.002 611.261H982.276M982.276 611.261H1039.22M982.276 611.261V549.012M982.276 492.094V549.012M982.276 549.012H1039.22M1039.69 492.094V549.012M1039.69 549.012V611.261M1039.69 549.012H982.12M1039.69 549.012H1101.97M1039.69 611.261V673.509M1039.69 611.261H982.12M1039.69 611.261H1101.97M1039.69 673.509V735.758M1039.69 673.509H982.12M1039.69 673.509H1101.97M1039.69 735.758V798.006M1039.69 735.758H982.12M1039.69 735.758H1101.97M1039.69 798.006V860.255M1039.69 798.006H982.12M1039.69 798.006H1101.97M1039.69 860.255V922.504M1039.69 860.255H982.12M1039.69 860.255H1101.97M1039.69 922.504V984.752M1039.69 922.504H982.12M1039.69 922.504H1101.97M1039.69 984.752V1042.3M1039.69 984.752H982.12M1039.69 984.752H1101.97M1101.97 984.752H1164.24M1101.97 984.752V922.504M1101.97 984.752V1042.3M1164.24 984.752H1226.52M1164.24 984.752V922.504M1164.24 984.752V1042.3M1226.52 984.752H1288.79M1226.52 984.752V922.504M1226.52 984.752V1042.3M1288.79 984.752H1351.06M1288.79 984.752V922.504M1288.79 984.752V1042.3M1351.06 984.752H1413.34M1351.06 984.752V922.504M1351.06 984.752V1042.3M1413.34 984.752H1475.61M1413.34 984.752V922.504M1413.34 984.752V1042.3M1475.61 984.752H1532.55M1475.61 984.752V922.504M1475.61 984.752V1042.3M1101.97 492.094V549.012M1101.97 549.012V611.261M1101.97 549.012H1164.24M1101.97 611.261L1101.97 673.509M1101.97 611.261H1164.24M1101.97 673.509V735.758M1101.97 673.509H1164.24M1101.97 735.758V798.006M1101.97 735.758H1164.24M1101.97 798.006V860.255M1101.97 798.006H1164.24M1101.97 860.255V922.504M1101.97 860.255H1164.24M1101.97 922.504H1164.24M1164.24 922.504H1226.52M1164.24 922.504V860.255M1226.52 922.504H1288.79M1226.52 922.504V860.255M1288.79 922.504H1351.06M1288.79 922.504V860.255M1351.06 922.504H1413.34M1351.06 922.504V860.255M1413.34 922.504H1475.61M1413.34 922.504V860.255M1475.61 922.504H1532.55M1475.61 922.504V860.255M1164.24 492.094V549.012M1164.24 549.012V611.261M1164.24 549.012H1226.52M1164.24 611.261V673.509M1164.24 611.261H1226.52M1164.24 673.509V735.758M1164.24 673.509H1226.52M1164.24 735.758V798.006M1164.24 735.758H1226.52M1164.24 798.006V860.255M1164.24 798.006H1226.52M1164.24 860.255H1226.52M1226.52 860.255H1288.79M1226.52 860.255V798.006M1288.79 860.255H1351.06M1288.79 860.255V798.006M1351.06 860.255H1413.34M1351.06 860.255V798.006M1413.34 860.255H1475.61M1413.34 860.255V798.006M1475.61 860.255H1532.55M1475.61 860.255V798.006M1226.52 492.094V549.012M1226.52 549.012V611.261M1226.52 549.012H1288.79M1226.52 611.261V673.509M1226.52 611.261H1288.79M1226.52 673.509V735.758M1226.52 673.509H1288.79M1226.52 735.758L1226.52 798.006M1226.52 735.758H1288.79M1226.52 798.006H1288.79M1288.79 798.006H1351.06M1288.79 798.006V735.758M1351.06 798.006H1413.34M1351.06 798.006V735.758M1413.34 798.006H1475.61M1413.34 798.006V735.758M1475.61 798.006H1532.55M1475.61 798.006L1475.61 735.758M1288.79 492.094V549.012M1288.79 549.012V611.261M1288.79 549.012H1351.06M1288.79 611.261V673.509M1288.79 611.261H1351.06M1288.79 673.509V735.758M1288.79 673.509H1351.06M1288.79 735.758H1351.06M1351.06 735.758H1413.34M1351.06 735.758V673.509M1413.34 735.758H1475.61M1413.34 735.758V673.509M1475.61 735.758H1532.55M1475.61 735.758V673.509M1351.06 492.094V549.012M1351.06 549.012V611.261M1351.06 549.012H1413.34M1351.06 611.261V673.509M1351.06 611.261H1413.34M1351.06 673.509H1413.34M1413.34 673.509H1475.61M1413.34 673.509V611.261M1475.61 673.509H1532.55M1475.61 673.509V611.261M1413.34 492.094V549.012M1413.34 549.012V611.261M1413.34 549.012H1475.61M1413.34 611.261H1475.61M1475.61 611.261H1532.55M1475.61 611.261V549.012M1475.61 492.094V549.012M1475.61 549.012H1532.55" stroke="url(#paint1_radial_605_265)" stroke-opacity="0.23" stroke-width="2"/>
</g>
<defs>
<filter id="filter0_f_605_265" x="458.562" y="215.562" width="610.877" height="610.876" filterUnits="userSpaceOnUse" color-interpolation-filters="sRGB">
<feFlood flood-opacity="0" result="BackgroundImageFix"/>
<feBlend mode="normal" in="SourceGraphic" in2="BackgroundImageFix" result="shape"/>
<feGaussianBlur stdDeviation="60" result="effect1_foregroundBlur_605_265"/>
</filter>
<radialGradient id="paint0_radial_605_265" cx="0" cy="0" r="1" gradientUnits="userSpaceOnUse" gradientTransform="translate(764.001 521) rotate(90) scale(185.438)">
<stop stop-color="#FFB600" stop-opacity="0.92"/>
<stop offset="1" stop-color="#FFB600" stop-opacity="0"/>
</radialGradient>
<radialGradient id="paint1_radial_605_265" cx="0" cy="0" r="1" gradientUnits="userSpaceOnUse" gradientTransform="translate(764.001 521) rotate(90) scale(235.148 346.677)">
<stop stop-color="#FFB600" stop-opacity="0.92"/>
<stop offset="1" stop-color="#FFB600" stop-opacity="0.04"/>
</radialGradient>
<clipPath id="clip0_605_265">
<rect width="1050" height="800" fill="white"/>
</clipPath>
</defs>
</svg>
