<svg xmlns="http://www.w3.org/2000/svg" width="255.093" height="487.045" viewBox="0 0 255.093 487.045">
  <path id="Path_4766" data-name="Path 4766" d="M744.581-623.031c-2.343.426-9.584,1.917-15.974,3.195-16.187,3.195-43.236,16.613-58.571,29.179-21.511,17.465-37.272,41.319-47.069,70.711-3.621,10.862-4.047,23.428-4.686,178.907-.426,117.567,0,169.535,1.7,175.286,2.982,10.01,13.844,22.576,22.789,26.2,8.945,3.834,30.883,3.834,39.615,0,8.307-3.621,19.594-15.122,22.576-23.215,1.491-3.834,2.343-33.438,2.343-81.36v-75.4l69.007-.639,69.007-.639,9.158-6.39c4.9-3.621,11.288-10.649,14.057-15.974,4.473-8.093,5.112-11.927,4.473-24.706-.852-16.826-5.751-26.41-17.465-34.5-11.288-7.667-23.428-8.945-87.323-8.945h-61.34l.852-40.041c.852-37.911,1.278-40.254,6.6-50.69,5.751-11.288,14.057-19.594,25.771-25.984,5.538-2.982,14.909-3.834,54.524-4.686C840.424-533.791,842.98-534,851.5-538.9a53.8,53.8,0,0,0,14.909-13.631c5.325-7.667,5.964-10.436,5.964-25.984,0-15.335-.639-18.317-5.964-26.2-3.195-4.9-9.8-11.075-14.909-13.631-8.519-4.686-11.5-4.9-55.8-5.325C769.926-623.883,746.924-623.457,744.581-623.031Z" transform="translate(-618.128 623.727)" fill="#ffb600"/>
</svg>
