<svg width="512" height="512" viewBox="0 0 512 512" fill="none" xmlns="http://www.w3.org/2000/svg">
<rect width="512" height="512" rx="256" fill="white"/>
<path d="M131.834 300.882C115.644 300.877 101.282 314.049 101.277 330.239C101.272 346.429 114.031 359.905 130.221 359.909L317.469 361.087C333.659 361.092 348.021 347.92 348.025 331.73C348.03 315.54 335.271 302.064 319.081 302.059L131.834 300.882Z" fill="#24FFB6"/>
<path d="M350.03 146.255C350.035 130.065 336.39 117.003 320.2 116.998C304.01 116.993 290.061 131.052 290.056 147.242L289.825 331.89C289.82 348.08 303.465 361.142 319.655 361.147C335.845 361.152 349.794 347.093 349.799 330.903L350.03 146.255Z" fill="#9D5FFF"/>
<path d="M235.247 263.451C251.203 256.01 257.826 237.813 250.799 222.744C243.772 207.675 225.575 201.052 209.62 208.492C193.664 215.932 187.041 234.129 194.068 249.199C201.095 264.268 219.292 270.891 235.247 263.451Z" fill="#FF007B"/>
</svg>
