<svg width="959" height="334" viewBox="0 0 959 334" fill="none" xmlns="http://www.w3.org/2000/svg">
<g clip-path="url(#clip0_605_158)">
<g filter="url(#filter0_f_605_158)">
<path d="M1104 53.5C1104 171.965 1007.97 268 889.5 268C771.035 268 675 171.965 675 53.5C675 -64.9651 771.035 -161 889.5 -161C1007.97 -161 1104 -64.9651 1104 53.5Z" fill="url(#paint0_radial_605_158)" fill-opacity="0.3"/>
</g>
<path d="M66.5966 -694V-628.161M66.5966 -628.161L66.5966 -556.157M66.5966 -628.161H0M66.5966 -628.161H138.63M66.5966 -556.157V-484.153M66.5966 -556.157H0M66.5966 -556.157H138.63M66.5966 -484.153L66.5966 -412.149M66.5966 -484.153H0M66.5966 -484.153H138.63M66.5966 -412.149V-340.145M66.5966 -412.149H0M66.5966 -412.149H138.63M66.5966 -340.145L66.5966 -268.141M66.5966 -340.145H0M66.5966 -340.145H138.63M66.5966 -268.141V-196.137M66.5966 -268.141H0M66.5966 -268.141H138.63M66.5966 -196.137L66.5966 -124.133M66.5966 -196.137H0M66.5966 -196.137H138.63M66.5966 -124.133V-57.5634M66.5966 -124.133H0M66.5966 -124.133H138.63M138.63 -124.133H210.664M138.63 -124.133V-196.137M138.63 -124.133V-57.5634M210.664 -124.133H282.697M210.664 -124.133V-196.137M210.664 -124.133V-57.5634M282.697 -124.133H354.731M282.697 -124.133V-196.137M282.697 -124.133V-57.5634M354.731 -124.133H426.765M354.731 -124.133V-196.137M354.731 -124.133V-57.5634M426.765 -124.133H498.798M426.765 -124.133V-196.137M426.765 -124.133V-57.5634M498.798 -124.133H570.832M498.798 -124.133V-196.137M498.798 -124.133V-57.5634M570.832 -124.133H636.698M570.832 -124.133V-196.137M570.832 -124.133V-57.5634M138.63 -694V-628.161M138.63 -628.161V-556.157M138.63 -628.161H210.664M138.63 -556.157L138.63 -484.153M138.63 -556.157H210.664M138.63 -484.153V-412.149M138.63 -484.153H210.664M138.63 -412.149V-340.145M138.63 -412.149H210.664M138.63 -340.145V-268.141M138.63 -340.145H210.664M138.63 -268.141L138.63 -196.137M138.63 -268.141H210.664M138.63 -196.137H210.664M210.664 -196.137H282.697M210.664 -196.137V-268.141M282.697 -196.137H354.731M282.697 -196.137V-268.141M354.731 -196.137H426.765M354.731 -196.137V-268.141M426.765 -196.137H498.798M426.765 -196.137V-268.141M498.798 -196.137H570.832M498.798 -196.137V-268.141M570.832 -196.137H636.698M570.832 -196.137V-268.141M210.664 -694V-628.161M210.664 -628.161V-556.157M210.664 -628.161H282.697M210.664 -556.157V-484.153M210.664 -556.157H282.697M210.664 -484.153V-412.149M210.664 -484.153H282.697M210.664 -412.149L210.664 -340.145M210.664 -412.149H282.697M210.664 -340.145V-268.141M210.664 -340.145H282.697M210.664 -268.141H282.697M282.697 -268.141H354.731M282.697 -268.141V-340.145M354.731 -268.141H426.765M354.731 -268.141V-340.145M426.765 -268.141H498.798M426.765 -268.141V-340.145M498.798 -268.141H570.832M498.798 -268.141V-340.145M570.832 -268.141H636.698M570.832 -268.141V-340.145M282.697 -694V-628.161M282.697 -628.161V-556.157M282.697 -628.161H354.731M282.697 -556.157V-484.153M282.697 -556.157H354.731M282.697 -484.153V-412.149M282.697 -484.153H354.731M282.697 -412.149L282.697 -340.145M282.697 -412.149H354.731M282.697 -340.145H354.731M354.731 -340.145H426.765M354.731 -340.145L354.731 -412.149M426.765 -340.145H498.798M426.765 -340.145L426.765 -412.149M498.798 -340.145H570.832M498.798 -340.145L498.798 -412.149M570.832 -340.145H636.698M570.832 -340.145L570.832 -412.149M354.731 -694V-628.161M354.731 -628.161V-556.157M354.731 -628.161H426.765M354.731 -556.157V-484.153M354.731 -556.157H426.765M354.731 -484.153V-412.149M354.731 -484.153H426.765M354.731 -412.149H426.765M426.765 -412.149H498.798M426.765 -412.149V-484.153M498.798 -412.149H570.832M498.798 -412.149V-484.153M570.832 -412.149H636.698M570.832 -412.149V-484.153M426.765 -694V-628.161M426.765 -628.161V-556.157M426.765 -628.161H498.798M426.765 -556.157V-484.153M426.765 -556.157H498.798M426.765 -484.153H498.798M498.798 -484.153H570.832M498.798 -484.153V-556.157M570.832 -484.153H636.698M570.832 -484.153V-556.157M498.798 -694V-628.161M498.798 -628.161V-556.157M498.798 -628.161H570.832M498.798 -556.157H570.832M570.832 -556.157H636.698M570.832 -556.157V-628.161M570.832 -694V-628.161M570.832 -628.161H636.698M637.248 -694V-628.161M637.248 -628.161V-556.157M637.248 -628.161H570.651M637.248 -628.161H709.281M637.248 -556.157V-484.153M637.248 -556.157H570.651M637.248 -556.157H709.281M637.248 -484.153V-412.149M637.248 -484.153H570.651M637.248 -484.153H709.281M637.248 -412.149V-340.145M637.248 -412.149H570.651M637.248 -412.149H709.281M637.248 -340.145L637.248 -268.141M637.248 -340.145H570.651M637.248 -340.145H709.281M637.248 -268.141V-196.137M637.248 -268.141H570.651M637.248 -268.141H709.281M637.248 -196.137V-124.133M637.248 -196.137H570.651M637.248 -196.137H709.281M637.248 -124.133V-57.5634M637.248 -124.133H570.651M637.248 -124.133H709.281M709.281 -124.133H781.315M709.281 -124.133V-196.137M709.281 -124.133V-57.5634M781.315 -124.133H853.349M781.315 -124.133V-196.137M781.315 -124.133V-57.5634M853.349 -124.133H925.382M853.349 -124.133V-196.137M853.349 -124.133V-57.5634M925.382 -124.133H997.416M925.382 -124.133V-196.137M925.382 -124.133V-57.5634M997.416 -124.133H1069.45M997.416 -124.133V-196.137M997.416 -124.133V-57.5634M1069.45 -124.133H1141.48M1069.45 -124.133V-196.137M1069.45 -124.133V-57.5634M1141.48 -124.133H1207.35M1141.48 -124.133V-196.137M1141.48 -124.133V-57.5634M709.281 -694V-628.161M709.281 -628.161V-556.157M709.281 -628.161H781.315M709.281 -556.157V-484.153M709.281 -556.157H781.315M709.281 -484.153V-412.149M709.281 -484.153H781.315M709.281 -412.149V-340.145M709.281 -412.149H781.315M709.281 -340.145V-268.141M709.281 -340.145H781.315M709.281 -268.141L709.281 -196.137M709.281 -268.141H781.315M709.281 -196.137H781.315M781.315 -196.137H853.349M781.315 -196.137V-268.141M853.349 -196.137H925.382M853.349 -196.137V-268.141M925.382 -196.137H997.416M925.382 -196.137V-268.141M997.416 -196.137H1069.45M997.416 -196.137V-268.141M1069.45 -196.137H1141.48M1069.45 -196.137V-268.141M1141.48 -196.137H1207.35M1141.48 -196.137V-268.141M781.315 -694V-628.161M781.315 -628.161V-556.157M781.315 -628.161H853.349M781.315 -556.157V-484.153M781.315 -556.157H853.349M781.315 -484.153V-412.149M781.315 -484.153H853.349M781.315 -412.149V-340.145M781.315 -412.149H853.349M781.315 -340.145V-268.141M781.315 -340.145H853.349M781.315 -268.141H853.349M853.349 -268.141H925.382M853.349 -268.141V-340.145M925.382 -268.141H997.416M925.382 -268.141V-340.145M997.416 -268.141H1069.45M997.416 -268.141V-340.145M1069.45 -268.141H1141.48M1069.45 -268.141V-340.145M1141.48 -268.141H1207.35M1141.48 -268.141V-340.145M853.349 -694V-628.161M853.349 -628.161V-556.157M853.349 -628.161H925.382M853.349 -556.157V-484.153M853.349 -556.157H925.382M853.349 -484.153V-412.149M853.349 -484.153H925.382M853.349 -412.149L853.349 -340.145M853.349 -412.149H925.382M853.349 -340.145H925.382M925.382 -340.145H997.416M925.382 -340.145V-412.149M997.416 -340.145H1069.45M997.416 -340.145V-412.149M1069.45 -340.145H1141.48M1069.45 -340.145V-412.149M1141.48 -340.145H1207.35M1141.48 -340.145L1141.48 -412.149M925.382 -694V-628.161M925.382 -628.161V-556.157M925.382 -628.161H997.416M925.382 -556.157V-484.153M925.382 -556.157H997.416M925.382 -484.153V-412.149M925.382 -484.153H997.416M925.382 -412.149H997.416M997.416 -412.149H1069.45M997.416 -412.149V-484.153M1069.45 -412.149H1141.48M1069.45 -412.149V-484.153M1141.48 -412.149H1207.35M1141.48 -412.149V-484.153M997.416 -694V-628.161M997.416 -628.161V-556.157M997.416 -628.161H1069.45M997.416 -556.157V-484.153M997.416 -556.157H1069.45M997.416 -484.153H1069.45M1069.45 -484.153H1141.48M1069.45 -484.153V-556.157M1141.48 -484.153H1207.35M1141.48 -484.153V-556.157M1069.45 -694V-628.161M1069.45 -628.161V-556.157M1069.45 -628.161H1141.48M1069.45 -556.157H1141.48M1141.48 -556.157H1207.35M1141.48 -556.157V-628.161M1141.48 -694V-628.161M1141.48 -628.161H1207.35M1207.9 -694V-628.161M1207.9 -628.161V-556.157M1207.9 -628.161H1141.3M1207.9 -628.161H1279.93M1207.9 -556.157V-484.153M1207.9 -556.157H1141.3M1207.9 -556.157H1279.93M1207.9 -484.153V-412.149M1207.9 -484.153H1141.3M1207.9 -484.153H1279.93M1207.9 -412.149V-340.145M1207.9 -412.149H1141.3M1207.9 -412.149H1279.93M1207.9 -340.145V-268.141M1207.9 -340.145H1141.3M1207.9 -340.145H1279.93M1207.9 -268.141V-196.137M1207.9 -268.141H1141.3M1207.9 -268.141H1279.93M1207.9 -196.137V-124.133M1207.9 -196.137H1141.3M1207.9 -196.137H1279.93M1207.9 -124.133V-57.5634M1207.9 -124.133H1141.3M1207.9 -124.133H1279.93M1279.93 -124.133H1351.97M1279.93 -124.133V-196.137M1279.93 -124.133V-57.5634M1351.97 -124.133H1424M1351.97 -124.133V-196.137M1351.97 -124.133V-57.5634M1424 -124.133H1496.03M1424 -124.133V-196.137M1424 -124.133V-57.5634M1496.03 -124.133H1568.07M1496.03 -124.133V-196.137M1496.03 -124.133V-57.5634M1568.07 -124.133H1640.1M1568.07 -124.133V-196.137M1568.07 -124.133V-57.5634M1640.1 -124.133H1712.13M1640.1 -124.133V-196.137M1640.1 -124.133V-57.5634M1712.13 -124.133H1778M1712.13 -124.133V-196.137M1712.13 -124.133V-57.5634M1279.93 -694V-628.161M1279.93 -628.161V-556.157M1279.93 -628.161H1351.97M1279.93 -556.157L1279.93 -484.153M1279.93 -556.157H1351.97M1279.93 -484.153V-412.149M1279.93 -484.153H1351.97M1279.93 -412.149V-340.145M1279.93 -412.149H1351.97M1279.93 -340.145V-268.141M1279.93 -340.145H1351.97M1279.93 -268.141V-196.137M1279.93 -268.141H1351.97M1279.93 -196.137H1351.97M1351.97 -196.137H1424M1351.97 -196.137V-268.141M1424 -196.137H1496.03M1424 -196.137V-268.141M1496.03 -196.137H1568.07M1496.03 -196.137V-268.141M1568.07 -196.137H1640.1M1568.07 -196.137V-268.141M1640.1 -196.137H1712.13M1640.1 -196.137V-268.141M1712.13 -196.137H1778M1712.13 -196.137V-268.141M1351.97 -694V-628.161M1351.97 -628.161V-556.157M1351.97 -628.161H1424M1351.97 -556.157V-484.153M1351.97 -556.157H1424M1351.97 -484.153V-412.149M1351.97 -484.153H1424M1351.97 -412.149V-340.145M1351.97 -412.149H1424M1351.97 -340.145V-268.141M1351.97 -340.145H1424M1351.97 -268.141H1424M1424 -268.141H1496.03M1424 -268.141V-340.145M1496.03 -268.141H1568.07M1496.03 -268.141V-340.145M1568.07 -268.141H1640.1M1568.07 -268.141V-340.145M1640.1 -268.141H1712.13M1640.1 -268.141V-340.145M1712.13 -268.141H1778M1712.13 -268.141V-340.145M1424 -694V-628.161M1424 -628.161V-556.157M1424 -628.161H1496.03M1424 -556.157V-484.153M1424 -556.157H1496.03M1424 -484.153V-412.149M1424 -484.153H1496.03M1424 -412.149L1424 -340.145M1424 -412.149H1496.03M1424 -340.145H1496.03M1496.03 -340.145H1568.07M1496.03 -340.145V-412.149M1568.07 -340.145H1640.1M1568.07 -340.145V-412.149M1640.1 -340.145H1712.13M1640.1 -340.145V-412.149M1712.13 -340.145H1778M1712.13 -340.145L1712.13 -412.149M1496.03 -694V-628.161M1496.03 -628.161V-556.157M1496.03 -628.161H1568.07M1496.03 -556.157V-484.153M1496.03 -556.157H1568.07M1496.03 -484.153V-412.149M1496.03 -484.153H1568.07M1496.03 -412.149H1568.07M1568.07 -412.149H1640.1M1568.07 -412.149V-484.153M1640.1 -412.149H1712.13M1640.1 -412.149V-484.153M1712.13 -412.149H1778M1712.13 -412.149V-484.153M1568.07 -694V-628.161M1568.07 -628.161V-556.157M1568.07 -628.161H1640.1M1568.07 -556.157V-484.153M1568.07 -556.157H1640.1M1568.07 -484.153H1640.1M1640.1 -484.153H1712.13M1640.1 -484.153V-556.157M1712.13 -484.153H1778M1712.13 -484.153V-556.157M1640.1 -694V-628.161M1640.1 -628.161V-556.157M1640.1 -628.161H1712.13M1640.1 -556.157H1712.13M1712.13 -556.157H1778M1712.13 -556.157V-628.161M1712.13 -694V-628.161M1712.13 -628.161H1778M66.5966 -124.437V-58.5978M66.5966 -58.5978L66.5966 13.4063M66.5966 -58.5978H0M66.5966 -58.5978H138.63M66.5966 13.4063V85.4104M66.5966 13.4063H0M66.5966 13.4063H138.63M66.5966 85.4104L66.5966 157.414M66.5966 85.4104H0M66.5966 85.4104H138.63M66.5966 157.414V229.418M66.5966 157.414H0M66.5966 157.414H138.63M66.5966 229.418L66.5966 301.423M66.5966 229.418H0M66.5966 229.418H138.63M66.5966 301.423V373.427M66.5966 301.423H0M66.5966 301.423H138.63M66.5966 373.427L66.5966 445.431M66.5966 373.427H0M66.5966 373.427H138.63M66.5966 445.431V512M66.5966 445.431H0M66.5966 445.431H138.63M138.63 445.431H210.664M138.63 445.431V373.427M138.63 445.431V512M210.664 445.431H282.697M210.664 445.431V373.427M210.664 445.431V512M282.697 445.431H354.731M282.697 445.431V373.427M282.697 445.431V512M354.731 445.431H426.765M354.731 445.431V373.427M354.731 445.431V512M426.765 445.431H498.798M426.765 445.431V373.427M426.765 445.431V512M498.798 445.431H570.832M498.798 445.431V373.427M498.798 445.431V512M570.832 445.431H636.698M570.832 445.431V373.427M570.832 445.431V512M138.63 -124.437V-58.5978M138.63 -58.5978V13.4063M138.63 -58.5978H210.664M138.63 13.4063L138.63 85.4104M138.63 13.4063H210.664M138.63 85.4104V157.414M138.63 85.4104H210.664M138.63 157.414V229.418M138.63 157.414H210.664M138.63 229.418V301.423M138.63 229.418H210.664M138.63 301.423L138.63 373.427M138.63 301.423H210.664M138.63 373.427H210.664M210.664 373.427H282.697M210.664 373.427V301.423M282.697 373.427H354.731M282.697 373.427V301.423M354.731 373.427H426.765M354.731 373.427V301.423M426.765 373.427H498.798M426.765 373.427V301.423M498.798 373.427H570.832M498.798 373.427V301.423M570.832 373.427H636.698M570.832 373.427V301.423M210.664 -124.437V-58.5978M210.664 -58.5978V13.4063M210.664 -58.5978H282.697M210.664 13.4063V85.4104M210.664 13.4063H282.697M210.664 85.4104V157.414M210.664 85.4104H282.697M210.664 157.414L210.664 229.418M210.664 157.414H282.697M210.664 229.418V301.423M210.664 229.418H282.697M210.664 301.423H282.697M282.697 301.423H354.731M282.697 301.423V229.418M354.731 301.423H426.765M354.731 301.423V229.418M426.765 301.423H498.798M426.765 301.423V229.418M498.798 301.423H570.832M498.798 301.423V229.418M570.832 301.423H636.698M570.832 301.423V229.418M282.697 -124.437V-58.5978M282.697 -58.5978V13.4063M282.697 -58.5978H354.731M282.697 13.4063V85.4104M282.697 13.4063H354.731M282.697 85.4104V157.414M282.697 85.4104H354.731M282.697 157.414L282.697 229.418M282.697 157.414H354.731M282.697 229.418H354.731M354.731 229.418H426.765M354.731 229.418L354.731 157.414M426.765 229.418H498.798M426.765 229.418L426.765 157.414M498.798 229.418H570.832M498.798 229.418L498.798 157.414M570.832 229.418H636.698M570.832 229.418L570.832 157.414M354.731 -124.437V-58.5978M354.731 -58.5978V13.4063M354.731 -58.5978H426.765M354.731 13.4063V85.4104M354.731 13.4063H426.765M354.731 85.4104V157.414M354.731 85.4104H426.765M354.731 157.414H426.765M426.765 157.414H498.798M426.765 157.414V85.4104M498.798 157.414H570.832M498.798 157.414V85.4104M570.832 157.414H636.698M570.832 157.414V85.4104M426.765 -124.437V-58.5978M426.765 -58.5978V13.4063M426.765 -58.5978H498.798M426.765 13.4063V85.4104M426.765 13.4063H498.798M426.765 85.4104H498.798M498.798 85.4104H570.832M498.798 85.4104V13.4063M570.832 85.4104H636.698M570.832 85.4104V13.4063M498.798 -124.437V-58.5978M498.798 -58.5978V13.4063M498.798 -58.5978H570.832M498.798 13.4063H570.832M570.832 13.4063H636.698M570.832 13.4063V-58.5978M570.832 -124.437V-58.5978M570.832 -58.5978H636.698M637.248 -124.437V-58.5978M637.248 -58.5978V13.4063M637.248 -58.5978H570.651M637.248 -58.5978H709.281M637.248 13.4063V85.4104M637.248 13.4063H570.651M637.248 13.4063H709.281M637.248 85.4104V157.414M637.248 85.4104H570.651M637.248 85.4104H709.281M637.248 157.414V229.418M637.248 157.414H570.651M637.248 157.414H709.281M637.248 229.418L637.248 301.423M637.248 229.418H570.651M637.248 229.418H709.281M637.248 301.423V373.427M637.248 301.423H570.651M637.248 301.423H709.281M637.248 373.427V445.431M637.248 373.427H570.651M637.248 373.427H709.281M637.248 445.431V512M637.248 445.431H570.651M637.248 445.431H709.281M709.281 445.431H781.315M709.281 445.431V373.427M709.281 445.431V512M781.315 445.431H853.349M781.315 445.431V373.427M781.315 445.431V512M853.349 445.431H925.382M853.349 445.431V373.427M853.349 445.431V512M925.382 445.431H997.416M925.382 445.431V373.427M925.382 445.431V512M997.416 445.431H1069.45M997.416 445.431V373.427M997.416 445.431V512M1069.45 445.431H1141.48M1069.45 445.431V373.427M1069.45 445.431V512M1141.48 445.431H1207.35M1141.48 445.431V373.427M1141.48 445.431V512M709.281 -124.437V-58.5978M709.281 -58.5978V13.4063M709.281 -58.5978H781.315M709.281 13.4063V85.4104M709.281 13.4063H781.315M709.281 85.4104V157.414M709.281 85.4104H781.315M709.281 157.414V229.418M709.281 157.414H781.315M709.281 229.418V301.423M709.281 229.418H781.315M709.281 301.423L709.281 373.427M709.281 301.423H781.315M709.281 373.427H781.315M781.315 373.427H853.349M781.315 373.427V301.423M853.349 373.427H925.382M853.349 373.427V301.423M925.382 373.427H997.416M925.382 373.427V301.423M997.416 373.427H1069.45M997.416 373.427V301.423M1069.45 373.427H1141.48M1069.45 373.427V301.423M1141.48 373.427H1207.35M1141.48 373.427V301.423M781.315 -124.437V-58.5978M781.315 -58.5978V13.4063M781.315 -58.5978H853.349M781.315 13.4063V85.4104M781.315 13.4063H853.349M781.315 85.4104V157.414M781.315 85.4104H853.349M781.315 157.414V229.418M781.315 157.414H853.349M781.315 229.418V301.423M781.315 229.418H853.349M781.315 301.423H853.349M853.349 301.423H925.382M853.349 301.423V229.418M925.382 301.423H997.416M925.382 301.423V229.418M997.416 301.423H1069.45M997.416 301.423V229.418M1069.45 301.423H1141.48M1069.45 301.423V229.418M1141.48 301.423H1207.35M1141.48 301.423V229.418M853.349 -124.437V-58.5978M853.349 -58.5978V13.4063M853.349 -58.5978H925.382M853.349 13.4063V85.4104M853.349 13.4063H925.382M853.349 85.4104V157.414M853.349 85.4104H925.382M853.349 157.414L853.349 229.418M853.349 157.414H925.382M853.349 229.418H925.382M925.382 229.418H997.416M925.382 229.418V157.414M997.416 229.418H1069.45M997.416 229.418V157.414M1069.45 229.418H1141.48M1069.45 229.418V157.414M1141.48 229.418H1207.35M1141.48 229.418L1141.48 157.414M925.382 -124.437V-58.5978M925.382 -58.5978V13.4063M925.382 -58.5978H997.416M925.382 13.4063V85.4104M925.382 13.4063H997.416M925.382 85.4104V157.414M925.382 85.4104H997.416M925.382 157.414H997.416M997.416 157.414H1069.45M997.416 157.414V85.4104M1069.45 157.414H1141.48M1069.45 157.414V85.4104M1141.48 157.414H1207.35M1141.48 157.414V85.4104M997.416 -124.437V-58.5978M997.416 -58.5978V13.4063M997.416 -58.5978H1069.45M997.416 13.4063V85.4104M997.416 13.4063H1069.45M997.416 85.4104H1069.45M1069.45 85.4104H1141.48M1069.45 85.4104V13.4063M1141.48 85.4104H1207.35M1141.48 85.4104V13.4063M1069.45 -124.437V-58.5978M1069.45 -58.5978V13.4063M1069.45 -58.5978H1141.48M1069.45 13.4063H1141.48M1141.48 13.4063H1207.35M1141.48 13.4063V-58.5978M1141.48 -124.437V-58.5978M1141.48 -58.5978H1207.35M1207.9 -124.437V-58.5978M1207.9 -58.5978V13.4063M1207.9 -58.5978H1141.3M1207.9 -58.5978H1279.93M1207.9 13.4063V85.4104M1207.9 13.4063H1141.3M1207.9 13.4063H1279.93M1207.9 85.4104V157.414M1207.9 85.4104H1141.3M1207.9 85.4104H1279.93M1207.9 157.414V229.418M1207.9 157.414H1141.3M1207.9 157.414H1279.93M1207.9 229.418V301.423M1207.9 229.418H1141.3M1207.9 229.418H1279.93M1207.9 301.423V373.427M1207.9 301.423H1141.3M1207.9 301.423H1279.93M1207.9 373.427V445.431M1207.9 373.427H1141.3M1207.9 373.427H1279.93M1207.9 445.431V512M1207.9 445.431H1141.3M1207.9 445.431H1279.93M1279.93 445.431H1351.97M1279.93 445.431V373.427M1279.93 445.431V512M1351.97 445.431H1424M1351.97 445.431V373.427M1351.97 445.431V512M1424 445.431H1496.03M1424 445.431V373.427M1424 445.431V512M1496.03 445.431H1568.07M1496.03 445.431V373.427M1496.03 445.431V512M1568.07 445.431H1640.1M1568.07 445.431V373.427M1568.07 445.431V512M1640.1 445.431H1712.13M1640.1 445.431V373.427M1640.1 445.431V512M1712.13 445.431H1778M1712.13 445.431V373.427M1712.13 445.431V512M1279.93 -124.437V-58.5978M1279.93 -58.5978V13.4063M1279.93 -58.5978H1351.97M1279.93 13.4063L1279.93 85.4104M1279.93 13.4063H1351.97M1279.93 85.4104V157.414M1279.93 85.4104H1351.97M1279.93 157.414V229.418M1279.93 157.414H1351.97M1279.93 229.418V301.423M1279.93 229.418H1351.97M1279.93 301.423V373.427M1279.93 301.423H1351.97M1279.93 373.427H1351.97M1351.97 373.427H1424M1351.97 373.427V301.423M1424 373.427H1496.03M1424 373.427V301.423M1496.03 373.427H1568.07M1496.03 373.427V301.423M1568.07 373.427H1640.1M1568.07 373.427V301.423M1640.1 373.427H1712.13M1640.1 373.427V301.423M1712.13 373.427H1778M1712.13 373.427V301.423M1351.97 -124.437V-58.5978M1351.97 -58.5978V13.4063M1351.97 -58.5978H1424M1351.97 13.4063V85.4104M1351.97 13.4063H1424M1351.97 85.4104V157.414M1351.97 85.4104H1424M1351.97 157.414V229.418M1351.97 157.414H1424M1351.97 229.418V301.423M1351.97 229.418H1424M1351.97 301.423H1424M1424 301.423H1496.03M1424 301.423V229.418M1496.03 301.423H1568.07M1496.03 301.423V229.418M1568.07 301.423H1640.1M1568.07 301.423V229.418M1640.1 301.423H1712.13M1640.1 301.423V229.418M1712.13 301.423H1778M1712.13 301.423V229.418M1424 -124.437V-58.5978M1424 -58.5978V13.4063M1424 -58.5978H1496.03M1424 13.4063V85.4104M1424 13.4063H1496.03M1424 85.4104V157.414M1424 85.4104H1496.03M1424 157.414L1424 229.418M1424 157.414H1496.03M1424 229.418H1496.03M1496.03 229.418H1568.07M1496.03 229.418V157.414M1568.07 229.418H1640.1M1568.07 229.418V157.414M1640.1 229.418H1712.13M1640.1 229.418V157.414M1712.13 229.418H1778M1712.13 229.418L1712.13 157.414M1496.03 -124.437V-58.5978M1496.03 -58.5978V13.4063M1496.03 -58.5978H1568.07M1496.03 13.4063V85.4104M1496.03 13.4063H1568.07M1496.03 85.4104V157.414M1496.03 85.4104H1568.07M1496.03 157.414H1568.07M1568.07 157.414H1640.1M1568.07 157.414V85.4104M1640.1 157.414H1712.13M1640.1 157.414V85.4104M1712.13 157.414H1778M1712.13 157.414V85.4104M1568.07 -124.437V-58.5978M1568.07 -58.5978V13.4063M1568.07 -58.5978H1640.1M1568.07 13.4063V85.4104M1568.07 13.4063H1640.1M1568.07 85.4104H1640.1M1640.1 85.4104H1712.13M1640.1 85.4104V13.4063M1712.13 85.4104H1778M1712.13 85.4104V13.4063M1640.1 -124.437V-58.5978M1640.1 -58.5978V13.4063M1640.1 -58.5978H1712.13M1640.1 13.4063H1712.13M1712.13 13.4063H1778M1712.13 13.4063V-58.5978M1712.13 -124.437V-58.5978M1712.13 -58.5978H1778" stroke="url(#paint1_radial_605_158)" stroke-opacity="0.23" stroke-width="2"/>
</g>
<defs>
<filter id="filter0_f_605_158" x="555" y="-281" width="669" height="669" filterUnits="userSpaceOnUse" color-interpolation-filters="sRGB">
<feFlood flood-opacity="0" result="BackgroundImageFix"/>
<feBlend mode="normal" in="SourceGraphic" in2="BackgroundImageFix" result="shape"/>
<feGaussianBlur stdDeviation="60" result="effect1_foregroundBlur_605_158"/>
</filter>
<radialGradient id="paint0_radial_605_158" cx="0" cy="0" r="1" gradientUnits="userSpaceOnUse" gradientTransform="translate(889.5 53.5) rotate(90) scale(214.5)">
<stop stop-color="#FFB600" stop-opacity="0.92"/>
<stop offset="1" stop-color="#FFB600" stop-opacity="0"/>
</radialGradient>
<radialGradient id="paint1_radial_605_158" cx="0" cy="0" r="1" gradientUnits="userSpaceOnUse" gradientTransform="translate(889 -90.9999) rotate(90) scale(500 737.148)">
<stop stop-color="#FFB600" stop-opacity="0.92"/>
<stop offset="1" stop-color="#FFB600" stop-opacity="0.04"/>
</radialGradient>
<clipPath id="clip0_605_158">
<rect width="959" height="334" fill="white"/>
</clipPath>
</defs>
</svg>
