<svg width="956" height="1206" viewBox="0 0 956 1206" fill="none" xmlns="http://www.w3.org/2000/svg">
<path d="M-755.403 0V65.8389M-755.403 65.8389L-755.403 137.843M-755.403 65.8389H-822M-755.403 65.8389H-683.37M-755.403 137.843V209.847M-755.403 137.843H-822M-755.403 137.843H-683.37M-755.403 209.847L-755.403 281.851M-755.403 209.847H-822M-755.403 209.847H-683.37M-755.403 281.851V353.855M-755.403 281.851H-822M-755.403 281.851H-683.37M-755.403 353.855L-755.403 425.859M-755.403 353.855H-822M-755.403 353.855H-683.37M-755.403 425.859V497.863M-755.403 425.859H-822M-755.403 425.859H-683.37M-755.403 497.863L-755.403 569.867M-755.403 497.863H-822M-755.403 497.863H-683.37M-755.403 569.867V636.437M-755.403 569.867H-822M-755.403 569.867H-683.37M-683.37 569.867H-611.336M-683.37 569.867V497.863M-683.37 569.867V636.437M-611.336 569.867H-539.303M-611.336 569.867V497.863M-611.336 569.867V636.437M-539.303 569.867H-467.269M-539.303 569.867V497.863M-539.303 569.867V636.437M-467.269 569.867H-395.235M-467.269 569.867V497.863M-467.269 569.867V636.437M-395.235 569.867H-323.202M-395.235 569.867V497.863M-395.235 569.867V636.437M-323.202 569.867H-251.168M-323.202 569.867V497.863M-323.202 569.867V636.437M-251.168 569.867H-185.302M-251.168 569.867V497.863M-251.168 569.867V636.437M-683.37 0V65.8389M-683.37 65.8389V137.843M-683.37 65.8389H-611.336M-683.37 137.843L-683.37 209.847M-683.37 137.843H-611.336M-683.37 209.847V281.851M-683.37 209.847H-611.336M-683.37 281.851V353.855M-683.37 281.851H-611.336M-683.37 353.855V425.859M-683.37 353.855H-611.336M-683.37 425.859L-683.37 497.863M-683.37 425.859H-611.336M-683.37 497.863H-611.336M-611.336 497.863H-539.303M-611.336 497.863V425.859M-539.303 497.863H-467.269M-539.303 497.863V425.859M-467.269 497.863H-395.235M-467.269 497.863V425.859M-395.235 497.863H-323.202M-395.235 497.863V425.859M-323.202 497.863H-251.168M-323.202 497.863V425.859M-251.168 497.863H-185.302M-251.168 497.863V425.859M-611.336 0V65.8389M-611.336 65.8389V137.843M-611.336 65.8389H-539.303M-611.336 137.843V209.847M-611.336 137.843H-539.303M-611.336 209.847V281.851M-611.336 209.847H-539.303M-611.336 281.851L-611.336 353.855M-611.336 281.851H-539.303M-611.336 353.855V425.859M-611.336 353.855H-539.303M-611.336 425.859H-539.303M-539.303 425.859H-467.269M-539.303 425.859V353.855M-467.269 425.859H-395.235M-467.269 425.859V353.855M-395.235 425.859H-323.202M-395.235 425.859V353.855M-323.202 425.859H-251.168M-323.202 425.859V353.855M-251.168 425.859H-185.302M-251.168 425.859V353.855M-539.303 0V65.8389M-539.303 65.8389V137.843M-539.303 65.8389H-467.269M-539.303 137.843V209.847M-539.303 137.843H-467.269M-539.303 209.847V281.851M-539.303 209.847H-467.269M-539.303 281.851L-539.303 353.855M-539.303 281.851H-467.269M-539.303 353.855H-467.269M-467.269 353.855H-395.235M-467.269 353.855L-467.269 281.851M-395.235 353.855H-323.202M-395.235 353.855L-395.235 281.851M-323.202 353.855H-251.168M-323.202 353.855L-323.202 281.851M-251.168 353.855H-185.302M-251.168 353.855L-251.168 281.851M-467.269 0V65.8389M-467.269 65.8389V137.843M-467.269 65.8389H-395.235M-467.269 137.843V209.847M-467.269 137.843H-395.235M-467.269 209.847V281.851M-467.269 209.847H-395.235M-467.269 281.851H-395.235M-395.235 281.851H-323.202M-395.235 281.851V209.847M-323.202 281.851H-251.168M-323.202 281.851V209.847M-251.168 281.851H-185.302M-251.168 281.851V209.847M-395.235 0V65.8389M-395.235 65.8389V137.843M-395.235 65.8389H-323.202M-395.235 137.843V209.847M-395.235 137.843H-323.202M-395.235 209.847H-323.202M-323.202 209.847H-251.168M-323.202 209.847V137.843M-251.168 209.847H-185.302M-251.168 209.847V137.843M-323.202 0V65.8389M-323.202 65.8389V137.843M-323.202 65.8389H-251.168M-323.202 137.843H-251.168M-251.168 137.843H-185.302M-251.168 137.843V65.8389M-251.168 0V65.8389M-251.168 65.8389H-185.302M-184.752 0V65.8389M-184.752 65.8389V137.843M-184.752 65.8389H-251.349M-184.752 65.8389H-112.719M-184.752 137.843V209.847M-184.752 137.843H-251.349M-184.752 137.843H-112.719M-184.752 209.847V281.851M-184.752 209.847H-251.349M-184.752 209.847H-112.719M-184.752 281.851V353.855M-184.752 281.851H-251.349M-184.752 281.851H-112.719M-184.752 353.855L-184.752 425.859M-184.752 353.855H-251.349M-184.752 353.855H-112.719M-184.752 425.859V497.863M-184.752 425.859H-251.349M-184.752 425.859H-112.719M-184.752 497.863V569.867M-184.752 497.863H-251.349M-184.752 497.863H-112.719M-184.752 569.867V636.437M-184.752 569.867H-251.349M-184.752 569.867H-112.719M-112.719 569.867H-40.685M-112.719 569.867V497.863M-112.719 569.867V636.437M-40.685 569.867H31.3485M-40.685 569.867V497.863M-40.685 569.867V636.437M31.3485 569.867H103.382M31.3485 569.867V497.863M31.3485 569.867V636.437M103.382 569.867H175.416M103.382 569.867V497.863M103.382 569.867V636.437M175.416 569.867H247.449M175.416 569.867V497.863M175.416 569.867V636.437M247.449 569.867H319.483M247.449 569.867V497.863M247.449 569.867V636.437M319.483 569.867H385.349M319.483 569.867V497.863M319.483 569.867V636.437M-112.719 0V65.8389M-112.719 65.8389V137.843M-112.719 65.8389H-40.685M-112.719 137.843V209.847M-112.719 137.843H-40.685M-112.719 209.847V281.851M-112.719 209.847H-40.685M-112.719 281.851V353.855M-112.719 281.851H-40.685M-112.719 353.855V425.859M-112.719 353.855H-40.685M-112.719 425.859L-112.719 497.863M-112.719 425.859H-40.685M-112.719 497.863H-40.685M-40.685 497.863H31.3485M-40.685 497.863V425.859M31.3485 497.863H103.382M31.3485 497.863V425.859M103.382 497.863H175.416M103.382 497.863V425.859M175.416 497.863H247.449M175.416 497.863V425.859M247.449 497.863H319.483M247.449 497.863V425.859M319.483 497.863H385.349M319.483 497.863V425.859M-40.685 0V65.8389M-40.685 65.8389V137.843M-40.685 65.8389H31.3486M-40.685 137.843V209.847M-40.685 137.843H31.3486M-40.685 209.847V281.851M-40.685 209.847H31.3486M-40.685 281.851V353.855M-40.685 281.851H31.3486M-40.685 353.855V425.859M-40.685 353.855H31.3485M-40.685 425.859H31.3485M31.3485 425.859H103.382M31.3485 425.859V353.855M103.382 425.859H175.416M103.382 425.859V353.855M175.416 425.859H247.449M175.416 425.859V353.855M247.449 425.859H319.483M247.449 425.859V353.855M319.483 425.859H385.349M319.483 425.859V353.855M31.3486 0V65.8389M31.3486 65.8389V137.843M31.3486 65.8389H103.382M31.3486 137.843V209.847M31.3486 137.843H103.382M31.3486 209.847V281.851M31.3486 209.847H103.382M31.3486 281.851L31.3485 353.855M31.3486 281.851H103.382M31.3485 353.855H103.382M103.382 353.855H175.416M103.382 353.855V281.851M175.416 353.855H247.449M175.416 353.855V281.851M247.449 353.855H319.483M247.449 353.855V281.851M319.483 353.855H385.349M319.483 353.855L319.483 281.851M103.382 0V65.8389M103.382 65.8389V137.843M103.382 65.8389H175.416M103.382 137.843V209.847M103.382 137.843H175.416M103.382 209.847V281.851M103.382 209.847H175.416M103.382 281.851H175.416M175.416 281.851H247.449M175.416 281.851V209.847M247.449 281.851H319.483M247.449 281.851V209.847M319.483 281.851H385.349M319.483 281.851V209.847M175.416 0V65.8389M175.416 65.8389V137.843M175.416 65.8389H247.449M175.416 137.843V209.847M175.416 137.843H247.449M175.416 209.847H247.449M247.449 209.847H319.483M247.449 209.847V137.843M319.483 209.847H385.349M319.483 209.847V137.843M247.449 0V65.8389M247.449 65.8389V137.843M247.449 65.8389H319.483M247.449 137.843H319.483M319.483 137.843H385.349M319.483 137.843V65.8389M319.483 0V65.8389M319.483 65.8389H385.349M385.899 0V65.8389M385.899 65.8389V137.843M385.899 65.8389H319.302M385.899 65.8389H457.933M385.899 137.843V209.847M385.899 137.843H319.302M385.899 137.843H457.933M385.899 209.847V281.851M385.899 209.847H319.302M385.899 209.847H457.933M385.899 281.851V353.855M385.899 281.851H319.302M385.899 281.851H457.933M385.899 353.855V425.859M385.899 353.855H319.302M385.899 353.855H457.933M385.899 425.859V497.863M385.899 425.859H319.302M385.899 425.859H457.933M385.899 497.863V569.867M385.899 497.863H319.302M385.899 497.863H457.933M385.899 569.867V636.437M385.899 569.867H319.302M385.899 569.867H457.933M457.933 569.867H529.966M457.933 569.867V497.863M457.933 569.867V636.437M529.966 569.867H602M529.966 569.867V497.863M529.966 569.867V636.437M602 569.867H674.033M602 569.867V497.863M602 569.867V636.437M674.033 569.867H746.067M674.033 569.867V497.863M674.033 569.867V636.437M746.067 569.867H818.101M746.067 569.867V497.863M746.067 569.867V636.437M818.101 569.867H890.134M818.101 569.867V497.863M818.101 569.867V636.437M890.134 569.867H956M890.134 569.867V497.863M890.134 569.867V636.437M457.933 0V65.8389M457.933 65.8389V137.843M457.933 65.8389H529.966M457.933 137.843L457.933 209.847M457.933 137.843H529.966M457.933 209.847V281.851M457.933 209.847H529.966M457.933 281.851V353.855M457.933 281.851H529.966M457.933 353.855V425.859M457.933 353.855H529.966M457.933 425.859V497.863M457.933 425.859H529.966M457.933 497.863H529.966M529.966 497.863H602M529.966 497.863V425.859M602 497.863H674.033M602 497.863V425.859M674.033 497.863H746.067M674.033 497.863V425.859M746.067 497.863H818.101M746.067 497.863V425.859M818.101 497.863H890.134M818.101 497.863V425.859M890.134 497.863H956M890.134 497.863V425.859M529.966 0V65.8389M529.966 65.8389V137.843M529.966 65.8389H602M529.966 137.843V209.847M529.966 137.843H602M529.966 209.847V281.851M529.966 209.847H602M529.966 281.851V353.855M529.966 281.851H602M529.966 353.855V425.859M529.966 353.855H602M529.966 425.859H602M602 425.859H674.033M602 425.859V353.855M674.033 425.859H746.067M674.033 425.859V353.855M746.067 425.859H818.101M746.067 425.859V353.855M818.101 425.859H890.134M818.101 425.859V353.855M890.134 425.859H956M890.134 425.859V353.855M602 0V65.8389M602 65.8389V137.843M602 65.8389H674.033M602 137.843V209.847M602 137.843H674.033M602 209.847V281.851M602 209.847H674.033M602 281.851L602 353.855M602 281.851H674.033M602 353.855H674.033M674.033 353.855H746.067M674.033 353.855V281.851M746.067 353.855H818.101M746.067 353.855V281.851M818.101 353.855H890.134M818.101 353.855V281.851M890.134 353.855H956M890.134 353.855L890.134 281.851M674.033 0V65.8389M674.033 65.8389V137.843M674.033 65.8389H746.067M674.033 137.843V209.847M674.033 137.843H746.067M674.033 209.847V281.851M674.033 209.847H746.067M674.033 281.851H746.067M746.067 281.851H818.101M746.067 281.851V209.847M818.101 281.851H890.134M818.101 281.851V209.847M890.134 281.851H956M890.134 281.851V209.847M746.067 0V65.8389M746.067 65.8389V137.843M746.067 65.8389H818.101M746.067 137.843V209.847M746.067 137.843H818.101M746.067 209.847H818.101M818.101 209.847H890.134M818.101 209.847V137.843M890.134 209.847H956M890.134 209.847V137.843M818.101 0V65.8389M818.101 65.8389V137.843M818.101 65.8389H890.134M818.101 137.843H890.134M890.134 137.843H956M890.134 137.843V65.8389M890.134 0V65.8389M890.134 65.8389H956M-755.403 569.563V635.402M-755.403 635.402L-755.403 707.406M-755.403 635.402H-822M-755.403 635.402H-683.37M-755.403 707.406V779.41M-755.403 707.406H-822M-755.403 707.406H-683.37M-755.403 779.41L-755.403 851.414M-755.403 779.41H-822M-755.403 779.41H-683.37M-755.403 851.414V923.418M-755.403 851.414H-822M-755.403 851.414H-683.37M-755.403 923.418L-755.403 995.423M-755.403 923.418H-822M-755.403 923.418H-683.37M-755.403 995.423V1067.43M-755.403 995.423H-822M-755.403 995.423H-683.37M-755.403 1067.43L-755.403 1139.43M-755.403 1067.43H-822M-755.403 1067.43H-683.37M-755.403 1139.43V1206M-755.403 1139.43H-822M-755.403 1139.43H-683.37M-683.37 1139.43H-611.336M-683.37 1139.43V1067.43M-683.37 1139.43V1206M-611.336 1139.43H-539.303M-611.336 1139.43V1067.43M-611.336 1139.43V1206M-539.303 1139.43H-467.269M-539.303 1139.43V1067.43M-539.303 1139.43V1206M-467.269 1139.43H-395.235M-467.269 1139.43V1067.43M-467.269 1139.43V1206M-395.235 1139.43H-323.202M-395.235 1139.43V1067.43M-395.235 1139.43V1206M-323.202 1139.43H-251.168M-323.202 1139.43V1067.43M-323.202 1139.43V1206M-251.168 1139.43H-185.302M-251.168 1139.43V1067.43M-251.168 1139.43V1206M-683.37 569.563V635.402M-683.37 635.402V707.406M-683.37 635.402H-611.336M-683.37 707.406L-683.37 779.41M-683.37 707.406H-611.336M-683.37 779.41V851.414M-683.37 779.41H-611.336M-683.37 851.414V923.418M-683.37 851.414H-611.336M-683.37 923.418V995.423M-683.37 923.418H-611.336M-683.37 995.423L-683.37 1067.43M-683.37 995.423H-611.336M-683.37 1067.43H-611.336M-611.336 1067.43H-539.303M-611.336 1067.43V995.423M-539.303 1067.43H-467.269M-539.303 1067.43V995.423M-467.269 1067.43H-395.235M-467.269 1067.43V995.423M-395.235 1067.43H-323.202M-395.235 1067.43V995.423M-323.202 1067.43H-251.168M-323.202 1067.43V995.423M-251.168 1067.43H-185.302M-251.168 1067.43V995.423M-611.336 569.563V635.402M-611.336 635.402V707.406M-611.336 635.402H-539.303M-611.336 707.406V779.41M-611.336 707.406H-539.303M-611.336 779.41V851.414M-611.336 779.41H-539.303M-611.336 851.414L-611.336 923.418M-611.336 851.414H-539.303M-611.336 923.418V995.423M-611.336 923.418H-539.303M-611.336 995.423H-539.303M-539.303 995.423H-467.269M-539.303 995.423V923.418M-467.269 995.423H-395.235M-467.269 995.423V923.418M-395.235 995.423H-323.202M-395.235 995.423V923.418M-323.202 995.423H-251.168M-323.202 995.423V923.418M-251.168 995.423H-185.302M-251.168 995.423V923.418M-539.303 569.563V635.402M-539.303 635.402V707.406M-539.303 635.402H-467.269M-539.303 707.406V779.41M-539.303 707.406H-467.269M-539.303 779.41V851.414M-539.303 779.41H-467.269M-539.303 851.414L-539.303 923.418M-539.303 851.414H-467.269M-539.303 923.418H-467.269M-467.269 923.418H-395.235M-467.269 923.418L-467.269 851.414M-395.235 923.418H-323.202M-395.235 923.418L-395.235 851.414M-323.202 923.418H-251.168M-323.202 923.418L-323.202 851.414M-251.168 923.418H-185.302M-251.168 923.418L-251.168 851.414M-467.269 569.563V635.402M-467.269 635.402V707.406M-467.269 635.402H-395.235M-467.269 707.406V779.41M-467.269 707.406H-395.235M-467.269 779.41V851.414M-467.269 779.41H-395.235M-467.269 851.414H-395.235M-395.235 851.414H-323.202M-395.235 851.414V779.41M-323.202 851.414H-251.168M-323.202 851.414V779.41M-251.168 851.414H-185.302M-251.168 851.414V779.41M-395.235 569.563V635.402M-395.235 635.402V707.406M-395.235 635.402H-323.202M-395.235 707.406V779.41M-395.235 707.406H-323.202M-395.235 779.41H-323.202M-323.202 779.41H-251.168M-323.202 779.41V707.406M-251.168 779.41H-185.302M-251.168 779.41V707.406M-323.202 569.563V635.402M-323.202 635.402V707.406M-323.202 635.402H-251.168M-323.202 707.406H-251.168M-251.168 707.406H-185.302M-251.168 707.406V635.402M-251.168 569.563V635.402M-251.168 635.402H-185.302M-184.752 569.563V635.402M-184.752 635.402V707.406M-184.752 635.402H-251.349M-184.752 635.402H-112.719M-184.752 707.406V779.41M-184.752 707.406H-251.349M-184.752 707.406H-112.719M-184.752 779.41V851.414M-184.752 779.41H-251.349M-184.752 779.41H-112.719M-184.752 851.414V923.418M-184.752 851.414H-251.349M-184.752 851.414H-112.719M-184.752 923.418L-184.752 995.423M-184.752 923.418H-251.349M-184.752 923.418H-112.719M-184.752 995.423V1067.43M-184.752 995.423H-251.349M-184.752 995.423H-112.719M-184.752 1067.43V1139.43M-184.752 1067.43H-251.349M-184.752 1067.43H-112.719M-184.752 1139.43V1206M-184.752 1139.43H-251.349M-184.752 1139.43H-112.719M-112.719 1139.43H-40.685M-112.719 1139.43V1067.43M-112.719 1139.43V1206M-40.685 1139.43H31.3485M-40.685 1139.43V1067.43M-40.685 1139.43V1206M31.3485 1139.43H103.382M31.3485 1139.43V1067.43M31.3485 1139.43V1206M103.382 1139.43H175.416M103.382 1139.43V1067.43M103.382 1139.43V1206M175.416 1139.43H247.449M175.416 1139.43V1067.43M175.416 1139.43V1206M247.449 1139.43H319.483M247.449 1139.43V1067.43M247.449 1139.43V1206M319.483 1139.43H385.349M319.483 1139.43V1067.43M319.483 1139.43V1206M-112.719 569.563V635.402M-112.719 635.402V707.406M-112.719 635.402H-40.685M-112.719 707.406V779.41M-112.719 707.406H-40.685M-112.719 779.41V851.414M-112.719 779.41H-40.685M-112.719 851.414V923.418M-112.719 851.414H-40.685M-112.719 923.418V995.423M-112.719 923.418H-40.685M-112.719 995.423L-112.719 1067.43M-112.719 995.423H-40.685M-112.719 1067.43H-40.685M-40.685 1067.43H31.3485M-40.685 1067.43V995.423M31.3485 1067.43H103.382M31.3485 1067.43V995.423M103.382 1067.43H175.416M103.382 1067.43V995.423M175.416 1067.43H247.449M175.416 1067.43V995.423M247.449 1067.43H319.483M247.449 1067.43V995.423M319.483 1067.43H385.349M319.483 1067.43V995.423M-40.685 569.563V635.402M-40.685 635.402V707.406M-40.685 635.402H31.3486M-40.685 707.406V779.41M-40.685 707.406H31.3486M-40.685 779.41V851.414M-40.685 779.41H31.3486M-40.685 851.414V923.418M-40.685 851.414H31.3486M-40.685 923.418V995.423M-40.685 923.418H31.3485M-40.685 995.423H31.3485M31.3485 995.423H103.382M31.3485 995.423V923.418M103.382 995.423H175.416M103.382 995.423V923.418M175.416 995.423H247.449M175.416 995.423V923.418M247.449 995.423H319.483M247.449 995.423V923.418M319.483 995.423H385.349M319.483 995.423V923.418M31.3486 569.563V635.402M31.3486 635.402V707.406M31.3486 635.402H103.382M31.3486 707.406V779.41M31.3486 707.406H103.382M31.3486 779.41V851.414M31.3486 779.41H103.382M31.3486 851.414L31.3485 923.418M31.3486 851.414H103.382M31.3485 923.418H103.382M103.382 923.418H175.416M103.382 923.418V851.414M175.416 923.418H247.449M175.416 923.418V851.414M247.449 923.418H319.483M247.449 923.418V851.414M319.483 923.418H385.349M319.483 923.418L319.483 851.414M103.382 569.563V635.402M103.382 635.402V707.406M103.382 635.402H175.416M103.382 707.406V779.41M103.382 707.406H175.416M103.382 779.41V851.414M103.382 779.41H175.416M103.382 851.414H175.416M175.416 851.414H247.449M175.416 851.414V779.41M247.449 851.414H319.483M247.449 851.414V779.41M319.483 851.414H385.349M319.483 851.414V779.41M175.416 569.563V635.402M175.416 635.402V707.406M175.416 635.402H247.449M175.416 707.406V779.41M175.416 707.406H247.449M175.416 779.41H247.449M247.449 779.41H319.483M247.449 779.41V707.406M319.483 779.41H385.349M319.483 779.41V707.406M247.449 569.563V635.402M247.449 635.402V707.406M247.449 635.402H319.483M247.449 707.406H319.483M319.483 707.406H385.349M319.483 707.406V635.402M319.483 569.563V635.402M319.483 635.402H385.349M385.899 569.563V635.402M385.899 635.402V707.406M385.899 635.402H319.302M385.899 635.402H457.933M385.899 707.406V779.41M385.899 707.406H319.302M385.899 707.406H457.933M385.899 779.41V851.414M385.899 779.41H319.302M385.899 779.41H457.933M385.899 851.414V923.418M385.899 851.414H319.302M385.899 851.414H457.933M385.899 923.418V995.423M385.899 923.418H319.302M385.899 923.418H457.933M385.899 995.423V1067.43M385.899 995.423H319.302M385.899 995.423H457.933M385.899 1067.43V1139.43M385.899 1067.43H319.302M385.899 1067.43H457.933M385.899 1139.43V1206M385.899 1139.43H319.302M385.899 1139.43H457.933M457.933 1139.43H529.966M457.933 1139.43V1067.43M457.933 1139.43V1206M529.966 1139.43H602M529.966 1139.43V1067.43M529.966 1139.43V1206M602 1139.43H674.033M602 1139.43V1067.43M602 1139.43V1206M674.033 1139.43H746.067M674.033 1139.43V1067.43M674.033 1139.43V1206M746.067 1139.43H818.101M746.067 1139.43V1067.43M746.067 1139.43V1206M818.101 1139.43H890.134M818.101 1139.43V1067.43M818.101 1139.43V1206M890.134 1139.43H956M890.134 1139.43V1067.43M890.134 1139.43V1206M457.933 569.563V635.402M457.933 635.402V707.406M457.933 635.402H529.966M457.933 707.406L457.933 779.41M457.933 707.406H529.966M457.933 779.41V851.414M457.933 779.41H529.966M457.933 851.414V923.418M457.933 851.414H529.966M457.933 923.418V995.423M457.933 923.418H529.966M457.933 995.423V1067.43M457.933 995.423H529.966M457.933 1067.43H529.966M529.966 1067.43H602M529.966 1067.43V995.423M602 1067.43H674.033M602 1067.43V995.423M674.033 1067.43H746.067M674.033 1067.43V995.423M746.067 1067.43H818.101M746.067 1067.43V995.423M818.101 1067.43H890.134M818.101 1067.43V995.423M890.134 1067.43H956M890.134 1067.43V995.423M529.966 569.563V635.402M529.966 635.402V707.406M529.966 635.402H602M529.966 707.406V779.41M529.966 707.406H602M529.966 779.41V851.414M529.966 779.41H602M529.966 851.414V923.418M529.966 851.414H602M529.966 923.418V995.423M529.966 923.418H602M529.966 995.423H602M602 995.423H674.033M602 995.423V923.418M674.033 995.423H746.067M674.033 995.423V923.418M746.067 995.423H818.101M746.067 995.423V923.418M818.101 995.423H890.134M818.101 995.423V923.418M890.134 995.423H956M890.134 995.423V923.418M602 569.563V635.402M602 635.402V707.406M602 635.402H674.033M602 707.406V779.41M602 707.406H674.033M602 779.41V851.414M602 779.41H674.033M602 851.414L602 923.418M602 851.414H674.033M602 923.418H674.033M674.033 923.418H746.067M674.033 923.418V851.414M746.067 923.418H818.101M746.067 923.418V851.414M818.101 923.418H890.134M818.101 923.418V851.414M890.134 923.418H956M890.134 923.418L890.134 851.414M674.033 569.563V635.402M674.033 635.402V707.406M674.033 635.402H746.067M674.033 707.406V779.41M674.033 707.406H746.067M674.033 779.41V851.414M674.033 779.41H746.067M674.033 851.414H746.067M746.067 851.414H818.101M746.067 851.414V779.41M818.101 851.414H890.134M818.101 851.414V779.41M890.134 851.414H956M890.134 851.414V779.41M746.067 569.563V635.402M746.067 635.402V707.406M746.067 635.402H818.101M746.067 707.406V779.41M746.067 707.406H818.101M746.067 779.41H818.101M818.101 779.41H890.134M818.101 779.41V707.406M890.134 779.41H956M890.134 779.41V707.406M818.101 569.563V635.402M818.101 635.402V707.406M818.101 635.402H890.134M818.101 707.406H890.134M890.134 707.406H956M890.134 707.406V635.402M890.134 569.563V635.402M890.134 635.402H956" stroke="url(#paint0_radial_1591_1142)" stroke-opacity="0.23" stroke-width="2"/>
<defs>
<radialGradient id="paint0_radial_1591_1142" cx="0" cy="0" r="1" gradientUnits="userSpaceOnUse" gradientTransform="translate(66.9999 603) rotate(90) scale(368.5 543.278)">
<stop stop-color="#FFB600" stop-opacity="0.92"/>
<stop offset="1" stop-color="#FFB600" stop-opacity="0.04"/>
</radialGradient>
</defs>
</svg>
