<svg width="1728" height="914" viewBox="0 0 1728 914" fill="none" xmlns="http://www.w3.org/2000/svg">
<g clip-path="url(#clip0_544_11)">
<path d="M41.5966 -121V-55.1611M41.5966 -55.1611L41.5966 16.8429M41.5966 -55.1611H-25M41.5966 -55.1611H113.63M41.5966 16.8429V88.847M41.5966 16.8429H-25M41.5966 16.8429H113.63M41.5966 88.847L41.5966 160.851M41.5966 88.847H-25M41.5966 88.847H113.63M41.5966 160.851V232.855M41.5966 160.851H-25M41.5966 160.851H113.63M41.5966 232.855L41.5966 304.859M41.5966 232.855H-25M41.5966 232.855H113.63M41.5966 304.859V376.863M41.5966 304.859H-25M41.5966 304.859H113.63M41.5966 376.863L41.5966 448.867M41.5966 376.863H-25M41.5966 376.863H113.63M41.5966 448.867V515.437M41.5966 448.867H-25M41.5966 448.867H113.63M113.63 448.867H185.664M113.63 448.867V376.863M113.63 448.867V515.437M185.664 448.867H257.697M185.664 448.867V376.863M185.664 448.867V515.437M257.697 448.867H329.731M257.697 448.867V376.863M257.697 448.867V515.437M329.731 448.867H401.765M329.731 448.867V376.863M329.731 448.867V515.437M401.765 448.867H473.798M401.765 448.867V376.863M401.765 448.867V515.437M473.798 448.867H545.832M473.798 448.867V376.863M473.798 448.867V515.437M545.832 448.867H611.698M545.832 448.867V376.863M545.832 448.867V515.437M113.63 -121V-55.1611M113.63 -55.1611V16.8429M113.63 -55.1611H185.664M113.63 16.8429L113.63 88.847M113.63 16.8429H185.664M113.63 88.847V160.851M113.63 88.847H185.664M113.63 160.851V232.855M113.63 160.851H185.664M113.63 232.855V304.859M113.63 232.855H185.664M113.63 304.859L113.63 376.863M113.63 304.859H185.664M113.63 376.863H185.664M185.664 376.863H257.697M185.664 376.863V304.859M257.697 376.863H329.731M257.697 376.863V304.859M329.731 376.863H401.765M329.731 376.863V304.859M401.765 376.863H473.798M401.765 376.863V304.859M473.798 376.863H545.832M473.798 376.863V304.859M545.832 376.863H611.698M545.832 376.863V304.859M185.664 -121V-55.1611M185.664 -55.1611V16.8429M185.664 -55.1611H257.697M185.664 16.8429V88.847M185.664 16.8429H257.697M185.664 88.847V160.851M185.664 88.847H257.697M185.664 160.851L185.664 232.855M185.664 160.851H257.697M185.664 232.855V304.859M185.664 232.855H257.697M185.664 304.859H257.697M257.697 304.859H329.731M257.697 304.859V232.855M329.731 304.859H401.765M329.731 304.859V232.855M401.765 304.859H473.798M401.765 304.859V232.855M473.798 304.859H545.832M473.798 304.859V232.855M545.832 304.859H611.698M545.832 304.859V232.855M257.697 -121V-55.1611M257.697 -55.1611V16.8429M257.697 -55.1611H329.731M257.697 16.8429V88.847M257.697 16.8429H329.731M257.697 88.847V160.851M257.697 88.847H329.731M257.697 160.851L257.697 232.855M257.697 160.851H329.731M257.697 232.855H329.731M329.731 232.855H401.765M329.731 232.855L329.731 160.851M401.765 232.855H473.798M401.765 232.855L401.765 160.851M473.798 232.855H545.832M473.798 232.855L473.798 160.851M545.832 232.855H611.698M545.832 232.855L545.832 160.851M329.731 -121V-55.1611M329.731 -55.1611V16.8429M329.731 -55.1611H401.765M329.731 16.8429V88.847M329.731 16.8429H401.765M329.731 88.847V160.851M329.731 88.847H401.765M329.731 160.851H401.765M401.765 160.851H473.798M401.765 160.851V88.847M473.798 160.851H545.832M473.798 160.851V88.847M545.832 160.851H611.698M545.832 160.851V88.847M401.765 -121V-55.1611M401.765 -55.1611V16.8429M401.765 -55.1611H473.798M401.765 16.8429V88.847M401.765 16.8429H473.798M401.765 88.847H473.798M473.798 88.847H545.832M473.798 88.847V16.8429M545.832 88.847H611.698M545.832 88.847V16.8429M473.798 -121V-55.1611M473.798 -55.1611V16.8429M473.798 -55.1611H545.832M473.798 16.8429H545.832M545.832 16.8429H611.698M545.832 16.8429V-55.1611M545.832 -121V-55.1611M545.832 -55.1611H611.698M612.248 -121V-55.1611M612.248 -55.1611V16.8429M612.248 -55.1611H545.651M612.248 -55.1611H684.281M612.248 16.8429V88.847M612.248 16.8429H545.651M612.248 16.8429H684.281M612.248 88.847V160.851M612.248 88.847H545.651M612.248 88.847H684.281M612.248 160.851V232.855M612.248 160.851H545.651M612.248 160.851H684.281M612.248 232.855L612.248 304.859M612.248 232.855H545.651M612.248 232.855H684.281M612.248 304.859V376.863M612.248 304.859H545.651M612.248 304.859H684.281M612.248 376.863V448.867M612.248 376.863H545.651M612.248 376.863H684.281M612.248 448.867V515.437M612.248 448.867H545.651M612.248 448.867H684.281M684.281 448.867H756.315M684.281 448.867V376.863M684.281 448.867V515.437M756.315 448.867H828.349M756.315 448.867V376.863M756.315 448.867V515.437M828.349 448.867H900.382M828.349 448.867V376.863M828.349 448.867V515.437M900.382 448.867H972.416M900.382 448.867V376.863M900.382 448.867V515.437M972.416 448.867H1044.45M972.416 448.867V376.863M972.416 448.867V515.437M1044.45 448.867H1116.48M1044.45 448.867V376.863M1044.45 448.867V515.437M1116.48 448.867H1182.35M1116.48 448.867V376.863M1116.48 448.867V515.437M684.281 -121V-55.1611M684.281 -55.1611V16.8429M684.281 -55.1611H756.315M684.281 16.8429V88.847M684.281 16.8429H756.315M684.281 88.847V160.851M684.281 88.847H756.315M684.281 160.851V232.855M684.281 160.851H756.315M684.281 232.855V304.859M684.281 232.855H756.315M684.281 304.859L684.281 376.863M684.281 304.859H756.315M684.281 376.863H756.315M756.315 376.863H828.349M756.315 376.863V304.859M828.349 376.863H900.382M828.349 376.863V304.859M900.382 376.863H972.416M900.382 376.863V304.859M972.416 376.863H1044.45M972.416 376.863V304.859M1044.45 376.863H1116.48M1044.45 376.863V304.859M1116.48 376.863H1182.35M1116.48 376.863V304.859M756.315 -121V-55.1611M756.315 -55.1611V16.8429M756.315 -55.1611H828.349M756.315 16.8429V88.847M756.315 16.8429H828.349M756.315 88.847V160.851M756.315 88.847H828.349M756.315 160.851V232.855M756.315 160.851H828.349M756.315 232.855V304.859M756.315 232.855H828.349M756.315 304.859H828.349M828.349 304.859H900.382M828.349 304.859V232.855M900.382 304.859H972.416M900.382 304.859V232.855M972.416 304.859H1044.45M972.416 304.859V232.855M1044.45 304.859H1116.48M1044.45 304.859V232.855M1116.48 304.859H1182.35M1116.48 304.859V232.855M828.349 -121V-55.1611M828.349 -55.1611V16.8429M828.349 -55.1611H900.382M828.349 16.8429V88.847M828.349 16.8429H900.382M828.349 88.847V160.851M828.349 88.847H900.382M828.349 160.851L828.349 232.855M828.349 160.851H900.382M828.349 232.855H900.382M900.382 232.855H972.416M900.382 232.855V160.851M972.416 232.855H1044.45M972.416 232.855V160.851M1044.45 232.855H1116.48M1044.45 232.855V160.851M1116.48 232.855H1182.35M1116.48 232.855L1116.48 160.851M900.382 -121V-55.1611M900.382 -55.1611V16.8429M900.382 -55.1611H972.416M900.382 16.8429V88.847M900.382 16.8429H972.416M900.382 88.847V160.851M900.382 88.847H972.416M900.382 160.851H972.416M972.416 160.851H1044.45M972.416 160.851V88.847M1044.45 160.851H1116.48M1044.45 160.851V88.847M1116.48 160.851H1182.35M1116.48 160.851V88.847M972.416 -121V-55.1611M972.416 -55.1611V16.8429M972.416 -55.1611H1044.45M972.416 16.8429V88.847M972.416 16.8429H1044.45M972.416 88.847H1044.45M1044.45 88.847H1116.48M1044.45 88.847V16.8429M1116.48 88.847H1182.35M1116.48 88.847V16.8429M1044.45 -121V-55.1611M1044.45 -55.1611V16.8429M1044.45 -55.1611H1116.48M1044.45 16.8429H1116.48M1116.48 16.8429H1182.35M1116.48 16.8429V-55.1611M1116.48 -121V-55.1611M1116.48 -55.1611H1182.35M1182.9 -121V-55.1611M1182.9 -55.1611V16.8429M1182.9 -55.1611H1116.3M1182.9 -55.1611H1254.93M1182.9 16.8429V88.847M1182.9 16.8429H1116.3M1182.9 16.8429H1254.93M1182.9 88.847V160.851M1182.9 88.847H1116.3M1182.9 88.847H1254.93M1182.9 160.851V232.855M1182.9 160.851H1116.3M1182.9 160.851H1254.93M1182.9 232.855V304.859M1182.9 232.855H1116.3M1182.9 232.855H1254.93M1182.9 304.859V376.863M1182.9 304.859H1116.3M1182.9 304.859H1254.93M1182.9 376.863V448.867M1182.9 376.863H1116.3M1182.9 376.863H1254.93M1182.9 448.867V515.437M1182.9 448.867H1116.3M1182.9 448.867H1254.93M1254.93 448.867H1326.97M1254.93 448.867V376.863M1254.93 448.867V515.437M1326.97 448.867H1399M1326.97 448.867V376.863M1326.97 448.867V515.437M1399 448.867H1471.03M1399 448.867V376.863M1399 448.867V515.437M1471.03 448.867H1543.07M1471.03 448.867V376.863M1471.03 448.867V515.437M1543.07 448.867H1615.1M1543.07 448.867V376.863M1543.07 448.867V515.437M1615.1 448.867H1687.13M1615.1 448.867V376.863M1615.1 448.867V515.437M1687.13 448.867H1753M1687.13 448.867V376.863M1687.13 448.867V515.437M1254.93 -121V-55.1611M1254.93 -55.1611V16.8429M1254.93 -55.1611H1326.97M1254.93 16.8429L1254.93 88.847M1254.93 16.8429H1326.97M1254.93 88.847V160.851M1254.93 88.847H1326.97M1254.93 160.851V232.855M1254.93 160.851H1326.97M1254.93 232.855V304.859M1254.93 232.855H1326.97M1254.93 304.859V376.863M1254.93 304.859H1326.97M1254.93 376.863H1326.97M1326.97 376.863H1399M1326.97 376.863V304.859M1399 376.863H1471.03M1399 376.863V304.859M1471.03 376.863H1543.07M1471.03 376.863V304.859M1543.07 376.863H1615.1M1543.07 376.863V304.859M1615.1 376.863H1687.13M1615.1 376.863V304.859M1687.13 376.863H1753M1687.13 376.863V304.859M1326.97 -121V-55.1611M1326.97 -55.1611V16.8429M1326.97 -55.1611H1399M1326.97 16.8429V88.847M1326.97 16.8429H1399M1326.97 88.847V160.851M1326.97 88.847H1399M1326.97 160.851V232.855M1326.97 160.851H1399M1326.97 232.855V304.859M1326.97 232.855H1399M1326.97 304.859H1399M1399 304.859H1471.03M1399 304.859V232.855M1471.03 304.859H1543.07M1471.03 304.859V232.855M1543.07 304.859H1615.1M1543.07 304.859V232.855M1615.1 304.859H1687.13M1615.1 304.859V232.855M1687.13 304.859H1753M1687.13 304.859V232.855M1399 -121V-55.1611M1399 -55.1611V16.8429M1399 -55.1611H1471.03M1399 16.8429V88.847M1399 16.8429H1471.03M1399 88.847V160.851M1399 88.847H1471.03M1399 160.851L1399 232.855M1399 160.851H1471.03M1399 232.855H1471.03M1471.03 232.855H1543.07M1471.03 232.855V160.851M1543.07 232.855H1615.1M1543.07 232.855V160.851M1615.1 232.855H1687.13M1615.1 232.855V160.851M1687.13 232.855H1753M1687.13 232.855L1687.13 160.851M1471.03 -121V-55.1611M1471.03 -55.1611V16.8429M1471.03 -55.1611H1543.07M1471.03 16.8429V88.847M1471.03 16.8429H1543.07M1471.03 88.847V160.851M1471.03 88.847H1543.07M1471.03 160.851H1543.07M1543.07 160.851H1615.1M1543.07 160.851V88.847M1615.1 160.851H1687.13M1615.1 160.851V88.847M1687.13 160.851H1753M1687.13 160.851V88.847M1543.07 -121V-55.1611M1543.07 -55.1611V16.8429M1543.07 -55.1611H1615.1M1543.07 16.8429V88.847M1543.07 16.8429H1615.1M1543.07 88.847H1615.1M1615.1 88.847H1687.13M1615.1 88.847V16.8429M1687.13 88.847H1753M1687.13 88.847V16.8429M1615.1 -121V-55.1611M1615.1 -55.1611V16.8429M1615.1 -55.1611H1687.13M1615.1 16.8429H1687.13M1687.13 16.8429H1753M1687.13 16.8429V-55.1611M1687.13 -121V-55.1611M1687.13 -55.1611H1753M41.5966 448.563V514.402M41.5966 514.402L41.5966 586.406M41.5966 514.402H-25M41.5966 514.402H113.63M41.5966 586.406V658.41M41.5966 586.406H-25M41.5966 586.406H113.63M41.5966 658.41L41.5966 730.414M41.5966 658.41H-25M41.5966 658.41H113.63M41.5966 730.414V802.418M41.5966 730.414H-25M41.5966 730.414H113.63M41.5966 802.418L41.5966 874.423M41.5966 802.418H-25M41.5966 802.418H113.63M41.5966 874.423V946.427M41.5966 874.423H-25M41.5966 874.423H113.63M41.5966 946.427L41.5966 1018.43M41.5966 946.427H-25M41.5966 946.427H113.63M41.5966 1018.43V1085M41.5966 1018.43H-25M41.5966 1018.43H113.63M113.63 1018.43H185.664M113.63 1018.43V946.427M113.63 1018.43V1085M185.664 1018.43H257.697M185.664 1018.43V946.427M185.664 1018.43V1085M257.697 1018.43H329.731M257.697 1018.43V946.427M257.697 1018.43V1085M329.731 1018.43H401.765M329.731 1018.43V946.427M329.731 1018.43V1085M401.765 1018.43H473.798M401.765 1018.43V946.427M401.765 1018.43V1085M473.798 1018.43H545.832M473.798 1018.43V946.427M473.798 1018.43V1085M545.832 1018.43H611.698M545.832 1018.43V946.427M545.832 1018.43V1085M113.63 448.563V514.402M113.63 514.402V586.406M113.63 514.402H185.664M113.63 586.406L113.63 658.41M113.63 586.406H185.664M113.63 658.41V730.414M113.63 658.41H185.664M113.63 730.414V802.418M113.63 730.414H185.664M113.63 802.418V874.423M113.63 802.418H185.664M113.63 874.423L113.63 946.427M113.63 874.423H185.664M113.63 946.427H185.664M185.664 946.427H257.697M185.664 946.427V874.423M257.697 946.427H329.731M257.697 946.427V874.423M329.731 946.427H401.765M329.731 946.427V874.423M401.765 946.427H473.798M401.765 946.427V874.423M473.798 946.427H545.832M473.798 946.427V874.423M545.832 946.427H611.698M545.832 946.427V874.423M185.664 448.563V514.402M185.664 514.402V586.406M185.664 514.402H257.697M185.664 586.406V658.41M185.664 586.406H257.697M185.664 658.41V730.414M185.664 658.41H257.697M185.664 730.414L185.664 802.418M185.664 730.414H257.697M185.664 802.418V874.423M185.664 802.418H257.697M185.664 874.423H257.697M257.697 874.423H329.731M257.697 874.423V802.418M329.731 874.423H401.765M329.731 874.423V802.418M401.765 874.423H473.798M401.765 874.423V802.418M473.798 874.423H545.832M473.798 874.423V802.418M545.832 874.423H611.698M545.832 874.423V802.418M257.697 448.563V514.402M257.697 514.402V586.406M257.697 514.402H329.731M257.697 586.406V658.41M257.697 586.406H329.731M257.697 658.41V730.414M257.697 658.41H329.731M257.697 730.414L257.697 802.418M257.697 730.414H329.731M257.697 802.418H329.731M329.731 802.418H401.765M329.731 802.418L329.731 730.414M401.765 802.418H473.798M401.765 802.418L401.765 730.414M473.798 802.418H545.832M473.798 802.418L473.798 730.414M545.832 802.418H611.698M545.832 802.418L545.832 730.414M329.731 448.563V514.402M329.731 514.402V586.406M329.731 514.402H401.765M329.731 586.406V658.41M329.731 586.406H401.765M329.731 658.41V730.414M329.731 658.41H401.765M329.731 730.414H401.765M401.765 730.414H473.798M401.765 730.414V658.41M473.798 730.414H545.832M473.798 730.414V658.41M545.832 730.414H611.698M545.832 730.414V658.41M401.765 448.563V514.402M401.765 514.402V586.406M401.765 514.402H473.798M401.765 586.406V658.41M401.765 586.406H473.798M401.765 658.41H473.798M473.798 658.41H545.832M473.798 658.41V586.406M545.832 658.41H611.698M545.832 658.41V586.406M473.798 448.563V514.402M473.798 514.402V586.406M473.798 514.402H545.832M473.798 586.406H545.832M545.832 586.406H611.698M545.832 586.406V514.402M545.832 448.563V514.402M545.832 514.402H611.698M612.248 448.563V514.402M612.248 514.402V586.406M612.248 514.402H545.651M612.248 514.402H684.281M612.248 586.406V658.41M612.248 586.406H545.651M612.248 586.406H684.281M612.248 658.41V730.414M612.248 658.41H545.651M612.248 658.41H684.281M612.248 730.414V802.418M612.248 730.414H545.651M612.248 730.414H684.281M612.248 802.418L612.248 874.423M612.248 802.418H545.651M612.248 802.418H684.281M612.248 874.423V946.427M612.248 874.423H545.651M612.248 874.423H684.281M612.248 946.427V1018.43M612.248 946.427H545.651M612.248 946.427H684.281M612.248 1018.43V1085M612.248 1018.43H545.651M612.248 1018.43H684.281M684.281 1018.43H756.315M684.281 1018.43V946.427M684.281 1018.43V1085M756.315 1018.43H828.349M756.315 1018.43V946.427M756.315 1018.43V1085M828.349 1018.43H900.382M828.349 1018.43V946.427M828.349 1018.43V1085M900.382 1018.43H972.416M900.382 1018.43V946.427M900.382 1018.43V1085M972.416 1018.43H1044.45M972.416 1018.43V946.427M972.416 1018.43V1085M1044.45 1018.43H1116.48M1044.45 1018.43V946.427M1044.45 1018.43V1085M1116.48 1018.43H1182.35M1116.48 1018.43V946.427M1116.48 1018.43V1085M684.281 448.563V514.402M684.281 514.402V586.406M684.281 514.402H756.315M684.281 586.406V658.41M684.281 586.406H756.315M684.281 658.41V730.414M684.281 658.41H756.315M684.281 730.414V802.418M684.281 730.414H756.315M684.281 802.418V874.423M684.281 802.418H756.315M684.281 874.423L684.281 946.427M684.281 874.423H756.315M684.281 946.427H756.315M756.315 946.427H828.349M756.315 946.427V874.423M828.349 946.427H900.382M828.349 946.427V874.423M900.382 946.427H972.416M900.382 946.427V874.423M972.416 946.427H1044.45M972.416 946.427V874.423M1044.45 946.427H1116.48M1044.45 946.427V874.423M1116.48 946.427H1182.35M1116.48 946.427V874.423M756.315 448.563V514.402M756.315 514.402V586.406M756.315 514.402H828.349M756.315 586.406V658.41M756.315 586.406H828.349M756.315 658.41V730.414M756.315 658.41H828.349M756.315 730.414V802.418M756.315 730.414H828.349M756.315 802.418V874.423M756.315 802.418H828.349M756.315 874.423H828.349M828.349 874.423H900.382M828.349 874.423V802.418M900.382 874.423H972.416M900.382 874.423V802.418M972.416 874.423H1044.45M972.416 874.423V802.418M1044.45 874.423H1116.48M1044.45 874.423V802.418M1116.48 874.423H1182.35M1116.48 874.423V802.418M828.349 448.563V514.402M828.349 514.402V586.406M828.349 514.402H900.382M828.349 586.406V658.41M828.349 586.406H900.382M828.349 658.41V730.414M828.349 658.41H900.382M828.349 730.414L828.349 802.418M828.349 730.414H900.382M828.349 802.418H900.382M900.382 802.418H972.416M900.382 802.418V730.414M972.416 802.418H1044.45M972.416 802.418V730.414M1044.45 802.418H1116.48M1044.45 802.418V730.414M1116.48 802.418H1182.35M1116.48 802.418L1116.48 730.414M900.382 448.563V514.402M900.382 514.402V586.406M900.382 514.402H972.416M900.382 586.406V658.41M900.382 586.406H972.416M900.382 658.41V730.414M900.382 658.41H972.416M900.382 730.414H972.416M972.416 730.414H1044.45M972.416 730.414V658.41M1044.45 730.414H1116.48M1044.45 730.414V658.41M1116.48 730.414H1182.35M1116.48 730.414V658.41M972.416 448.563V514.402M972.416 514.402V586.406M972.416 514.402H1044.45M972.416 586.406V658.41M972.416 586.406H1044.45M972.416 658.41H1044.45M1044.45 658.41H1116.48M1044.45 658.41V586.406M1116.48 658.41H1182.35M1116.48 658.41V586.406M1044.45 448.563V514.402M1044.45 514.402V586.406M1044.45 514.402H1116.48M1044.45 586.406H1116.48M1116.48 586.406H1182.35M1116.48 586.406V514.402M1116.48 448.563V514.402M1116.48 514.402H1182.35M1182.9 448.563V514.402M1182.9 514.402V586.406M1182.9 514.402H1116.3M1182.9 514.402H1254.93M1182.9 586.406V658.41M1182.9 586.406H1116.3M1182.9 586.406H1254.93M1182.9 658.41V730.414M1182.9 658.41H1116.3M1182.9 658.41H1254.93M1182.9 730.414V802.418M1182.9 730.414H1116.3M1182.9 730.414H1254.93M1182.9 802.418V874.423M1182.9 802.418H1116.3M1182.9 802.418H1254.93M1182.9 874.423V946.427M1182.9 874.423H1116.3M1182.9 874.423H1254.93M1182.9 946.427V1018.43M1182.9 946.427H1116.3M1182.9 946.427H1254.93M1182.9 1018.43V1085M1182.9 1018.43H1116.3M1182.9 1018.43H1254.93M1254.93 1018.43H1326.97M1254.93 1018.43V946.427M1254.93 1018.43V1085M1326.97 1018.43H1399M1326.97 1018.43V946.427M1326.97 1018.43V1085M1399 1018.43H1471.03M1399 1018.43V946.427M1399 1018.43V1085M1471.03 1018.43H1543.07M1471.03 1018.43V946.427M1471.03 1018.43V1085M1543.07 1018.43H1615.1M1543.07 1018.43V946.427M1543.07 1018.43V1085M1615.1 1018.43H1687.13M1615.1 1018.43V946.427M1615.1 1018.43V1085M1687.13 1018.43H1753M1687.13 1018.43V946.427M1687.13 1018.43V1085M1254.93 448.563V514.402M1254.93 514.402V586.406M1254.93 514.402H1326.97M1254.93 586.406L1254.93 658.41M1254.93 586.406H1326.97M1254.93 658.41V730.414M1254.93 658.41H1326.97M1254.93 730.414V802.418M1254.93 730.414H1326.97M1254.93 802.418V874.423M1254.93 802.418H1326.97M1254.93 874.423V946.427M1254.93 874.423H1326.97M1254.93 946.427H1326.97M1326.97 946.427H1399M1326.97 946.427V874.423M1399 946.427H1471.03M1399 946.427V874.423M1471.03 946.427H1543.07M1471.03 946.427V874.423M1543.07 946.427H1615.1M1543.07 946.427V874.423M1615.1 946.427H1687.13M1615.1 946.427V874.423M1687.13 946.427H1753M1687.13 946.427V874.423M1326.97 448.563V514.402M1326.97 514.402V586.406M1326.97 514.402H1399M1326.97 586.406V658.41M1326.97 586.406H1399M1326.97 658.41V730.414M1326.97 658.41H1399M1326.97 730.414V802.418M1326.97 730.414H1399M1326.97 802.418V874.423M1326.97 802.418H1399M1326.97 874.423H1399M1399 874.423H1471.03M1399 874.423V802.418M1471.03 874.423H1543.07M1471.03 874.423V802.418M1543.07 874.423H1615.1M1543.07 874.423V802.418M1615.1 874.423H1687.13M1615.1 874.423V802.418M1687.13 874.423H1753M1687.13 874.423V802.418M1399 448.563V514.402M1399 514.402V586.406M1399 514.402H1471.03M1399 586.406V658.41M1399 586.406H1471.03M1399 658.41V730.414M1399 658.41H1471.03M1399 730.414L1399 802.418M1399 730.414H1471.03M1399 802.418H1471.03M1471.03 802.418H1543.07M1471.03 802.418V730.414M1543.07 802.418H1615.1M1543.07 802.418V730.414M1615.1 802.418H1687.13M1615.1 802.418V730.414M1687.13 802.418H1753M1687.13 802.418L1687.13 730.414M1471.03 448.563V514.402M1471.03 514.402V586.406M1471.03 514.402H1543.07M1471.03 586.406V658.41M1471.03 586.406H1543.07M1471.03 658.41V730.414M1471.03 658.41H1543.07M1471.03 730.414H1543.07M1543.07 730.414H1615.1M1543.07 730.414V658.41M1615.1 730.414H1687.13M1615.1 730.414V658.41M1687.13 730.414H1753M1687.13 730.414V658.41M1543.07 448.563V514.402M1543.07 514.402V586.406M1543.07 514.402H1615.1M1543.07 586.406V658.41M1543.07 586.406H1615.1M1543.07 658.41H1615.1M1615.1 658.41H1687.13M1615.1 658.41V586.406M1687.13 658.41H1753M1687.13 658.41V586.406M1615.1 448.563V514.402M1615.1 514.402V586.406M1615.1 514.402H1687.13M1615.1 586.406H1687.13M1687.13 586.406H1753M1687.13 586.406V514.402M1687.13 448.563V514.402M1687.13 514.402H1753" stroke="url(#paint0_radial_544_11)" stroke-opacity="0.23" stroke-width="2"/>
<path fill-rule="evenodd" clip-rule="evenodd" d="M34.1754 1027.35C116.441 1040.7 193.976 984.689 207.354 902.246C220.732 819.803 164.888 742.148 82.6218 728.799C0.356037 715.45 -77.1786 771.461 -90.5567 853.904C-103.935 936.347 -48.0903 1014 34.1754 1027.35ZM33.8649 1029.26C117.185 1042.79 195.714 986.056 209.264 902.556C222.813 819.056 166.253 740.406 82.9323 726.885C-0.38811 713.365 -78.9168 770.094 -92.4664 853.594C-106.016 937.094 -49.4556 1015.74 33.8649 1029.26Z" fill="#181818"/>
<path fill-rule="evenodd" clip-rule="evenodd" d="M12.3901 625.816L12.2466 617.903L20.1439 617.754L20.2626 624.297L304.58 898.831L311.109 898.707L311.253 906.621L303.355 906.77L303.237 900.227L18.9196 625.693L12.3901 625.816Z" fill="#181818"/>
<path d="M170.249 768.553C169.906 770.667 167.918 772.103 165.809 771.761C163.7 771.418 162.268 769.427 162.611 767.313C162.954 765.199 164.942 763.763 167.051 764.105C169.16 764.448 170.592 766.439 170.249 768.553Z" fill="#181818"/>
<path fill-rule="evenodd" clip-rule="evenodd" d="M166.119 769.847C167.174 770.018 168.168 769.3 168.34 768.243C168.511 767.186 167.795 766.19 166.741 766.019C165.686 765.848 164.692 766.566 164.52 767.623C164.349 768.68 165.065 769.676 166.119 769.847ZM165.809 771.761C167.918 772.103 169.906 770.667 170.249 768.553C170.592 766.439 169.16 764.448 167.051 764.105C164.942 763.763 162.954 765.199 162.611 767.313C162.268 769.427 163.7 771.418 165.809 771.761Z" fill="#181818"/>
<path fill-rule="evenodd" clip-rule="evenodd" d="M1832.26 -128.264H1492.74V211.264C1625.33 211.264 1699.67 211.264 1832.26 211.264V-128.264ZM1491.88 -129.123V212.123H1833.12V-129.123H1491.88Z" fill="#181818"/>
<path d="M1485 -136H1501.33V-119.668H1485V-136Z" fill="#181818"/>
<path fill-rule="evenodd" clip-rule="evenodd" d="M1500.47 -135.14H1485.86V-120.528H1500.47V-135.14ZM1485 -136V-119.668H1501.33V-136H1485Z" fill="#181818"/>
<path d="M1823.67 -136H1840V-119.668H1823.67V-136Z" fill="#181818"/>
<path fill-rule="evenodd" clip-rule="evenodd" d="M1839.14 -135.14H1824.53V-120.528H1839.14V-135.14ZM1823.67 -136V-119.668H1840V-136H1823.67Z" fill="#181818"/>
<path d="M1823.67 202.668H1840V219H1823.67V202.668Z" fill="#181818"/>
<path fill-rule="evenodd" clip-rule="evenodd" d="M1839.14 203.528H1824.53V218.14H1839.14V203.528ZM1823.67 202.668V219H1840V202.668H1823.67Z" fill="#181818"/>
<path d="M1485 202.668H1501.33V219H1485V202.668Z" fill="#181818"/>
<path fill-rule="evenodd" clip-rule="evenodd" d="M1500.47 203.528H1485.86V218.14H1500.47V203.528ZM1485 202.668V219H1501.33V202.668H1485Z" fill="#181818"/>
</g>
<defs>
<radialGradient id="paint0_radial_544_11" cx="0" cy="0" r="1" gradientUnits="userSpaceOnUse" gradientTransform="translate(864 482) rotate(90) scale(281.5 415.014)">
<stop stop-color="#FFB600" stop-opacity="0.92"/>
<stop offset="1" stop-color="#FFB600" stop-opacity="0.04"/>
</radialGradient>
<clipPath id="clip0_544_11">
<rect width="1728" height="914" fill="white"/>
</clipPath>
</defs>
</svg>
