<svg width="100" height="100" viewBox="0 0 100 100" fill="none" xmlns="http://www.w3.org/2000/svg">
<rect x="0.5" y="0.5" width="99" height="99" rx="11.5" fill="url(#paint0_linear_1567_4400)" stroke="#F3DBEB"/>
<path d="M57.7133 31.3178L59.4962 29.535C59.9829 29.0482 60.772 29.0482 61.2588 29.535L68.6013 36.8775C69.0881 37.3643 69.0881 38.1534 68.6013 38.6401L66.8185 40.423C66.7669 40.4745 66.6838 40.4741 66.6323 40.4234L57.7133 31.5031C57.6623 31.4521 57.6603 31.3715 57.7133 31.3178ZM51.5117 37.1871C51.5532 37.1505 51.5964 37.1123 51.6131 37.0944C52.3884 36.3765 53.2966 35.8155 54.3212 35.4246C55.4148 34.9974 56.3995 34.3497 57.2488 33.5L57.2721 33.4767L64.6587 40.8634L63.9158 41.6059C62.774 42.7472 62.2007 44.3265 62.3419 45.9357L62.4849 47.648C62.5132 47.9912 62.4621 48.3293 62.348 48.6421C61.872 48.1659 51.6805 37.969 51.2046 37.4929L51.5117 37.1871ZM31.504 42.2864C31.4527 42.3378 31.3687 42.3378 31.3174 42.2864L29.535 40.504C29.0483 40.0173 29.0482 39.2282 29.5349 38.7414L36.8776 31.3985C37.3643 30.9118 38.1534 30.9117 38.6401 31.3985L40.423 33.1813C40.4744 33.2327 40.4744 33.3161 40.423 33.3675L31.504 42.2864ZM35.4229 45.691C35.0133 44.6199 34.3476 43.604 33.4967 42.7539L33.4701 42.7273C36.0558 40.1414 38.2777 37.9195 40.8634 35.3336L41.6071 36.0769C42.7481 37.2187 44.3236 37.7958 45.9357 37.6682C47.0713 37.6801 48.3928 37.0857 49.4949 38.1897L51.9182 40.6072C51.3655 40.8664 50.9257 41.2935 50.6765 41.8431L50.581 41.748C49.578 40.7437 47.9418 40.7429 46.9371 41.748C46.7202 41.9649 46.5498 42.2117 46.426 42.4751L46.333 42.3816C45.3275 41.3769 43.6937 41.3769 42.6883 42.3816C41.6958 43.3732 41.6828 44.9717 42.6425 45.9794C42.3766 46.1048 42.1307 46.2769 41.9163 46.4917C40.9116 47.4959 40.9116 49.1309 41.9163 50.136L46.1776 54.3977C45.5132 54.7051 44.9781 55.2764 44.7026 56.0057C38.924 50.2277 37.2873 48.599 37.0974 48.3871C36.3678 47.5923 35.8044 46.6849 35.4229 45.691ZM42.2869 68.6819L40.504 70.4651C40.0173 70.9519 39.2281 70.9519 38.7414 70.4651L31.3988 63.1222C30.9121 62.6355 30.9121 61.8464 31.3987 61.3597L33.1818 59.5764C33.2441 59.5149 33.3031 59.5128 33.3671 59.5768C34.6554 60.8652 41.0238 67.2338 42.2869 68.4966C42.338 68.5477 42.3399 68.6282 42.2869 68.6819ZM48.3872 62.9053C47.5894 63.6324 46.682 64.1954 45.6939 64.5773C44.6145 64.989 43.5974 65.653 42.7522 66.4981L42.7237 66.5266L35.3305 59.134L36.0728 58.3922C37.2112 57.2538 37.7921 55.6799 37.6666 54.069L37.5228 52.351C37.4926 52.0097 37.5405 51.6736 37.6519 51.3625C45.7864 59.4924 45.1751 58.8952 45.2685 58.9648C45.2711 58.9672 45.274 58.9691 45.2766 58.9714C45.3051 59.0024 45.325 59.0392 45.3549 59.0691L48.7949 62.5098C48.5854 62.7137 48.6299 62.686 48.3872 62.9053ZM58.3923 63.9179C57.3627 62.8883 55.9724 62.3191 54.5223 62.3191C54.1196 62.3191 53.9731 62.3511 52.3468 62.4828C51.6571 62.5439 50.9923 62.3004 50.507 61.8151L46.5582 57.8658C46.0477 57.3554 46.0836 56.4736 46.7468 56.0243C47.0052 55.8486 47.3285 55.795 47.6534 55.8735L50.4065 58.6266C50.7389 58.959 51.2773 58.959 51.6097 58.6266C51.9421 58.2942 51.9421 57.7557 51.6097 57.4233L43.1195 48.9327C42.7788 48.5916 42.7788 48.0361 43.1195 47.6949C43.4494 47.3646 44.0245 47.363 44.3569 47.6949L50.227 53.5646C50.5594 53.897 51.0978 53.897 51.4302 53.5646C51.7626 53.2322 51.7626 52.6937 51.4302 52.3613L43.8915 44.8226C43.55 44.4815 43.55 43.926 43.8915 43.5849C44.2322 43.2433 44.789 43.2433 45.1297 43.5849L52.6676 51.1236C53 51.456 53.5385 51.456 53.8709 51.1236C54.2032 50.7916 54.2032 50.2527 53.8709 49.9203L48.1404 44.189C47.7995 43.8481 47.7982 43.2934 48.1404 42.9512C48.4802 42.6109 49.0362 42.6101 49.3777 42.9512L51.2042 44.7786C51.2536 44.8293 50.6893 44.264 55.1082 48.6834L55.109 48.6826C55.4414 49.015 55.9799 49.015 56.3123 48.6826C56.6447 48.3502 56.6447 47.8117 56.3123 47.4793L52.4199 43.5869C52.1017 43.2367 52.0585 42.7061 52.3294 42.3816C52.4922 42.1863 52.7174 42.0729 52.9642 42.0617C53.2144 42.0442 53.447 42.1423 53.624 42.3197C60.7853 49.4839 62.6632 51.3548 62.9004 51.6139C63.6283 52.4008 64.1901 53.3078 64.5731 54.3154C64.9895 55.389 65.6567 56.4037 66.5027 57.2488L66.5282 57.2744L62.8335 60.9693L59.1385 64.6641L58.3923 63.9179ZM63.1227 68.6012C62.636 69.088 61.8468 69.088 61.3601 68.6012L59.5772 66.818C59.5246 66.7654 59.5258 66.6849 59.5772 66.6327L68.4962 57.7133C68.522 57.6876 68.5552 57.6747 68.5893 57.6747C68.6234 57.6747 68.6566 57.6876 68.6824 57.7129L70.4653 59.4958C70.952 59.9825 70.952 60.7716 70.4653 61.2583L63.1227 68.6012Z" fill="white"/>
<defs>
<linearGradient id="paint0_linear_1567_4400" x1="50" y1="0" x2="50" y2="100" gradientUnits="userSpaceOnUse">
<stop stop-color="#FFA4DE"/>
<stop offset="1" stop-color="#F572C6"/>
</linearGradient>
</defs>
</svg>
