<svg width="100" height="100" viewBox="0 0 100 100" fill="none" xmlns="http://www.w3.org/2000/svg">
<rect x="0.5" y="0.5" width="99" height="99" rx="11.5" fill="url(#paint0_linear_2224_1184)" stroke="#ECF7F5"/>
<g clip-path="url(#clip0_2224_1184)">
<path d="M32.3906 47.3047C32.3906 46.56 31.7877 45.957 31.043 45.957H28.3477C27.6029 45.957 27 46.56 27 47.3047C27 48.0498 27.6029 48.6523 28.3477 48.6523H31.043C31.7877 48.6523 32.3906 48.0498 32.3906 47.3047Z" fill="white"/>
<path d="M71.6523 45.957H68.957C68.2123 45.957 67.6094 46.56 67.6094 47.3047C67.6094 48.0498 68.2123 48.6523 68.957 48.6523H71.6523C72.3971 48.6523 73 48.0498 73 47.3047C73 46.56 72.3971 45.957 71.6523 45.957Z" fill="white"/>
<path d="M34.3349 36.7036L32 35.3559C31.3553 34.9832 30.5312 35.2043 30.1589 35.8493C29.7865 36.4944 30.0076 37.3181 30.6523 37.6904L32.9872 39.0381C33.6277 39.408 34.4528 39.1925 34.8283 38.5446C35.2007 37.8996 34.9796 37.0759 34.3349 36.7036Z" fill="white"/>
<path d="M69.3471 56.9187L67.0122 55.5711C66.3661 55.1998 65.5424 55.4195 65.1711 56.0645C64.7987 56.7096 65.0198 57.5333 65.6645 57.9056L67.9994 59.2533C68.6399 59.6232 69.465 59.4077 69.8405 58.7598C70.2129 58.1148 69.9918 57.2911 69.3471 56.9187Z" fill="white"/>
<path d="M39.3994 31.3561C39.7745 32.0039 40.6 32.2194 41.2404 31.8495C41.8855 31.4768 42.1066 30.6531 41.7339 30.0084L40.3862 27.6735C40.0139 27.0302 39.186 26.8088 38.5451 27.1801C37.9001 27.5524 37.679 28.3765 38.0517 29.0212L39.3994 31.3561Z" fill="white"/>
<path d="M32.9872 55.5711L30.6523 56.9187C30.0076 57.2911 29.7865 58.1148 30.1589 58.7598C30.5344 59.4081 31.3595 59.6235 32 59.2533L34.3349 57.9056C34.9796 57.5333 35.2007 56.7096 34.8283 56.0645C34.4545 55.4195 33.6266 55.1998 32.9872 55.5711Z" fill="white"/>
<path d="M67.0122 39.0381L69.3471 37.6904C69.9918 37.3181 70.2129 36.4944 69.8405 35.8493C69.4667 35.2043 68.6389 34.9832 67.9994 35.3559L65.6645 36.7036C65.0198 37.0759 64.7987 37.8996 65.1711 38.5446C65.5466 39.1929 66.3717 39.4083 67.0122 39.0381Z" fill="white"/>
<path d="M58.76 31.8493C59.4005 32.2192 60.2259 32.0038 60.6011 31.3559L61.9487 29.021C62.3214 28.3763 62.1003 27.5523 61.4553 27.1799C60.8116 26.809 59.9866 27.0301 59.6142 27.6734L58.2665 30.0083C57.8938 30.653 58.1149 31.477 58.76 31.8493Z" fill="white"/>
<path d="M59.3457 35.7974C55.8646 32.9666 51.3033 31.8783 46.8244 32.8125C41.0063 34.0247 36.4159 38.7952 35.4023 44.681C34.5534 49.6109 36.179 54.5947 39.7492 58.0155C41.6486 59.8327 42.8032 62.2644 43.1219 64.8246H48.6525V58.4945L43.562 50.8585L40.9614 48.2579C40.435 47.7315 40.435 46.8787 40.9614 46.3523C41.4879 45.8258 42.3407 45.8258 42.8671 46.3523L44.6096 48.0947L46.352 46.3523C46.8785 45.8258 47.7313 45.8258 48.2577 46.3523L50.0002 48.0947L51.7427 46.3523C52.2691 45.8258 53.1219 45.8258 53.6483 46.3523L55.3908 48.0947L57.1333 46.3523C57.6597 45.8258 58.5125 45.8258 59.039 46.3523C59.5654 46.8787 59.5654 47.7315 59.039 48.2579L56.4384 50.8585L51.3479 58.4945V64.8246H56.8013C56.9585 62.4034 58.1079 60.032 60.1603 58.1007C63.1241 55.3096 64.8244 51.3744 64.8244 47.3051C64.8244 42.8224 62.8278 38.6282 59.3457 35.7974Z" fill="white"/>
<path d="M52.6956 49.2109L50.9532 50.9534C50.4267 51.4798 49.5739 51.4798 49.0475 50.9534L47.305 49.2109L46.3438 50.1722L50.0003 55.6572L53.6569 50.1722L52.6956 49.2109Z" fill="white"/>
<path d="M43.2617 68.957C43.2617 71.1863 45.0754 73 47.3047 73H52.6953C54.9246 73 56.7383 71.1863 56.7383 68.957V67.5195H43.2617V68.957Z" fill="white"/>
</g>
<defs>
<linearGradient id="paint0_linear_2224_1184" x1="50" y1="0" x2="50" y2="100" gradientUnits="userSpaceOnUse">
<stop stop-color="#70EFDD"/>
<stop offset="1" stop-color="#3ED1C4"/>
</linearGradient>
<clipPath id="clip0_2224_1184">
<rect width="46" height="46" fill="white" transform="translate(27 27)"/>
</clipPath>
</defs>
</svg>
