<svg xmlns="http://www.w3.org/2000/svg" width="227.606" height="502.595" viewBox="0 0 227.606 502.595">
  <path id="Path_4765" data-name="Path 4765" d="M1159.007-619.864c-11.153,5.03-22.306,17.713-24.055,26.9-.656,3.936-1.093,85.5-.656,181.069l.656,173.852,5.9,15.964c8.528,23.836,18.369,38.925,37.176,57.732a149.5,149.5,0,0,0,66.261,38.051c17.713,4.592,69.759,6.56,83.536,3.28,21.868-5.686,33.677-21.212,33.9-44.83,0-15.745-3.718-26.242-13.34-35.645-9.185-9.4-16.182-10.934-49.641-12.246-25.148-1.093-30.178-1.968-39.581-6.779-11.372-5.686-19.9-14.214-26.46-26.242-3.28-6.123-3.718-21.65-4.811-175.164-1.093-185.005-.437-173.852-14.651-187.411C1199.9-624.019,1176.283-627.737,1159.007-619.864Z" transform="translate(-1134.12 623.984)" fill="#fe007b"/>
</svg>
