<svg width="32" height="32" viewBox="0 0 32 32" fill="none" xmlns="http://www.w3.org/2000/svg">
<rect width="32" height="32" rx="16" fill="#0A66C2"/>
<path d="M23.5 7.2002H8.49844C8.15387 7.2002 7.8234 7.33708 7.57975 7.58073C7.3361 7.82438 7.19922 8.15484 7.19922 8.49942V23.501C7.19922 23.8455 7.3361 24.176 7.57975 24.4197C7.8234 24.6633 8.15387 24.8002 8.49844 24.8002H23.5C23.8446 24.8002 24.175 24.6633 24.4187 24.4197C24.6623 24.176 24.7992 23.8455 24.7992 23.501V8.49942C24.7992 8.15484 24.6623 7.82438 24.4187 7.58073C24.175 7.33708 23.8446 7.2002 23.5 7.2002ZM12.445 22.1932H9.79889V13.788H12.445V22.1932ZM11.1201 12.6232C10.82 12.6215 10.527 12.5309 10.2783 12.3629C10.0296 12.1949 9.83617 11.957 9.72253 11.6792C9.60889 11.4013 9.58009 11.0961 9.63977 10.8019C9.69946 10.5078 9.84494 10.2379 10.0579 10.0263C10.2708 9.81474 10.5416 9.67099 10.8362 9.6132C11.1307 9.55541 11.4358 9.58616 11.7129 9.70158C11.9899 9.81701 12.2266 10.0119 12.393 10.2617C12.5594 10.5115 12.6481 10.805 12.6479 11.1052C12.6507 11.3062 12.6131 11.5056 12.5372 11.6917C12.4613 11.8778 12.3487 12.0467 12.2061 12.1884C12.0635 12.33 11.8939 12.4415 11.7073 12.5162C11.5208 12.5909 11.321 12.6273 11.1201 12.6232ZM22.1983 22.2005H19.5534V17.6086C19.5534 16.2544 18.9778 15.8364 18.2347 15.8364C17.45 15.8364 16.68 16.428 16.68 17.6429V22.2005H14.0339V13.7941H16.5786V14.9589H16.6128C16.8682 14.4419 17.7629 13.5582 19.1281 13.5582C20.6046 13.5582 22.1996 14.4345 22.1996 17.0012L22.1983 22.2005Z" fill="white"/>
</svg>
