<svg width="271" height="398" viewBox="0 0 271 398" fill="none" xmlns="http://www.w3.org/2000/svg">
<g opacity="0.32">
<path d="M61.4091 350V338.364H62.8182V348.75H68.2273V350H61.4091ZM70.2273 350V341.273H71.5682V350H70.2273ZM70.9091 339.818C70.6477 339.818 70.4223 339.729 70.233 339.551C70.0473 339.373 69.9545 339.159 69.9545 338.909C69.9545 338.659 70.0473 338.445 70.233 338.267C70.4223 338.089 70.6477 338 70.9091 338C71.1705 338 71.3939 338.089 71.5795 338.267C71.7689 338.445 71.8636 338.659 71.8636 338.909C71.8636 339.159 71.7689 339.373 71.5795 339.551C71.3939 339.729 71.1705 339.818 70.9091 339.818ZM75.3651 344.75V350H74.0241V341.273H75.3196V342.636H75.4332C75.6378 342.193 75.9484 341.837 76.3651 341.568C76.7817 341.295 77.3196 341.159 77.9787 341.159C78.5696 341.159 79.0866 341.28 79.5298 341.523C79.973 341.761 80.3177 342.125 80.5639 342.614C80.8101 343.098 80.9332 343.712 80.9332 344.455V350H79.5923V344.545C79.5923 343.86 79.4143 343.326 79.0582 342.943C78.7022 342.557 78.2135 342.364 77.5923 342.364C77.1643 342.364 76.7817 342.456 76.4446 342.642C76.1113 342.828 75.848 343.098 75.6548 343.455C75.4616 343.811 75.3651 344.242 75.3651 344.75ZM87.0426 350.182C86.2017 350.182 85.4763 349.996 84.8665 349.625C84.2604 349.25 83.7926 348.727 83.4631 348.057C83.1373 347.383 82.9744 346.598 82.9744 345.705C82.9744 344.811 83.1373 344.023 83.4631 343.341C83.7926 342.655 84.2509 342.121 84.8381 341.739C85.429 341.352 86.1184 341.159 86.9062 341.159C87.3608 341.159 87.8097 341.235 88.2528 341.386C88.696 341.538 89.0994 341.784 89.4631 342.125C89.8267 342.462 90.1165 342.909 90.3324 343.466C90.5483 344.023 90.6562 344.708 90.6562 345.523V346.091H83.929V344.932H89.2926C89.2926 344.439 89.1941 344 88.9972 343.614C88.804 343.227 88.5275 342.922 88.1676 342.699C87.8116 342.475 87.3911 342.364 86.9062 342.364C86.3722 342.364 85.91 342.496 85.5199 342.761C85.1335 343.023 84.8362 343.364 84.6278 343.784C84.4195 344.205 84.3153 344.655 84.3153 345.136V345.909C84.3153 346.568 84.429 347.127 84.6562 347.585C84.8873 348.04 85.2074 348.386 85.6165 348.625C86.0256 348.86 86.5009 348.977 87.0426 348.977C87.3949 348.977 87.7131 348.928 87.9972 348.83C88.285 348.727 88.5331 348.576 88.7415 348.375C88.9498 348.17 89.1108 347.917 89.2244 347.614L90.5199 347.977C90.3835 348.417 90.1544 348.803 89.8324 349.136C89.5104 349.466 89.1127 349.723 88.6392 349.909C88.1657 350.091 87.6335 350.182 87.0426 350.182ZM98.5369 344.75V350H97.196V338.364H98.5369V342.636H98.6506C98.8551 342.186 99.1619 341.828 99.571 341.562C99.9839 341.294 100.533 341.159 101.219 341.159C101.813 341.159 102.334 341.278 102.781 341.517C103.228 341.752 103.575 342.114 103.821 342.602C104.071 343.087 104.196 343.705 104.196 344.455V350H102.855V344.545C102.855 343.852 102.675 343.316 102.315 342.938C101.959 342.555 101.465 342.364 100.832 342.364C100.393 342.364 99.9991 342.456 99.6506 342.642C99.3059 342.828 99.0331 343.098 98.8324 343.455C98.6354 343.811 98.5369 344.242 98.5369 344.75ZM110.308 350.182C109.467 350.182 108.742 349.996 108.132 349.625C107.526 349.25 107.058 348.727 106.729 348.057C106.403 347.383 106.24 346.598 106.24 345.705C106.24 344.811 106.403 344.023 106.729 343.341C107.058 342.655 107.517 342.121 108.104 341.739C108.695 341.352 109.384 341.159 110.172 341.159C110.626 341.159 111.075 341.235 111.518 341.386C111.962 341.538 112.365 341.784 112.729 342.125C113.092 342.462 113.382 342.909 113.598 343.466C113.814 344.023 113.922 344.708 113.922 345.523V346.091H107.195V344.932H112.558C112.558 344.439 112.46 344 112.263 343.614C112.07 343.227 111.793 342.922 111.433 342.699C111.077 342.475 110.657 342.364 110.172 342.364C109.638 342.364 109.176 342.496 108.786 342.761C108.399 343.023 108.102 343.364 107.893 343.784C107.685 344.205 107.581 344.655 107.581 345.136V345.909C107.581 346.568 107.695 347.127 107.922 347.585C108.153 348.04 108.473 348.386 108.882 348.625C109.291 348.86 109.767 348.977 110.308 348.977C110.661 348.977 110.979 348.928 111.263 348.83C111.551 348.727 111.799 348.576 112.007 348.375C112.215 348.17 112.376 347.917 112.49 347.614L113.786 347.977C113.649 348.417 113.42 348.803 113.098 349.136C112.776 349.466 112.378 349.723 111.905 349.909C111.431 350.091 110.899 350.182 110.308 350.182ZM115.962 350V341.273H117.303V350H115.962ZM116.643 339.818C116.382 339.818 116.157 339.729 115.967 339.551C115.782 339.373 115.689 339.159 115.689 338.909C115.689 338.659 115.782 338.445 115.967 338.267C116.157 338.089 116.382 338 116.643 338C116.905 338 117.128 338.089 117.314 338.267C117.503 338.445 117.598 338.659 117.598 338.909C117.598 339.159 117.503 339.373 117.314 339.551C117.128 339.729 116.905 339.818 116.643 339.818ZM123.281 353.455C122.634 353.455 122.077 353.371 121.611 353.205C121.145 353.042 120.757 352.826 120.446 352.557C120.139 352.292 119.895 352.008 119.713 351.705L120.781 350.955C120.902 351.114 121.056 351.295 121.241 351.5C121.427 351.708 121.681 351.888 122.003 352.04C122.329 352.195 122.755 352.273 123.281 352.273C123.986 352.273 124.567 352.102 125.026 351.761C125.484 351.42 125.713 350.886 125.713 350.159V348.386H125.599C125.501 348.545 125.361 348.742 125.179 348.977C125.001 349.208 124.743 349.415 124.406 349.597C124.073 349.775 123.622 349.864 123.054 349.864C122.349 349.864 121.717 349.697 121.156 349.364C120.599 349.03 120.158 348.545 119.832 347.909C119.51 347.273 119.349 346.5 119.349 345.591C119.349 344.697 119.507 343.919 119.821 343.256C120.135 342.589 120.573 342.074 121.134 341.71C121.694 341.343 122.342 341.159 123.077 341.159C123.645 341.159 124.096 341.254 124.429 341.443C124.766 341.629 125.024 341.841 125.202 342.08C125.384 342.314 125.524 342.508 125.622 342.659H125.759V341.273H127.054V350.25C127.054 351 126.884 351.61 126.543 352.08C126.205 352.553 125.751 352.9 125.179 353.119C124.611 353.343 123.978 353.455 123.281 353.455ZM123.236 348.659C123.774 348.659 124.228 348.536 124.599 348.29C124.971 348.044 125.253 347.689 125.446 347.227C125.639 346.765 125.736 346.212 125.736 345.568C125.736 344.939 125.641 344.384 125.452 343.903C125.262 343.422 124.982 343.045 124.611 342.773C124.24 342.5 123.781 342.364 123.236 342.364C122.668 342.364 122.194 342.508 121.815 342.795C121.44 343.083 121.158 343.47 120.969 343.955C120.783 344.439 120.69 344.977 120.69 345.568C120.69 346.174 120.785 346.71 120.974 347.176C121.168 347.638 121.452 348.002 121.827 348.267C122.205 348.528 122.675 348.659 123.236 348.659ZM130.849 344.75V350H129.509V338.364H130.849V342.636H130.963C131.168 342.186 131.474 341.828 131.884 341.562C132.296 341.294 132.846 341.159 133.531 341.159C134.126 341.159 134.647 341.278 135.094 341.517C135.541 341.752 135.887 342.114 136.134 342.602C136.384 343.087 136.509 343.705 136.509 344.455V350H135.168V344.545C135.168 343.852 134.988 343.316 134.628 342.938C134.272 342.555 133.777 342.364 133.145 342.364C132.705 342.364 132.312 342.456 131.963 342.642C131.618 342.828 131.346 343.098 131.145 343.455C130.948 343.811 130.849 344.242 130.849 344.75ZM142.757 341.273V342.409H138.234V341.273H142.757ZM139.553 339.182H140.893V347.5C140.893 347.879 140.948 348.163 141.058 348.352C141.172 348.538 141.316 348.663 141.49 348.727C141.668 348.788 141.856 348.818 142.053 348.818C142.2 348.818 142.321 348.811 142.416 348.795C142.511 348.777 142.587 348.761 142.643 348.75L142.916 349.955C142.825 349.989 142.698 350.023 142.536 350.057C142.373 350.095 142.166 350.114 141.916 350.114C141.537 350.114 141.166 350.032 140.803 349.869C140.443 349.706 140.143 349.458 139.905 349.125C139.67 348.792 139.553 348.371 139.553 347.864V339.182ZM151.842 350.205C151.289 350.205 150.787 350.1 150.337 349.892C149.886 349.68 149.528 349.375 149.263 348.977C148.998 348.576 148.865 348.091 148.865 347.523C148.865 347.023 148.964 346.617 149.161 346.307C149.357 345.992 149.621 345.746 149.95 345.568C150.28 345.39 150.643 345.258 151.041 345.17C151.443 345.08 151.846 345.008 152.251 344.955C152.782 344.886 153.212 344.835 153.541 344.801C153.875 344.763 154.117 344.701 154.268 344.614C154.424 344.527 154.501 344.375 154.501 344.159V344.114C154.501 343.553 154.348 343.117 154.041 342.807C153.738 342.496 153.278 342.341 152.661 342.341C152.02 342.341 151.518 342.481 151.155 342.761C150.791 343.042 150.536 343.341 150.388 343.659L149.115 343.205C149.342 342.674 149.645 342.261 150.024 341.966C150.407 341.667 150.823 341.458 151.274 341.341C151.729 341.22 152.176 341.159 152.615 341.159C152.895 341.159 153.217 341.193 153.581 341.261C153.948 341.326 154.303 341.46 154.643 341.665C154.988 341.869 155.274 342.178 155.501 342.591C155.729 343.004 155.842 343.557 155.842 344.25V350H154.501V348.818H154.433C154.342 349.008 154.191 349.21 153.979 349.426C153.767 349.642 153.484 349.826 153.132 349.977C152.78 350.129 152.35 350.205 151.842 350.205ZM152.047 349C152.577 349 153.024 348.896 153.388 348.688C153.755 348.479 154.032 348.21 154.217 347.881C154.407 347.551 154.501 347.205 154.501 346.841V345.614C154.445 345.682 154.32 345.744 154.126 345.801C153.937 345.854 153.717 345.902 153.467 345.943C153.221 345.981 152.981 346.015 152.746 346.045C152.515 346.072 152.327 346.095 152.183 346.114C151.835 346.159 151.509 346.233 151.206 346.335C150.907 346.434 150.664 346.583 150.479 346.784C150.297 346.981 150.206 347.25 150.206 347.591C150.206 348.057 150.378 348.409 150.723 348.648C151.071 348.883 151.513 349 152.047 349ZM159.631 344.75V350H158.29V341.273H159.585V342.636H159.699C159.903 342.193 160.214 341.837 160.631 341.568C161.047 341.295 161.585 341.159 162.244 341.159C162.835 341.159 163.352 341.28 163.795 341.523C164.239 341.761 164.583 342.125 164.83 342.614C165.076 343.098 165.199 343.712 165.199 344.455V350H163.858V344.545C163.858 343.86 163.68 343.326 163.324 342.943C162.968 342.557 162.479 342.364 161.858 342.364C161.43 342.364 161.047 342.456 160.71 342.642C160.377 342.828 160.114 343.098 159.92 343.455C159.727 343.811 159.631 344.242 159.631 344.75ZM170.945 350.182C170.217 350.182 169.575 349.998 169.018 349.631C168.462 349.259 168.026 348.737 167.712 348.062C167.397 347.384 167.24 346.583 167.24 345.659C167.24 344.742 167.397 343.947 167.712 343.273C168.026 342.598 168.464 342.078 169.024 341.71C169.585 341.343 170.232 341.159 170.967 341.159C171.536 341.159 171.984 341.254 172.314 341.443C172.647 341.629 172.901 341.841 173.075 342.08C173.253 342.314 173.392 342.508 173.49 342.659H173.604V338.364H174.945V350H173.649V348.659H173.49C173.392 348.818 173.251 349.019 173.07 349.261C172.888 349.5 172.628 349.714 172.291 349.903C171.954 350.089 171.505 350.182 170.945 350.182ZM171.126 348.977C171.664 348.977 172.119 348.837 172.49 348.557C172.861 348.273 173.143 347.881 173.337 347.381C173.53 346.877 173.626 346.295 173.626 345.636C173.626 344.985 173.532 344.415 173.342 343.926C173.153 343.434 172.873 343.051 172.501 342.778C172.13 342.502 171.672 342.364 171.126 342.364C170.558 342.364 170.085 342.509 169.706 342.801C169.331 343.089 169.049 343.481 168.859 343.977C168.674 344.47 168.581 345.023 168.581 345.636C168.581 346.258 168.676 346.822 168.865 347.33C169.058 347.833 169.342 348.235 169.717 348.534C170.096 348.83 170.566 348.977 171.126 348.977ZM182.087 353.273V341.273H183.382V342.659H183.541C183.64 342.508 183.776 342.314 183.95 342.08C184.128 341.841 184.382 341.629 184.712 341.443C185.045 341.254 185.496 341.159 186.064 341.159C186.799 341.159 187.446 341.343 188.007 341.71C188.568 342.078 189.005 342.598 189.32 343.273C189.634 343.947 189.791 344.742 189.791 345.659C189.791 346.583 189.634 347.384 189.32 348.062C189.005 348.737 188.57 349.259 188.013 349.631C187.456 349.998 186.814 350.182 186.087 350.182C185.526 350.182 185.077 350.089 184.74 349.903C184.403 349.714 184.143 349.5 183.962 349.261C183.78 349.019 183.64 348.818 183.541 348.659H183.428V353.273H182.087ZM183.405 345.636C183.405 346.295 183.501 346.877 183.695 347.381C183.888 347.881 184.17 348.273 184.541 348.557C184.912 348.837 185.367 348.977 185.905 348.977C186.465 348.977 186.933 348.83 187.308 348.534C187.687 348.235 187.971 347.833 188.161 347.33C188.354 346.822 188.45 346.258 188.45 345.636C188.45 345.023 188.356 344.47 188.166 343.977C187.981 343.481 187.698 343.089 187.32 342.801C186.945 342.509 186.473 342.364 185.905 342.364C185.359 342.364 184.901 342.502 184.53 342.778C184.159 343.051 183.878 343.434 183.689 343.926C183.5 344.415 183.405 344.985 183.405 345.636ZM194.405 350.205C193.852 350.205 193.35 350.1 192.899 349.892C192.448 349.68 192.09 349.375 191.825 348.977C191.56 348.576 191.428 348.091 191.428 347.523C191.428 347.023 191.526 346.617 191.723 346.307C191.92 345.992 192.183 345.746 192.513 345.568C192.842 345.39 193.206 345.258 193.604 345.17C194.005 345.08 194.409 345.008 194.814 344.955C195.344 344.886 195.774 344.835 196.104 344.801C196.437 344.763 196.679 344.701 196.831 344.614C196.986 344.527 197.064 344.375 197.064 344.159V344.114C197.064 343.553 196.911 343.117 196.604 342.807C196.301 342.496 195.84 342.341 195.223 342.341C194.583 342.341 194.081 342.481 193.717 342.761C193.354 343.042 193.098 343.341 192.95 343.659L191.678 343.205C191.905 342.674 192.208 342.261 192.587 341.966C192.969 341.667 193.386 341.458 193.837 341.341C194.291 341.22 194.738 341.159 195.178 341.159C195.458 341.159 195.78 341.193 196.143 341.261C196.511 341.326 196.865 341.46 197.206 341.665C197.551 341.869 197.837 342.178 198.064 342.591C198.291 343.004 198.405 343.557 198.405 344.25V350H197.064V348.818H196.996C196.905 349.008 196.753 349.21 196.541 349.426C196.329 349.642 196.047 349.826 195.695 349.977C195.342 350.129 194.912 350.205 194.405 350.205ZM194.609 349C195.14 349 195.587 348.896 195.95 348.688C196.318 348.479 196.594 348.21 196.78 347.881C196.969 347.551 197.064 347.205 197.064 346.841V345.614C197.007 345.682 196.882 345.744 196.689 345.801C196.5 345.854 196.28 345.902 196.03 345.943C195.784 345.981 195.543 346.015 195.308 346.045C195.077 346.072 194.89 346.095 194.746 346.114C194.397 346.159 194.071 346.233 193.768 346.335C193.469 346.434 193.227 346.583 193.041 346.784C192.859 346.981 192.768 347.25 192.768 347.591C192.768 348.057 192.941 348.409 193.286 348.648C193.634 348.883 194.075 349 194.609 349ZM200.852 350V341.273H202.148V342.591H202.239C202.398 342.159 202.686 341.809 203.102 341.54C203.519 341.271 203.989 341.136 204.511 341.136C204.61 341.136 204.733 341.138 204.881 341.142C205.028 341.146 205.14 341.152 205.216 341.159V342.523C205.17 342.511 205.066 342.494 204.903 342.472C204.744 342.445 204.576 342.432 204.398 342.432C203.973 342.432 203.595 342.521 203.261 342.699C202.932 342.873 202.67 343.116 202.477 343.426C202.288 343.733 202.193 344.083 202.193 344.477V350H200.852ZM209.374 350.205C208.821 350.205 208.319 350.1 207.868 349.892C207.417 349.68 207.059 349.375 206.794 348.977C206.529 348.576 206.396 348.091 206.396 347.523C206.396 347.023 206.495 346.617 206.692 346.307C206.889 345.992 207.152 345.746 207.482 345.568C207.811 345.39 208.175 345.258 208.572 345.17C208.974 345.08 209.377 345.008 209.783 344.955C210.313 344.886 210.743 344.835 211.072 344.801C211.406 344.763 211.648 344.701 211.8 344.614C211.955 344.527 212.033 344.375 212.033 344.159V344.114C212.033 343.553 211.879 343.117 211.572 342.807C211.269 342.496 210.809 342.341 210.192 342.341C209.552 342.341 209.05 342.481 208.686 342.761C208.322 343.042 208.067 343.341 207.919 343.659L206.646 343.205C206.874 342.674 207.177 342.261 207.555 341.966C207.938 341.667 208.355 341.458 208.805 341.341C209.26 341.22 209.707 341.159 210.146 341.159C210.427 341.159 210.749 341.193 211.112 341.261C211.48 341.326 211.834 341.46 212.175 341.665C212.519 341.869 212.805 342.178 213.033 342.591C213.26 343.004 213.374 343.557 213.374 344.25V350H212.033V348.818H211.964C211.874 349.008 211.722 349.21 211.51 349.426C211.298 349.642 211.016 349.826 210.663 349.977C210.311 350.129 209.881 350.205 209.374 350.205ZM209.578 349C210.108 349 210.555 348.896 210.919 348.688C211.286 348.479 211.563 348.21 211.749 347.881C211.938 347.551 212.033 347.205 212.033 346.841V345.614C211.976 345.682 211.851 345.744 211.658 345.801C211.468 345.854 211.249 345.902 210.999 345.943C210.752 345.981 210.512 346.015 210.277 346.045C210.046 346.072 209.858 346.095 209.714 346.114C209.366 346.159 209.04 346.233 208.737 346.335C208.438 346.434 208.196 346.583 208.01 346.784C207.828 346.981 207.737 347.25 207.737 347.591C207.737 348.057 207.91 348.409 208.254 348.648C208.603 348.883 209.044 349 209.578 349ZM219.344 353.455C218.696 353.455 218.139 353.371 217.673 353.205C217.207 353.042 216.819 352.826 216.509 352.557C216.202 352.292 215.957 352.008 215.776 351.705L216.844 350.955C216.965 351.114 217.118 351.295 217.304 351.5C217.49 351.708 217.743 351.888 218.065 352.04C218.391 352.195 218.817 352.273 219.344 352.273C220.048 352.273 220.63 352.102 221.088 351.761C221.546 351.42 221.776 350.886 221.776 350.159V348.386H221.662C221.563 348.545 221.423 348.742 221.241 348.977C221.063 349.208 220.806 349.415 220.469 349.597C220.135 349.775 219.685 349.864 219.116 349.864C218.412 349.864 217.779 349.697 217.219 349.364C216.662 349.03 216.221 348.545 215.895 347.909C215.573 347.273 215.412 346.5 215.412 345.591C215.412 344.697 215.569 343.919 215.884 343.256C216.198 342.589 216.635 342.074 217.196 341.71C217.757 341.343 218.404 341.159 219.139 341.159C219.707 341.159 220.158 341.254 220.491 341.443C220.829 341.629 221.086 341.841 221.264 342.08C221.446 342.314 221.586 342.508 221.685 342.659H221.821V341.273H223.116V350.25C223.116 351 222.946 351.61 222.605 352.08C222.268 352.553 221.813 352.9 221.241 353.119C220.673 353.343 220.041 353.455 219.344 353.455ZM219.298 348.659C219.836 348.659 220.291 348.536 220.662 348.29C221.033 348.044 221.315 347.689 221.509 347.227C221.702 346.765 221.798 346.212 221.798 345.568C221.798 344.939 221.704 344.384 221.514 343.903C221.325 343.422 221.045 343.045 220.673 342.773C220.302 342.5 219.844 342.364 219.298 342.364C218.73 342.364 218.257 342.508 217.878 342.795C217.503 343.083 217.221 343.47 217.031 343.955C216.846 344.439 216.753 344.977 216.753 345.568C216.753 346.174 216.848 346.71 217.037 347.176C217.23 347.638 217.514 348.002 217.889 348.267C218.268 348.528 218.738 348.659 219.298 348.659ZM225.571 350V341.273H226.866V342.591H226.957C227.116 342.159 227.404 341.809 227.821 341.54C228.238 341.271 228.707 341.136 229.23 341.136C229.329 341.136 229.452 341.138 229.599 341.142C229.747 341.146 229.859 341.152 229.935 341.159V342.523C229.889 342.511 229.785 342.494 229.622 342.472C229.463 342.445 229.295 342.432 229.116 342.432C228.692 342.432 228.313 342.521 227.98 342.699C227.651 342.873 227.389 343.116 227.196 343.426C227.007 343.733 226.912 344.083 226.912 344.477V350H225.571ZM234.092 350.205C233.539 350.205 233.037 350.1 232.587 349.892C232.136 349.68 231.778 349.375 231.513 348.977C231.248 348.576 231.115 348.091 231.115 347.523C231.115 347.023 231.214 346.617 231.411 346.307C231.607 345.992 231.871 345.746 232.2 345.568C232.53 345.39 232.893 345.258 233.291 345.17C233.693 345.08 234.096 345.008 234.501 344.955C235.032 344.886 235.462 344.835 235.791 344.801C236.125 344.763 236.367 344.701 236.518 344.614C236.674 344.527 236.751 344.375 236.751 344.159V344.114C236.751 343.553 236.598 343.117 236.291 342.807C235.988 342.496 235.528 342.341 234.911 342.341C234.27 342.341 233.768 342.481 233.405 342.761C233.041 343.042 232.786 343.341 232.638 343.659L231.365 343.205C231.592 342.674 231.895 342.261 232.274 341.966C232.657 341.667 233.073 341.458 233.524 341.341C233.979 341.22 234.426 341.159 234.865 341.159C235.145 341.159 235.467 341.193 235.831 341.261C236.198 341.326 236.553 341.46 236.893 341.665C237.238 341.869 237.524 342.178 237.751 342.591C237.979 343.004 238.092 343.557 238.092 344.25V350H236.751V348.818H236.683C236.592 349.008 236.441 349.21 236.229 349.426C236.017 349.642 235.734 349.826 235.382 349.977C235.03 350.129 234.6 350.205 234.092 350.205ZM234.297 349C234.827 349 235.274 348.896 235.638 348.688C236.005 348.479 236.282 348.21 236.467 347.881C236.657 347.551 236.751 347.205 236.751 346.841V345.614C236.695 345.682 236.57 345.744 236.376 345.801C236.187 345.854 235.967 345.902 235.717 345.943C235.471 345.981 235.231 346.015 234.996 346.045C234.765 346.072 234.577 346.095 234.433 346.114C234.085 346.159 233.759 346.233 233.456 346.335C233.157 346.434 232.914 346.583 232.729 346.784C232.547 346.981 232.456 347.25 232.456 347.591C232.456 348.057 232.628 348.409 232.973 348.648C233.321 348.883 233.763 349 234.297 349ZM240.54 353.273V341.273H241.835V342.659H241.994C242.093 342.508 242.229 342.314 242.403 342.08C242.581 341.841 242.835 341.629 243.165 341.443C243.498 341.254 243.949 341.159 244.517 341.159C245.252 341.159 245.9 341.343 246.46 341.71C247.021 342.078 247.458 342.598 247.773 343.273C248.087 343.947 248.244 344.742 248.244 345.659C248.244 346.583 248.087 347.384 247.773 348.062C247.458 348.737 247.023 349.259 246.466 349.631C245.909 349.998 245.267 350.182 244.54 350.182C243.979 350.182 243.53 350.089 243.193 349.903C242.856 349.714 242.597 349.5 242.415 349.261C242.233 349.019 242.093 348.818 241.994 348.659H241.881V353.273H240.54ZM241.858 345.636C241.858 346.295 241.955 346.877 242.148 347.381C242.341 347.881 242.623 348.273 242.994 348.557C243.366 348.837 243.82 348.977 244.358 348.977C244.919 348.977 245.386 348.83 245.761 348.534C246.14 348.235 246.424 347.833 246.614 347.33C246.807 346.822 246.903 346.258 246.903 345.636C246.903 345.023 246.809 344.47 246.619 343.977C246.434 343.481 246.152 343.089 245.773 342.801C245.398 342.509 244.926 342.364 244.358 342.364C243.813 342.364 243.354 342.502 242.983 342.778C242.612 343.051 242.331 343.434 242.142 343.926C241.953 344.415 241.858 344.985 241.858 345.636ZM251.631 344.75V350H250.29V338.364H251.631V342.636H251.744C251.949 342.186 252.256 341.828 252.665 341.562C253.078 341.294 253.627 341.159 254.312 341.159C254.907 341.159 255.428 341.278 255.875 341.517C256.322 341.752 256.669 342.114 256.915 342.602C257.165 343.087 257.29 343.705 257.29 344.455V350H255.949V344.545C255.949 343.852 255.769 343.316 255.409 342.938C255.053 342.555 254.559 342.364 253.926 342.364C253.487 342.364 253.093 342.456 252.744 342.642C252.4 342.828 252.127 343.098 251.926 343.455C251.729 343.811 251.631 344.242 251.631 344.75ZM67.4091 365.227L66.2045 365.568C66.1288 365.367 66.017 365.172 65.8693 364.983C65.7254 364.79 65.5284 364.631 65.2784 364.506C65.0284 364.381 64.7083 364.318 64.3182 364.318C63.7841 364.318 63.339 364.441 62.983 364.688C62.6307 364.93 62.4545 365.239 62.4545 365.614C62.4545 365.947 62.5758 366.21 62.8182 366.403C63.0606 366.597 63.4394 366.758 63.9545 366.886L65.25 367.205C66.0303 367.394 66.6117 367.684 66.9943 368.074C67.3769 368.46 67.5682 368.958 67.5682 369.568C67.5682 370.068 67.4242 370.515 67.1364 370.909C66.8523 371.303 66.4545 371.614 65.9432 371.841C65.4318 372.068 64.8371 372.182 64.1591 372.182C63.2689 372.182 62.5322 371.989 61.9489 371.602C61.3655 371.216 60.9962 370.652 60.8409 369.909L62.1136 369.591C62.2348 370.061 62.464 370.413 62.8011 370.648C63.142 370.883 63.5871 371 64.1364 371C64.7614 371 65.2576 370.867 65.625 370.602C65.9962 370.333 66.1818 370.011 66.1818 369.636C66.1818 369.333 66.0758 369.08 65.8636 368.875C65.6515 368.667 65.3258 368.511 64.8864 368.409L63.4318 368.068C62.6326 367.879 62.0455 367.585 61.6705 367.188C61.2992 366.786 61.1136 366.284 61.1136 365.682C61.1136 365.189 61.2519 364.754 61.5284 364.375C61.8087 363.996 62.1894 363.699 62.6705 363.483C63.1553 363.267 63.7045 363.159 64.3182 363.159C65.1818 363.159 65.8598 363.348 66.3523 363.727C66.8485 364.106 67.2008 364.606 67.4091 365.227ZM69.5866 375.273V363.273H70.8821V364.659H71.0412C71.1397 364.508 71.276 364.314 71.4503 364.08C71.6283 363.841 71.8821 363.629 72.2116 363.443C72.545 363.254 72.9957 363.159 73.5639 363.159C74.2988 363.159 74.9465 363.343 75.5071 363.71C76.0677 364.078 76.5052 364.598 76.8196 365.273C77.134 365.947 77.2912 366.742 77.2912 367.659C77.2912 368.583 77.134 369.384 76.8196 370.062C76.5052 370.737 76.0696 371.259 75.5128 371.631C74.956 371.998 74.3139 372.182 73.5866 372.182C73.026 372.182 72.5772 372.089 72.2401 371.903C71.9029 371.714 71.6435 371.5 71.4616 371.261C71.2798 371.019 71.1397 370.818 71.0412 370.659H70.9276V375.273H69.5866ZM70.9048 367.636C70.9048 368.295 71.0014 368.877 71.1946 369.381C71.3878 369.881 71.67 370.273 72.0412 370.557C72.4124 370.837 72.867 370.977 73.4048 370.977C73.9654 370.977 74.4332 370.83 74.8082 370.534C75.187 370.235 75.4711 369.833 75.6605 369.33C75.8537 368.822 75.9503 368.258 75.9503 367.636C75.9503 367.023 75.8556 366.47 75.6662 365.977C75.4806 365.481 75.1984 365.089 74.8196 364.801C74.4446 364.509 73.973 364.364 73.4048 364.364C72.8594 364.364 72.401 364.502 72.0298 364.778C71.6586 365.051 71.3783 365.434 71.1889 365.926C70.9995 366.415 70.9048 366.985 70.9048 367.636ZM81.9048 372.205C81.3518 372.205 80.8499 372.1 80.3991 371.892C79.9484 371.68 79.5904 371.375 79.3253 370.977C79.0601 370.576 78.9276 370.091 78.9276 369.523C78.9276 369.023 79.026 368.617 79.223 368.307C79.42 367.992 79.6832 367.746 80.0128 367.568C80.3423 367.39 80.706 367.258 81.1037 367.17C81.5052 367.08 81.9086 367.008 82.3139 366.955C82.8442 366.886 83.2741 366.835 83.6037 366.801C83.937 366.763 84.1795 366.701 84.331 366.614C84.4863 366.527 84.5639 366.375 84.5639 366.159V366.114C84.5639 365.553 84.4105 365.117 84.1037 364.807C83.8007 364.496 83.3404 364.341 82.723 364.341C82.0829 364.341 81.581 364.481 81.2173 364.761C80.8537 365.042 80.598 365.341 80.4503 365.659L79.1776 365.205C79.4048 364.674 79.7079 364.261 80.0866 363.966C80.4692 363.667 80.8859 363.458 81.3366 363.341C81.7912 363.22 82.2382 363.159 82.6776 363.159C82.9579 363.159 83.2798 363.193 83.6435 363.261C84.0109 363.326 84.3651 363.46 84.706 363.665C85.0507 363.869 85.3366 364.178 85.5639 364.591C85.7912 365.004 85.9048 365.557 85.9048 366.25V372H84.5639V370.818H84.4957C84.4048 371.008 84.2533 371.21 84.0412 371.426C83.8291 371.642 83.5469 371.826 83.1946 371.977C82.8423 372.129 82.4124 372.205 81.9048 372.205ZM82.1094 371C82.6397 371 83.0866 370.896 83.4503 370.688C83.8177 370.479 84.0942 370.21 84.2798 369.881C84.4692 369.551 84.5639 369.205 84.5639 368.841V367.614C84.5071 367.682 84.3821 367.744 84.1889 367.801C83.9995 367.854 83.7798 367.902 83.5298 367.943C83.2836 367.981 83.0431 368.015 82.8082 368.045C82.5772 368.072 82.3897 368.095 82.2457 368.114C81.8973 368.159 81.5715 368.233 81.2685 368.335C80.9692 368.434 80.7268 368.583 80.5412 368.784C80.3594 368.981 80.2685 369.25 80.2685 369.591C80.2685 370.057 80.4408 370.409 80.7855 370.648C81.134 370.883 81.5753 371 82.1094 371ZM91.8977 372.182C91.0795 372.182 90.375 371.989 89.7841 371.602C89.1932 371.216 88.7386 370.684 88.4205 370.006C88.1023 369.328 87.9432 368.553 87.9432 367.682C87.9432 366.795 88.1061 366.013 88.4318 365.335C88.7614 364.653 89.2197 364.121 89.8068 363.739C90.3977 363.352 91.0871 363.159 91.875 363.159C92.4886 363.159 93.0417 363.273 93.5341 363.5C94.0265 363.727 94.4299 364.045 94.7443 364.455C95.0587 364.864 95.2538 365.341 95.3295 365.886H93.9886C93.8864 365.489 93.6591 365.136 93.3068 364.83C92.9583 364.519 92.4886 364.364 91.8977 364.364C91.375 364.364 90.9167 364.5 90.5227 364.773C90.1326 365.042 89.8277 365.422 89.608 365.915C89.392 366.403 89.2841 366.977 89.2841 367.636C89.2841 368.311 89.3902 368.898 89.6023 369.398C89.8182 369.898 90.1212 370.286 90.5114 370.562C90.9053 370.839 91.3674 370.977 91.8977 370.977C92.2462 370.977 92.5625 370.917 92.8466 370.795C93.1307 370.674 93.3712 370.5 93.5682 370.273C93.7652 370.045 93.9053 369.773 93.9886 369.455H95.3295C95.2538 369.97 95.0663 370.434 94.767 370.847C94.4716 371.256 94.0795 371.581 93.5909 371.824C93.1061 372.062 92.5417 372.182 91.8977 372.182ZM97.2898 372V363.273H98.6307V372H97.2898ZM97.9716 361.818C97.7102 361.818 97.4848 361.729 97.2955 361.551C97.1098 361.373 97.017 361.159 97.017 360.909C97.017 360.659 97.1098 360.445 97.2955 360.267C97.4848 360.089 97.7102 360 97.9716 360C98.233 360 98.4564 360.089 98.642 360.267C98.8314 360.445 98.9261 360.659 98.9261 360.909C98.9261 361.159 98.8314 361.373 98.642 361.551C98.4564 361.729 98.233 361.818 97.9716 361.818ZM102.428 366.75V372H101.087V363.273H102.382V364.636H102.496C102.7 364.193 103.011 363.837 103.428 363.568C103.844 363.295 104.382 363.159 105.041 363.159C105.632 363.159 106.149 363.28 106.592 363.523C107.036 363.761 107.38 364.125 107.626 364.614C107.873 365.098 107.996 365.712 107.996 366.455V372H106.655V366.545C106.655 365.86 106.477 365.326 106.121 364.943C105.765 364.557 105.276 364.364 104.655 364.364C104.227 364.364 103.844 364.456 103.507 364.642C103.174 364.828 102.911 365.098 102.717 365.455C102.524 365.811 102.428 366.242 102.428 366.75ZM113.969 375.455C113.321 375.455 112.764 375.371 112.298 375.205C111.832 375.042 111.444 374.826 111.134 374.557C110.827 374.292 110.582 374.008 110.401 373.705L111.469 372.955C111.59 373.114 111.743 373.295 111.929 373.5C112.115 373.708 112.368 373.888 112.69 374.04C113.016 374.195 113.442 374.273 113.969 374.273C114.673 374.273 115.255 374.102 115.713 373.761C116.171 373.42 116.401 372.886 116.401 372.159V370.386H116.287C116.188 370.545 116.048 370.742 115.866 370.977C115.688 371.208 115.431 371.415 115.094 371.597C114.76 371.775 114.31 371.864 113.741 371.864C113.037 371.864 112.404 371.697 111.844 371.364C111.287 371.03 110.846 370.545 110.52 369.909C110.198 369.273 110.037 368.5 110.037 367.591C110.037 366.697 110.194 365.919 110.509 365.256C110.823 364.589 111.26 364.074 111.821 363.71C112.382 363.343 113.029 363.159 113.764 363.159C114.332 363.159 114.783 363.254 115.116 363.443C115.454 363.629 115.711 363.841 115.889 364.08C116.071 364.314 116.211 364.508 116.31 364.659H116.446V363.273H117.741V372.25C117.741 373 117.571 373.61 117.23 374.08C116.893 374.553 116.438 374.9 115.866 375.119C115.298 375.343 114.666 375.455 113.969 375.455ZM113.923 370.659C114.461 370.659 114.916 370.536 115.287 370.29C115.658 370.044 115.94 369.689 116.134 369.227C116.327 368.765 116.423 368.212 116.423 367.568C116.423 366.939 116.329 366.384 116.139 365.903C115.95 365.422 115.67 365.045 115.298 364.773C114.927 364.5 114.469 364.364 113.923 364.364C113.355 364.364 112.882 364.508 112.503 364.795C112.128 365.083 111.846 365.47 111.656 365.955C111.471 366.439 111.378 366.977 111.378 367.568C111.378 368.174 111.473 368.71 111.662 369.176C111.855 369.638 112.139 370.002 112.514 370.267C112.893 370.528 113.363 370.659 113.923 370.659ZM128.582 363.273V364.409H123.878V363.273H128.582ZM125.287 372V362.068C125.287 361.568 125.404 361.152 125.639 360.818C125.874 360.485 126.179 360.235 126.554 360.068C126.929 359.902 127.325 359.818 127.741 359.818C128.071 359.818 128.34 359.845 128.548 359.898C128.757 359.951 128.912 360 129.014 360.045L128.628 361.205C128.56 361.182 128.465 361.153 128.344 361.119C128.226 361.085 128.071 361.068 127.878 361.068C127.435 361.068 127.115 361.18 126.918 361.403C126.724 361.627 126.628 361.955 126.628 362.386V372H125.287ZM133.648 372.182C132.86 372.182 132.169 371.994 131.574 371.619C130.983 371.244 130.521 370.72 130.188 370.045C129.858 369.371 129.693 368.583 129.693 367.682C129.693 366.773 129.858 365.979 130.188 365.301C130.521 364.623 130.983 364.097 131.574 363.722C132.169 363.347 132.86 363.159 133.648 363.159C134.436 363.159 135.125 363.347 135.716 363.722C136.311 364.097 136.773 364.623 137.102 365.301C137.436 365.979 137.602 366.773 137.602 367.682C137.602 368.583 137.436 369.371 137.102 370.045C136.773 370.72 136.311 371.244 135.716 371.619C135.125 371.994 134.436 372.182 133.648 372.182ZM133.648 370.977C134.246 370.977 134.739 370.824 135.125 370.517C135.511 370.21 135.797 369.807 135.983 369.307C136.169 368.807 136.261 368.265 136.261 367.682C136.261 367.098 136.169 366.555 135.983 366.051C135.797 365.547 135.511 365.14 135.125 364.83C134.739 364.519 134.246 364.364 133.648 364.364C133.049 364.364 132.557 364.519 132.17 364.83C131.784 365.14 131.498 365.547 131.312 366.051C131.127 366.555 131.034 367.098 131.034 367.682C131.034 368.265 131.127 368.807 131.312 369.307C131.498 369.807 131.784 370.21 132.17 370.517C132.557 370.824 133.049 370.977 133.648 370.977ZM139.649 372V363.273H140.945V364.591H141.036C141.195 364.159 141.482 363.809 141.899 363.54C142.316 363.271 142.786 363.136 143.308 363.136C143.407 363.136 143.53 363.138 143.678 363.142C143.825 363.146 143.937 363.152 144.013 363.159V364.523C143.967 364.511 143.863 364.494 143.7 364.472C143.541 364.445 143.373 364.432 143.195 364.432C142.77 364.432 142.392 364.521 142.058 364.699C141.729 364.873 141.467 365.116 141.274 365.426C141.085 365.733 140.99 366.083 140.99 366.477V372H139.649ZM150.284 372V360.364H151.625V364.659H151.739C151.837 364.508 151.973 364.314 152.148 364.08C152.326 363.841 152.58 363.629 152.909 363.443C153.242 363.254 153.693 363.159 154.261 363.159C154.996 363.159 155.644 363.343 156.205 363.71C156.765 364.078 157.203 364.598 157.517 365.273C157.831 365.947 157.989 366.742 157.989 367.659C157.989 368.583 157.831 369.384 157.517 370.062C157.203 370.737 156.767 371.259 156.21 371.631C155.653 371.998 155.011 372.182 154.284 372.182C153.723 372.182 153.275 372.089 152.938 371.903C152.6 371.714 152.341 371.5 152.159 371.261C151.977 371.019 151.837 370.818 151.739 370.659H151.58V372H150.284ZM151.602 367.636C151.602 368.295 151.699 368.877 151.892 369.381C152.085 369.881 152.367 370.273 152.739 370.557C153.11 370.837 153.564 370.977 154.102 370.977C154.663 370.977 155.131 370.83 155.506 370.534C155.884 370.235 156.169 369.833 156.358 369.33C156.551 368.822 156.648 368.258 156.648 367.636C156.648 367.023 156.553 366.47 156.364 365.977C156.178 365.481 155.896 365.089 155.517 364.801C155.142 364.509 154.67 364.364 154.102 364.364C153.557 364.364 153.098 364.502 152.727 364.778C152.356 365.051 152.076 365.434 151.886 365.926C151.697 366.415 151.602 366.985 151.602 367.636ZM163.585 372.182C162.797 372.182 162.106 371.994 161.511 371.619C160.92 371.244 160.458 370.72 160.125 370.045C159.795 369.371 159.631 368.583 159.631 367.682C159.631 366.773 159.795 365.979 160.125 365.301C160.458 364.623 160.92 364.097 161.511 363.722C162.106 363.347 162.797 363.159 163.585 363.159C164.373 363.159 165.063 363.347 165.653 363.722C166.248 364.097 166.71 364.623 167.04 365.301C167.373 365.979 167.54 366.773 167.54 367.682C167.54 368.583 167.373 369.371 167.04 370.045C166.71 370.72 166.248 371.244 165.653 371.619C165.063 371.994 164.373 372.182 163.585 372.182ZM163.585 370.977C164.184 370.977 164.676 370.824 165.062 370.517C165.449 370.21 165.735 369.807 165.92 369.307C166.106 368.807 166.199 368.265 166.199 367.682C166.199 367.098 166.106 366.555 165.92 366.051C165.735 365.547 165.449 365.14 165.062 364.83C164.676 364.519 164.184 364.364 163.585 364.364C162.987 364.364 162.494 364.519 162.108 364.83C161.722 365.14 161.436 365.547 161.25 366.051C161.064 366.555 160.972 367.098 160.972 367.682C160.972 368.265 161.064 368.807 161.25 369.307C161.436 369.807 161.722 370.21 162.108 370.517C162.494 370.824 162.987 370.977 163.585 370.977ZM172.882 372.182C172.155 372.182 171.513 371.998 170.956 371.631C170.399 371.259 169.964 370.737 169.649 370.062C169.335 369.384 169.178 368.583 169.178 367.659C169.178 366.742 169.335 365.947 169.649 365.273C169.964 364.598 170.401 364.078 170.962 363.71C171.522 363.343 172.17 363.159 172.905 363.159C173.473 363.159 173.922 363.254 174.251 363.443C174.585 363.629 174.839 363.841 175.013 364.08C175.191 364.314 175.329 364.508 175.428 364.659H175.541V360.364H176.882V372H175.587V370.659H175.428C175.329 370.818 175.189 371.019 175.007 371.261C174.825 371.5 174.566 371.714 174.229 371.903C173.892 372.089 173.443 372.182 172.882 372.182ZM173.064 370.977C173.602 370.977 174.056 370.837 174.428 370.557C174.799 370.273 175.081 369.881 175.274 369.381C175.467 368.877 175.564 368.295 175.564 367.636C175.564 366.985 175.469 366.415 175.28 365.926C175.09 365.434 174.81 365.051 174.439 364.778C174.068 364.502 173.609 364.364 173.064 364.364C172.496 364.364 172.022 364.509 171.643 364.801C171.268 365.089 170.986 365.481 170.797 365.977C170.611 366.47 170.518 367.023 170.518 367.636C170.518 368.258 170.613 368.822 170.803 369.33C170.996 369.833 171.28 370.235 171.655 370.534C172.034 370.83 172.503 370.977 173.064 370.977ZM180.388 375.273C180.161 375.273 179.958 375.254 179.78 375.216C179.602 375.182 179.479 375.148 179.411 375.114L179.751 373.932C180.077 374.015 180.365 374.045 180.615 374.023C180.865 374 181.087 373.888 181.28 373.688C181.477 373.491 181.657 373.17 181.82 372.727L182.07 372.045L178.842 363.273H180.297L182.706 370.227H182.797L185.206 363.273H186.661L182.956 373.273C182.789 373.723 182.583 374.097 182.337 374.392C182.09 374.691 181.804 374.913 181.479 375.057C181.157 375.201 180.793 375.273 180.388 375.273ZM196.726 363.273V364.409H192.203V363.273H196.726ZM193.521 361.182H194.862V369.5C194.862 369.879 194.917 370.163 195.027 370.352C195.141 370.538 195.285 370.663 195.459 370.727C195.637 370.788 195.824 370.818 196.021 370.818C196.169 370.818 196.29 370.811 196.385 370.795C196.48 370.777 196.555 370.761 196.612 370.75L196.885 371.955C196.794 371.989 196.667 372.023 196.504 372.057C196.341 372.095 196.135 372.114 195.885 372.114C195.506 372.114 195.135 372.032 194.771 371.869C194.411 371.706 194.112 371.458 193.874 371.125C193.639 370.792 193.521 370.371 193.521 369.864V361.182ZM202.308 372.182C201.467 372.182 200.742 371.996 200.132 371.625C199.526 371.25 199.058 370.727 198.729 370.057C198.403 369.383 198.24 368.598 198.24 367.705C198.24 366.811 198.403 366.023 198.729 365.341C199.058 364.655 199.517 364.121 200.104 363.739C200.695 363.352 201.384 363.159 202.172 363.159C202.626 363.159 203.075 363.235 203.518 363.386C203.962 363.538 204.365 363.784 204.729 364.125C205.092 364.462 205.382 364.909 205.598 365.466C205.814 366.023 205.922 366.708 205.922 367.523V368.091H199.195V366.932H204.558C204.558 366.439 204.46 366 204.263 365.614C204.07 365.227 203.793 364.922 203.433 364.699C203.077 364.475 202.657 364.364 202.172 364.364C201.638 364.364 201.176 364.496 200.786 364.761C200.399 365.023 200.102 365.364 199.893 365.784C199.685 366.205 199.581 366.655 199.581 367.136V367.909C199.581 368.568 199.695 369.127 199.922 369.585C200.153 370.04 200.473 370.386 200.882 370.625C201.291 370.86 201.767 370.977 202.308 370.977C202.661 370.977 202.979 370.928 203.263 370.83C203.551 370.727 203.799 370.576 204.007 370.375C204.215 370.17 204.376 369.917 204.49 369.614L205.786 369.977C205.649 370.417 205.42 370.803 205.098 371.136C204.776 371.466 204.378 371.723 203.905 371.909C203.431 372.091 202.899 372.182 202.308 372.182ZM208.727 363.273L210.818 366.841L212.909 363.273H214.455L211.636 367.636L214.455 372H212.909L210.818 368.614L208.727 372H207.182L209.955 367.636L207.182 363.273H208.727ZM220.163 363.273V364.409H215.641V363.273H220.163ZM216.959 361.182H218.3V369.5C218.3 369.879 218.355 370.163 218.464 370.352C218.578 370.538 218.722 370.663 218.896 370.727C219.074 370.788 219.262 370.818 219.459 370.818C219.607 370.818 219.728 370.811 219.822 370.795C219.917 370.777 219.993 370.761 220.05 370.75L220.322 371.955C220.232 371.989 220.105 372.023 219.942 372.057C219.779 372.095 219.572 372.114 219.322 372.114C218.944 372.114 218.572 372.032 218.209 371.869C217.849 371.706 217.55 371.458 217.311 371.125C217.076 370.792 216.959 370.371 216.959 369.864V361.182ZM226.68 372V363.273H228.021V372H226.68ZM227.362 361.818C227.101 361.818 226.875 361.729 226.686 361.551C226.5 361.373 226.408 361.159 226.408 360.909C226.408 360.659 226.5 360.445 226.686 360.267C226.875 360.089 227.101 360 227.362 360C227.624 360 227.847 360.089 228.033 360.267C228.222 360.445 228.317 360.659 228.317 360.909C228.317 361.159 228.222 361.373 228.033 361.551C227.847 361.729 227.624 361.818 227.362 361.818ZM236.659 365.227L235.455 365.568C235.379 365.367 235.267 365.172 235.119 364.983C234.975 364.79 234.778 364.631 234.528 364.506C234.278 364.381 233.958 364.318 233.568 364.318C233.034 364.318 232.589 364.441 232.233 364.688C231.881 364.93 231.705 365.239 231.705 365.614C231.705 365.947 231.826 366.21 232.068 366.403C232.311 366.597 232.689 366.758 233.205 366.886L234.5 367.205C235.28 367.394 235.862 367.684 236.244 368.074C236.627 368.46 236.818 368.958 236.818 369.568C236.818 370.068 236.674 370.515 236.386 370.909C236.102 371.303 235.705 371.614 235.193 371.841C234.682 372.068 234.087 372.182 233.409 372.182C232.519 372.182 231.782 371.989 231.199 371.602C230.616 371.216 230.246 370.652 230.091 369.909L231.364 369.591C231.485 370.061 231.714 370.413 232.051 370.648C232.392 370.883 232.837 371 233.386 371C234.011 371 234.508 370.867 234.875 370.602C235.246 370.333 235.432 370.011 235.432 369.636C235.432 369.333 235.326 369.08 235.114 368.875C234.902 368.667 234.576 368.511 234.136 368.409L232.682 368.068C231.883 367.879 231.295 367.585 230.92 367.188C230.549 366.786 230.364 366.284 230.364 365.682C230.364 365.189 230.502 364.754 230.778 364.375C231.059 363.996 231.439 363.699 231.92 363.483C232.405 363.267 232.955 363.159 233.568 363.159C234.432 363.159 235.11 363.348 235.602 363.727C236.098 364.106 236.451 364.606 236.659 365.227ZM244.314 370.511C244.034 370.511 243.793 370.411 243.592 370.21C243.392 370.009 243.291 369.769 243.291 369.489C243.291 369.208 243.392 368.968 243.592 368.767C243.793 368.566 244.034 368.466 244.314 368.466C244.594 368.466 244.835 368.566 245.036 368.767C245.236 368.968 245.337 369.208 245.337 369.489C245.337 369.674 245.289 369.845 245.195 370C245.104 370.155 244.981 370.28 244.825 370.375C244.674 370.466 244.503 370.511 244.314 370.511ZM244.314 364.625C244.034 364.625 243.793 364.525 243.592 364.324C243.392 364.123 243.291 363.883 243.291 363.602C243.291 363.322 243.392 363.081 243.592 362.881C243.793 362.68 244.034 362.58 244.314 362.58C244.594 362.58 244.835 362.68 245.036 362.881C245.236 363.081 245.337 363.322 245.337 363.602C245.337 363.788 245.289 363.958 245.195 364.114C245.104 364.269 244.981 364.394 244.825 364.489C244.674 364.58 244.503 364.625 244.314 364.625ZM65.2955 383.364V395H63.8864V384.841H63.8182L60.9773 386.727V385.295L63.8864 383.364H65.2955ZM68.9545 395.091C68.6742 395.091 68.4337 394.991 68.233 394.79C68.0322 394.589 67.9318 394.348 67.9318 394.068C67.9318 393.788 68.0322 393.547 68.233 393.347C68.4337 393.146 68.6742 393.045 68.9545 393.045C69.2348 393.045 69.4754 393.146 69.6761 393.347C69.8769 393.547 69.9773 393.788 69.9773 394.068C69.9773 394.254 69.9299 394.424 69.8352 394.58C69.7443 394.735 69.6212 394.86 69.4659 394.955C69.3144 395.045 69.1439 395.091 68.9545 395.091ZM72.0881 392.614V391.455L77.2017 383.364H78.0426V385.159H77.4744L73.6108 391.273V391.364H80.4972V392.614H72.0881ZM77.5653 395V392.261V391.722V383.364H78.9062V395H77.5653ZM88.1491 386.273L90.2401 389.841L92.331 386.273H93.8764L91.0582 390.636L93.8764 395H92.331L90.2401 391.614L88.1491 395H86.6037L89.3764 390.636L86.6037 386.273H88.1491ZM104.176 386.273V387.409H99.4716V386.273H104.176ZM100.881 395V385.068C100.881 384.568 100.998 384.152 101.233 383.818C101.468 383.485 101.773 383.235 102.148 383.068C102.523 382.902 102.919 382.818 103.335 382.818C103.665 382.818 103.934 382.845 104.142 382.898C104.35 382.951 104.506 383 104.608 383.045L104.222 384.205C104.153 384.182 104.059 384.153 103.938 384.119C103.82 384.085 103.665 384.068 103.472 384.068C103.028 384.068 102.708 384.18 102.511 384.403C102.318 384.627 102.222 384.955 102.222 385.386V395H100.881ZM109.241 395.182C108.454 395.182 107.762 394.994 107.168 394.619C106.577 394.244 106.115 393.72 105.781 393.045C105.452 392.371 105.287 391.583 105.287 390.682C105.287 389.773 105.452 388.979 105.781 388.301C106.115 387.623 106.577 387.097 107.168 386.722C107.762 386.347 108.454 386.159 109.241 386.159C110.029 386.159 110.719 386.347 111.31 386.722C111.904 387.097 112.366 387.623 112.696 388.301C113.029 388.979 113.196 389.773 113.196 390.682C113.196 391.583 113.029 392.371 112.696 393.045C112.366 393.72 111.904 394.244 111.31 394.619C110.719 394.994 110.029 395.182 109.241 395.182ZM109.241 393.977C109.84 393.977 110.332 393.824 110.719 393.517C111.105 393.21 111.391 392.807 111.577 392.307C111.762 391.807 111.855 391.265 111.855 390.682C111.855 390.098 111.762 389.555 111.577 389.051C111.391 388.547 111.105 388.14 110.719 387.83C110.332 387.519 109.84 387.364 109.241 387.364C108.643 387.364 108.151 387.519 107.764 387.83C107.378 388.14 107.092 388.547 106.906 389.051C106.721 389.555 106.628 390.098 106.628 390.682C106.628 391.265 106.721 391.807 106.906 392.307C107.092 392.807 107.378 393.21 107.764 393.517C108.151 393.824 108.643 393.977 109.241 393.977ZM116.584 389.75V395H115.243V386.273H116.538V387.636H116.652C116.857 387.193 117.167 386.837 117.584 386.568C118 386.295 118.538 386.159 119.197 386.159C119.788 386.159 120.305 386.28 120.749 386.523C121.192 386.761 121.536 387.125 121.783 387.614C122.029 388.098 122.152 388.712 122.152 389.455V395H120.811V389.545C120.811 388.86 120.633 388.326 120.277 387.943C119.921 387.557 119.432 387.364 118.811 387.364C118.383 387.364 118 387.456 117.663 387.642C117.33 387.828 117.067 388.098 116.874 388.455C116.68 388.811 116.584 389.242 116.584 389.75ZM128.398 386.273V387.409H123.875V386.273H128.398ZM125.193 384.182H126.534V392.5C126.534 392.879 126.589 393.163 126.699 393.352C126.813 393.538 126.956 393.663 127.131 393.727C127.309 393.788 127.496 393.818 127.693 393.818C127.841 393.818 127.962 393.811 128.057 393.795C128.152 393.777 128.227 393.761 128.284 393.75L128.557 394.955C128.466 394.989 128.339 395.023 128.176 395.057C128.013 395.095 127.807 395.114 127.557 395.114C127.178 395.114 126.807 395.032 126.443 394.869C126.083 394.706 125.784 394.458 125.545 394.125C125.311 393.792 125.193 393.371 125.193 392.864V384.182ZM141.097 388.227L139.892 388.568C139.816 388.367 139.705 388.172 139.557 387.983C139.413 387.79 139.216 387.631 138.966 387.506C138.716 387.381 138.396 387.318 138.006 387.318C137.472 387.318 137.027 387.441 136.67 387.688C136.318 387.93 136.142 388.239 136.142 388.614C136.142 388.947 136.263 389.21 136.506 389.403C136.748 389.597 137.127 389.758 137.642 389.886L138.938 390.205C139.718 390.394 140.299 390.684 140.682 391.074C141.064 391.46 141.256 391.958 141.256 392.568C141.256 393.068 141.112 393.515 140.824 393.909C140.54 394.303 140.142 394.614 139.631 394.841C139.119 395.068 138.525 395.182 137.847 395.182C136.956 395.182 136.22 394.989 135.636 394.602C135.053 394.216 134.684 393.652 134.528 392.909L135.801 392.591C135.922 393.061 136.152 393.413 136.489 393.648C136.83 393.883 137.275 394 137.824 394C138.449 394 138.945 393.867 139.312 393.602C139.684 393.333 139.869 393.011 139.869 392.636C139.869 392.333 139.763 392.08 139.551 391.875C139.339 391.667 139.013 391.511 138.574 391.409L137.119 391.068C136.32 390.879 135.733 390.585 135.358 390.188C134.987 389.786 134.801 389.284 134.801 388.682C134.801 388.189 134.939 387.754 135.216 387.375C135.496 386.996 135.877 386.699 136.358 386.483C136.843 386.267 137.392 386.159 138.006 386.159C138.869 386.159 139.547 386.348 140.04 386.727C140.536 387.106 140.888 387.606 141.097 388.227ZM143.274 395V386.273H144.615V395H143.274ZM143.956 384.818C143.695 384.818 143.469 384.729 143.28 384.551C143.094 384.373 143.001 384.159 143.001 383.909C143.001 383.659 143.094 383.445 143.28 383.267C143.469 383.089 143.695 383 143.956 383C144.217 383 144.441 383.089 144.626 383.267C144.816 383.445 144.911 383.659 144.911 383.909C144.911 384.159 144.816 384.373 144.626 384.551C144.441 384.729 144.217 384.818 143.956 384.818ZM146.821 395V393.977L151.776 387.614V387.523H146.98V386.273H153.503V387.341L148.685 393.659V393.75H153.662V395H146.821ZM159.136 395.182C158.295 395.182 157.57 394.996 156.96 394.625C156.354 394.25 155.886 393.727 155.557 393.057C155.231 392.383 155.068 391.598 155.068 390.705C155.068 389.811 155.231 389.023 155.557 388.341C155.886 387.655 156.345 387.121 156.932 386.739C157.523 386.352 158.212 386.159 159 386.159C159.455 386.159 159.903 386.235 160.347 386.386C160.79 386.538 161.193 386.784 161.557 387.125C161.92 387.462 162.21 387.909 162.426 388.466C162.642 389.023 162.75 389.708 162.75 390.523V391.091H156.023V389.932H161.386C161.386 389.439 161.288 389 161.091 388.614C160.898 388.227 160.621 387.922 160.261 387.699C159.905 387.475 159.485 387.364 159 387.364C158.466 387.364 158.004 387.496 157.614 387.761C157.227 388.023 156.93 388.364 156.722 388.784C156.513 389.205 156.409 389.655 156.409 390.136V390.909C156.409 391.568 156.523 392.127 156.75 392.585C156.981 393.04 157.301 393.386 157.71 393.625C158.119 393.86 158.595 393.977 159.136 393.977C159.489 393.977 159.807 393.928 160.091 393.83C160.379 393.727 160.627 393.576 160.835 393.375C161.044 393.17 161.205 392.917 161.318 392.614L162.614 392.977C162.477 393.417 162.248 393.803 161.926 394.136C161.604 394.466 161.206 394.723 160.733 394.909C160.259 395.091 159.727 395.182 159.136 395.182Z" fill="#828282"/>
<path d="M19.7472 235H-18.4801L39.767 66.2727H85.7386L143.903 235H105.676L63.4119 104.83H62.0938L19.7472 235ZM17.358 168.679H107.653V196.526H17.358V168.679Z" fill="#E0E0E0"/>
<path d="M192.169 237.081C183.839 237.081 176.279 235.512 169.49 232.374C162.7 229.179 157.308 224.586 153.315 218.595C149.321 212.547 147.324 205.244 147.324 196.686C147.324 189.155 148.807 183.05 151.774 178.371C154.741 173.636 158.706 169.927 163.67 167.246C168.634 164.564 174.111 162.567 180.102 161.255C186.15 159.886 192.226 158.802 198.331 158.003C206.319 156.976 212.794 156.206 217.758 155.692C222.779 155.122 226.431 154.18 228.713 152.868C231.052 151.556 232.222 149.273 232.222 146.021V145.337C232.222 136.893 229.911 130.331 225.289 125.653C220.725 120.974 213.793 118.635 204.493 118.635C194.851 118.635 187.291 120.746 181.814 124.968C176.336 129.19 172.485 133.697 170.26 138.49L151.089 131.643C154.513 123.656 159.077 117.437 164.783 112.987C170.545 108.479 176.821 105.341 183.611 103.572C190.457 101.747 197.19 100.834 203.808 100.834C208.03 100.834 212.88 101.347 218.357 102.374C223.892 103.344 229.226 105.37 234.361 108.451C239.553 111.532 243.861 116.182 247.284 122.401C250.707 128.62 252.419 136.95 252.419 147.391V234H232.222V216.199H231.195C229.825 219.052 227.543 222.104 224.348 225.356C221.153 228.608 216.902 231.375 211.596 233.658C206.29 235.94 199.814 237.081 192.169 237.081ZM195.25 218.938C203.238 218.938 209.97 217.368 215.447 214.23C220.982 211.092 225.147 207.042 227.942 202.078C230.795 197.114 232.222 191.893 232.222 186.416V167.93C231.366 168.957 229.483 169.899 226.573 170.755C223.72 171.553 220.411 172.267 216.646 172.894C212.937 173.465 209.314 173.978 205.777 174.435C202.296 174.834 199.472 175.176 197.304 175.462C192.055 176.146 187.148 177.259 182.584 178.799C178.076 180.283 174.425 182.536 171.629 185.56C168.891 188.527 167.521 192.578 167.521 197.713C167.521 204.731 170.117 210.037 175.309 213.631C180.558 217.169 187.205 218.938 195.25 218.938Z" fill="#E0E0E0"/>
<path d="M63.196 304V274.909H73.8494C75.9138 274.909 77.6231 275.25 78.9773 275.932C80.3314 276.604 81.3447 277.518 82.017 278.673C82.6894 279.819 83.0256 281.112 83.0256 282.551C83.0256 283.763 82.803 284.786 82.358 285.619C81.9129 286.443 81.3163 287.106 80.5682 287.608C79.8295 288.1 79.0152 288.46 78.125 288.688V288.972C79.0909 289.019 80.0331 289.331 80.9517 289.909C81.8797 290.477 82.6468 291.287 83.2528 292.338C83.8589 293.389 84.1619 294.668 84.1619 296.173C84.1619 297.66 83.8116 298.995 83.1108 300.179C82.4195 301.353 81.3494 302.286 79.9006 302.977C78.4517 303.659 76.6004 304 74.3466 304H63.196ZM67.5852 300.236H73.9205C76.0227 300.236 77.5284 299.829 78.4375 299.014C79.3466 298.2 79.8011 297.182 79.8011 295.96C79.8011 295.042 79.5691 294.199 79.1051 293.432C78.6411 292.665 77.9782 292.054 77.1165 291.599C76.2642 291.145 75.2509 290.918 74.0767 290.918H67.5852V300.236ZM67.5852 287.494H73.4659C74.4508 287.494 75.3362 287.305 76.1222 286.926C76.9176 286.547 77.5473 286.017 78.0114 285.335C78.4848 284.644 78.7216 283.83 78.7216 282.892C78.7216 281.689 78.3002 280.681 77.4574 279.866C76.6146 279.052 75.322 278.645 73.5795 278.645H67.5852V287.494ZM98.2173 304.44C96.1719 304.44 94.3868 303.972 92.8622 303.034C91.3376 302.097 90.1539 300.785 89.3111 299.099C88.4683 297.414 88.0469 295.444 88.0469 293.19C88.0469 290.927 88.4683 288.948 89.3111 287.253C90.1539 285.558 91.3376 284.241 92.8622 283.304C94.3868 282.366 96.1719 281.898 98.2173 281.898C100.263 281.898 102.048 282.366 103.572 283.304C105.097 284.241 106.281 285.558 107.124 287.253C107.966 288.948 108.388 290.927 108.388 293.19C108.388 295.444 107.966 297.414 107.124 299.099C106.281 300.785 105.097 302.097 103.572 303.034C102.048 303.972 100.263 304.44 98.2173 304.44ZM98.2315 300.875C99.5573 300.875 100.656 300.525 101.527 299.824C102.398 299.123 103.042 298.19 103.459 297.026C103.885 295.861 104.098 294.578 104.098 293.176C104.098 291.784 103.885 290.506 103.459 289.341C103.042 288.167 102.398 287.224 101.527 286.514C100.656 285.804 99.5573 285.449 98.2315 285.449C96.8963 285.449 95.7884 285.804 94.9077 286.514C94.0365 287.224 93.3878 288.167 92.9616 289.341C92.545 290.506 92.3366 291.784 92.3366 293.176C92.3366 294.578 92.545 295.861 92.9616 297.026C93.3878 298.19 94.0365 299.123 94.9077 299.824C95.7884 300.525 96.8963 300.875 98.2315 300.875ZM121.296 304.426C119.535 304.426 117.963 303.976 116.58 303.077C115.207 302.168 114.128 300.875 113.342 299.199C112.565 297.513 112.177 295.491 112.177 293.134C112.177 290.776 112.57 288.759 113.356 287.082C114.151 285.406 115.24 284.123 116.623 283.233C118.005 282.343 119.573 281.898 121.325 281.898C122.679 281.898 123.768 282.125 124.592 282.58C125.425 283.025 126.069 283.545 126.523 284.142C126.987 284.739 127.347 285.264 127.603 285.719H127.859V274.909H132.106V304H127.958V300.605H127.603C127.347 301.069 126.978 301.599 126.495 302.196C126.022 302.793 125.368 303.313 124.535 303.759C123.701 304.204 122.622 304.426 121.296 304.426ZM122.234 300.804C123.455 300.804 124.487 300.482 125.33 299.838C126.183 299.185 126.826 298.28 127.262 297.125C127.707 295.97 127.93 294.625 127.93 293.091C127.93 291.576 127.712 290.25 127.276 289.114C126.841 287.977 126.201 287.092 125.359 286.457C124.516 285.823 123.474 285.506 122.234 285.506C120.955 285.506 119.89 285.837 119.038 286.5C118.185 287.163 117.541 288.067 117.106 289.213C116.68 290.359 116.467 291.652 116.467 293.091C116.467 294.549 116.684 295.861 117.12 297.026C117.556 298.19 118.2 299.114 119.052 299.795C119.914 300.468 120.974 300.804 122.234 300.804ZM140.852 312.182C140.218 312.182 139.64 312.13 139.119 312.026C138.598 311.931 138.21 311.827 137.955 311.713L138.977 308.233C139.754 308.441 140.445 308.531 141.051 308.503C141.657 308.474 142.192 308.247 142.656 307.821C143.13 307.395 143.546 306.699 143.906 305.733L144.432 304.284L136.449 282.182H140.994L146.52 299.114H146.747L152.273 282.182H156.832L147.841 306.912C147.424 308.048 146.894 309.009 146.25 309.795C145.606 310.591 144.839 311.188 143.949 311.585C143.059 311.983 142.027 312.182 140.852 312.182Z" fill="#BDBDBD"/>
</g>
</svg>
