<svg width="142" height="197" viewBox="0 0 142 197" fill="none" xmlns="http://www.w3.org/2000/svg">
<g id="Group 1000003777">
<g id="Group 1000003778">
<g id="?">
<path d="M73.5329 6C93.9246 6 110.219 11.3361 122.416 22.0084C134.803 32.6807 140.997 47.7362 140.997 67.175C140.997 85.0892 135.089 99.0966 123.273 109.197C111.648 119.107 96.2115 124.157 76.9633 124.348L75.534 145.788H32.6543L31.225 92.617H48.3769C63.0512 92.617 74.2 90.8065 81.823 87.1855C89.6366 83.5646 93.5435 76.9897 93.5435 67.4609C93.5435 60.7907 91.733 55.5499 88.112 51.7383C84.4911 47.9268 79.4408 46.021 72.9612 46.021C66.1005 46.021 60.7643 48.0221 56.9528 52.0242C53.1413 55.8357 51.2355 61.0766 51.2355 67.7467H5.2113C4.83015 56.1216 7.21236 45.6399 12.3579 36.3016C17.6941 26.9634 25.5077 19.6262 35.7988 14.2901C46.2805 8.76336 58.8586 6 73.5329 6ZM54.6659 220.113C46.0899 220.113 39.0386 217.635 33.5119 212.68C28.1758 207.535 25.5077 201.245 25.5077 193.813C25.5077 186.19 28.1758 179.806 33.5119 174.66C39.0386 169.515 46.0899 166.942 54.6659 166.942C63.0512 166.942 69.912 169.515 75.2481 174.66C80.7748 179.806 83.5382 186.19 83.5382 193.813C83.5382 201.245 80.7748 207.535 75.2481 212.68C69.912 217.635 63.0512 220.113 54.6659 220.113Z" fill="#FDB913"/>
<path d="M123.598 109.578L123.598 109.577C135.543 99.3666 141.497 85.2106 141.497 67.175C141.497 47.6218 135.261 32.4162 122.744 21.631C110.434 10.8607 94.0127 5.5 73.5329 5.5C58.7971 5.5 46.1356 8.27492 35.5671 13.847C25.1983 19.2238 17.3111 26.6257 11.9238 36.0536L11.9237 36.0535L11.92 36.0603C6.72713 45.4844 4.32775 56.0565 4.71157 67.7631L4.72743 68.2467H5.2113H51.2355H51.7355V67.7467C51.7355 61.1758 53.6098 56.0743 57.3063 52.3778L57.3064 52.3779L57.3149 52.369C61.0102 48.4889 66.2021 46.521 72.9612 46.521C79.3378 46.521 84.2441 48.3928 87.7495 52.0827C91.2602 55.7782 93.0435 60.883 93.0435 67.4609C93.0435 72.1573 92.081 76.09 90.1835 79.2832C88.288 82.4733 85.44 84.9583 81.6128 86.7319L81.6085 86.7339C74.0849 90.3076 63.0241 92.117 48.3769 92.117H31.225H30.7114L30.7252 92.6304L32.1545 145.801L32.1676 146.288H32.6543H75.534H76.0018L76.0329 145.821L77.4315 124.842C96.551 124.575 111.956 119.502 123.598 109.578ZM33.1648 213.04L33.1714 213.046L33.1781 213.052C38.8107 218.102 45.9871 220.613 54.6659 220.613C63.1569 220.613 70.1457 218.1 75.5883 213.046L75.5888 213.046C81.2153 207.808 84.0382 201.387 84.0382 193.813C84.0382 186.054 81.2193 179.538 75.5921 174.297C70.1507 169.052 63.1607 166.442 54.6659 166.442C45.982 166.442 38.8031 169.051 33.1711 174.294L33.1648 174.3C27.7279 179.543 25.0077 186.059 25.0077 193.813C25.0077 201.381 27.7307 207.8 33.1648 213.04Z" stroke="white" stroke-opacity="0.2"/>
</g>
<g id="?_2">
<path d="M69.5329 1C89.9246 1 106.219 6.33614 118.416 17.0084C130.803 27.6807 136.997 42.7362 136.997 62.175C136.997 80.0892 131.089 94.0966 119.273 104.197C107.648 114.107 92.2115 119.157 72.9633 119.348L71.534 140.788H28.6543L27.225 87.617H44.3769C59.0512 87.617 70.2 85.8065 77.823 82.1855C85.6366 78.5646 89.5435 71.9897 89.5435 62.4609C89.5435 55.7907 87.733 50.5499 84.112 46.7383C80.4911 42.9268 75.4408 41.021 68.9612 41.021C62.1005 41.021 56.7643 43.0221 52.9528 47.0242C49.1413 50.8357 47.2355 56.0766 47.2355 62.7467H1.2113C0.830152 51.1216 3.21236 40.6399 8.35792 31.3016C13.6941 21.9634 21.5077 14.6262 31.7988 9.29009C42.2805 3.76336 54.8586 1 69.5329 1ZM50.6659 215.113C42.0899 215.113 35.0386 212.635 29.5119 207.68C24.1758 202.535 21.5077 196.245 21.5077 188.813C21.5077 181.19 24.1758 174.806 29.5119 169.66C35.0386 164.515 42.0899 161.942 50.6659 161.942C59.0512 161.942 65.912 164.515 71.2481 169.66C76.7748 174.806 79.5382 181.19 79.5382 188.813C79.5382 196.245 76.7748 202.535 71.2481 207.68C65.912 212.635 59.0512 215.113 50.6659 215.113Z" fill="#222222"/>
<path d="M119.598 104.578L119.598 104.577C131.543 94.3666 137.497 80.2106 137.497 62.175C137.497 42.6218 131.261 27.4162 118.744 16.631C106.434 5.86073 90.0127 0.5 69.5329 0.5C54.7971 0.5 42.1356 3.27492 31.5671 8.84701C21.1983 14.2238 13.3111 21.6257 7.9238 31.0536L7.92375 31.0535L7.92 31.0603C2.72713 40.4844 0.32775 51.0565 0.711573 62.7631L0.727429 63.2467H1.2113H47.2355H47.7355V62.7467C47.7355 56.1758 49.6098 51.0743 53.3063 47.3778L53.3064 47.3779L53.3149 47.369C57.0102 43.4889 62.2021 41.521 68.9612 41.521C75.3378 41.521 80.2441 43.3928 83.7495 47.0827C87.2602 50.7782 89.0435 55.883 89.0435 62.4609C89.0435 67.1573 88.081 71.09 86.1835 74.2832C84.288 77.4733 81.44 79.9583 77.6128 81.7319L77.6085 81.7339C70.0849 85.3076 59.0241 87.117 44.3769 87.117H27.225H26.7114L26.7252 87.6304L28.1545 140.801L28.1676 141.288H28.6543H71.534H72.0018L72.0329 140.821L73.4315 119.842C92.551 119.575 107.956 114.502 119.598 104.578ZM29.1648 208.04L29.1714 208.046L29.1781 208.052C34.8107 213.102 41.9871 215.613 50.6659 215.613C59.1569 215.613 66.1457 213.1 71.5883 208.046L71.5888 208.046C77.2153 202.808 80.0382 196.387 80.0382 188.813C80.0382 181.054 77.2193 174.538 71.5921 169.297C66.1507 164.052 59.1607 161.442 50.6659 161.442C41.982 161.442 34.8031 164.051 29.1711 169.294L29.1648 169.3C23.7279 174.543 21.0077 181.059 21.0077 188.813C21.0077 196.381 23.7307 202.8 29.1648 208.04Z" stroke="white" stroke-opacity="0.2"/>
</g>
</g>
</g>
</svg>
