<svg width="947" height="691" viewBox="0 0 947 691" fill="none" xmlns="http://www.w3.org/2000/svg">
<g clip-path="url(#clip0_605_270)">
<g filter="url(#filter0_f_605_270)">
<path d="M273 629.5C273 747.965 176.965 844 58.5 844C-59.9651 844 -156 747.965 -156 629.5C-156 511.035 -59.9651 415 58.5 415C176.965 415 273 511.035 273 629.5Z" fill="url(#paint0_radial_605_270)" fill-opacity="0.3"/>
</g>
<path d="M-764.403 0V65.8389M-764.403 65.8389L-764.403 137.843M-764.403 65.8389H-831M-764.403 65.8389H-692.37M-764.403 137.843V209.847M-764.403 137.843H-831M-764.403 137.843H-692.37M-764.403 209.847V281.851M-764.403 209.847H-831M-764.403 209.847H-692.37M-764.403 281.851V353.855M-764.403 281.851H-831M-764.403 281.851H-692.37M-764.403 353.855L-764.403 425.859M-764.403 353.855H-831M-764.403 353.855H-692.37M-764.403 425.859V497.863M-764.403 425.859H-831M-764.403 425.859H-692.37M-764.403 497.863L-764.403 569.867M-764.403 497.863H-831M-764.403 497.863H-692.37M-764.403 569.867V636.437M-764.403 569.867H-831M-764.403 569.867H-692.37M-692.37 569.867H-620.336M-692.37 569.867V497.863M-692.37 569.867V636.437M-620.336 569.867H-548.303M-620.336 569.867V497.863M-620.336 569.867V636.437M-548.303 569.867H-476.269M-548.303 569.867V497.863M-548.303 569.867V636.437M-476.269 569.867H-404.235M-476.269 569.867V497.863M-476.269 569.867V636.437M-404.235 569.867H-332.202M-404.235 569.867V497.863M-404.235 569.867V636.437M-332.202 569.867H-260.168M-332.202 569.867V497.863M-332.202 569.867V636.437M-260.168 569.867H-194.302M-260.168 569.867V497.863M-260.168 569.867V636.437M-692.37 0V65.8389M-692.37 65.8389V137.843M-692.37 65.8389H-620.336M-692.37 137.843L-692.37 209.847M-692.37 137.843H-620.336M-692.37 209.847V281.851M-692.37 209.847H-620.336M-692.37 281.851V353.855M-692.37 281.851H-620.336M-692.37 353.855V425.859M-692.37 353.855H-620.336M-692.37 425.859V497.863M-692.37 425.859H-620.336M-692.37 497.863H-620.336M-620.336 497.863H-548.303M-620.336 497.863V425.859M-548.303 497.863H-476.269M-548.303 497.863V425.859M-476.269 497.863H-404.235M-476.269 497.863V425.859M-404.235 497.863H-332.202M-404.235 497.863V425.859M-332.202 497.863H-260.168M-332.202 497.863V425.859M-260.168 497.863H-194.302M-260.168 497.863V425.859M-620.336 0V65.8389M-620.336 65.8389V137.843M-620.336 65.8389H-548.303M-620.336 137.843V209.847M-620.336 137.843H-548.303M-620.336 209.847V281.851M-620.336 209.847H-548.303M-620.336 281.851V353.855M-620.336 281.851H-548.303M-620.336 353.855V425.859M-620.336 353.855H-548.303M-620.336 425.859H-548.303M-548.303 425.859H-476.269M-548.303 425.859V353.855M-476.269 425.859H-404.235M-476.269 425.859V353.855M-404.235 425.859H-332.202M-404.235 425.859V353.855M-332.202 425.859H-260.168M-332.202 425.859V353.855M-260.168 425.859H-194.302M-260.168 425.859V353.855M-548.303 0V65.8389M-548.303 65.8389V137.843M-548.303 65.8389H-476.269M-548.303 137.843V209.847M-548.303 137.843H-476.269M-548.303 209.847V281.851M-548.303 209.847H-476.269M-548.303 281.851L-548.303 353.855M-548.303 281.851H-476.269M-548.303 353.855H-476.269M-476.269 353.855H-404.235M-476.269 353.855L-476.269 281.851M-404.235 353.855H-332.202M-404.235 353.855L-404.235 281.851M-332.202 353.855H-260.168M-332.202 353.855L-332.202 281.851M-260.168 353.855H-194.302M-260.168 353.855V281.851M-476.269 0V65.8389M-476.269 65.8389V137.843M-476.269 65.8389H-404.235M-476.269 137.843V209.847M-476.269 137.843H-404.235M-476.269 209.847V281.851M-476.269 209.847H-404.235M-476.269 281.851H-404.235M-404.235 281.851H-332.202M-404.235 281.851V209.847M-332.202 281.851H-260.168M-332.202 281.851V209.847M-260.168 281.851H-194.302M-260.168 281.851V209.847M-404.235 0V65.8389M-404.235 65.8389V137.843M-404.235 65.8389H-332.202M-404.235 137.843V209.847M-404.235 137.843H-332.202M-404.235 209.847H-332.202M-332.202 209.847H-260.168M-332.202 209.847V137.843M-260.168 209.847H-194.302M-260.168 209.847V137.843M-332.202 0V65.8389M-332.202 65.8389V137.843M-332.202 65.8389H-260.168M-332.202 137.843H-260.168M-260.168 137.843H-194.302M-260.168 137.843V65.8389M-260.168 0V65.8389M-260.168 65.8389H-194.302M-193.752 0V65.8389M-193.752 65.8389V137.843M-193.752 65.8389H-260.349M-193.752 65.8389H-121.719M-193.752 137.843V209.847M-193.752 137.843H-260.349M-193.752 137.843H-121.719M-193.752 209.847V281.851M-193.752 209.847H-260.349M-193.752 209.847H-121.719M-193.752 281.851V353.855M-193.752 281.851H-260.349M-193.752 281.851H-121.719M-193.752 353.855V425.859M-193.752 353.855H-260.349M-193.752 353.855H-121.719M-193.752 425.859V497.863M-193.752 425.859H-260.349M-193.752 425.859H-121.719M-193.752 497.863V569.867M-193.752 497.863H-260.349M-193.752 497.863H-121.719M-193.752 569.867V636.437M-193.752 569.867H-260.349M-193.752 569.867H-121.719M-121.719 569.867H-49.685M-121.719 569.867V497.863M-121.719 569.867V636.437M-49.685 569.867H22.3486M-49.685 569.867V497.863M-49.685 569.867V636.437M22.3486 569.867H94.3821M22.3486 569.867V497.863M22.3486 569.867V636.437M94.3821 569.867H166.416M94.3821 569.867V497.863M94.3821 569.867V636.437M166.416 569.867H238.449M166.416 569.867V497.863M166.416 569.867V636.437M238.449 569.867H310.483M238.449 569.867V497.863M238.449 569.867V636.437M310.483 569.867H376.349M310.483 569.867V497.863M310.483 569.867V636.437M-121.719 0V65.8389M-121.719 65.8389V137.843M-121.719 65.8389H-49.685M-121.719 137.843V209.847M-121.719 137.843H-49.685M-121.719 209.847V281.851M-121.719 209.847H-49.685M-121.719 281.851V353.855M-121.719 281.851H-49.685M-121.719 353.855V425.859M-121.719 353.855H-49.685M-121.719 425.859V497.863M-121.719 425.859H-49.685M-121.719 497.863H-49.685M-49.685 497.863H22.3486M-49.685 497.863V425.859M22.3486 497.863H94.3821M22.3486 497.863V425.859M94.3821 497.863H166.416M94.3821 497.863V425.859M166.416 497.863H238.449M166.416 497.863V425.859M238.449 497.863H310.483M238.449 497.863V425.859M310.483 497.863H376.349M310.483 497.863V425.859M-49.685 0V65.8389M-49.685 65.8389V137.843M-49.685 65.8389H22.3486M-49.685 137.843V209.847M-49.685 137.843H22.3486M-49.685 209.847V281.851M-49.685 209.847H22.3486M-49.685 281.851V353.855M-49.685 281.851H22.3486M-49.685 353.855V425.859M-49.685 353.855H22.3486M-49.685 425.859H22.3486M22.3486 425.859H94.3821M22.3486 425.859V353.855M94.3821 425.859H166.416M94.3821 425.859V353.855M166.416 425.859H238.449M166.416 425.859V353.855M238.449 425.859H310.483M238.449 425.859V353.855M310.483 425.859H376.349M310.483 425.859V353.855M22.3486 0V65.8389M22.3486 65.8389V137.843M22.3486 65.8389H94.3821M22.3486 137.843V209.847M22.3486 137.843H94.3821M22.3486 209.847V281.851M22.3486 209.847H94.3821M22.3486 281.851V353.855M22.3486 281.851H94.3821M22.3486 353.855H94.3821M94.3821 353.855H166.416M94.3821 353.855V281.851M166.416 353.855H238.449M166.416 353.855V281.851M238.449 353.855H310.483M238.449 353.855V281.851M310.483 353.855H376.349M310.483 353.855L310.483 281.851M94.3821 0V65.8389M94.3821 65.8389V137.843M94.3821 65.8389H166.416M94.3821 137.843V209.847M94.3821 137.843H166.416M94.3821 209.847V281.851M94.3821 209.847H166.416M94.3821 281.851H166.416M166.416 281.851H238.449M166.416 281.851V209.847M238.449 281.851H310.483M238.449 281.851V209.847M310.483 281.851H376.349M310.483 281.851V209.847M166.416 0V65.8389M166.416 65.8389V137.843M166.416 65.8389H238.449M166.416 137.843V209.847M166.416 137.843H238.449M166.416 209.847H238.449M238.449 209.847H310.483M238.449 209.847V137.843M310.483 209.847H376.349M310.483 209.847V137.843M238.449 0V65.8389M238.449 65.8389V137.843M238.449 65.8389H310.483M238.449 137.843H310.483M310.483 137.843H376.349M310.483 137.843V65.8389M310.483 0V65.8389M310.483 65.8389H376.349M376.899 0V65.8389M376.899 65.8389V137.843M376.899 65.8389H310.302M376.899 65.8389H448.933M376.899 137.843V209.847M376.899 137.843H310.302M376.899 137.843H448.933M376.899 209.847V281.851M376.899 209.847H310.302M376.899 209.847H448.932M376.899 281.851V353.855M376.899 281.851H310.302M376.899 281.851H448.932M376.899 353.855V425.859M376.899 353.855H310.302M376.899 353.855H448.932M376.899 425.859V497.863M376.899 425.859H310.302M376.899 425.859H448.932M376.899 497.863V569.867M376.899 497.863H310.302M376.899 497.863H448.932M376.899 569.867V636.437M376.899 569.867H310.302M376.899 569.867H448.932M448.932 569.867H520.966M448.932 569.867V497.863M448.932 569.867V636.437M520.966 569.867H593M520.966 569.867V497.863M520.966 569.867V636.437M593 569.867H665.033M593 569.867V497.863M593 569.867V636.437M665.033 569.867H737.067M665.033 569.867V497.863M665.033 569.867V636.437M737.067 569.867H809.101M737.067 569.867V497.863M737.067 569.867V636.437M809.101 569.867H881.134M809.101 569.867V497.863M809.101 569.867V636.437M881.134 569.867H947M881.134 569.867V497.863M881.134 569.867V636.437M448.933 0V65.8389M448.933 65.8389V137.843M448.933 65.8389H520.966M448.933 137.843L448.932 209.847M448.933 137.843H520.966M448.932 209.847V281.851M448.932 209.847H520.966M448.932 281.851V353.855M448.932 281.851H520.966M448.932 353.855V425.859M448.932 353.855H520.966M448.932 425.859V497.863M448.932 425.859H520.966M448.932 497.863H520.966M520.966 497.863H593M520.966 497.863V425.859M593 497.863H665.033M593 497.863V425.859M665.033 497.863H737.067M665.033 497.863V425.859M737.067 497.863H809.101M737.067 497.863V425.859M809.101 497.863H881.134M809.101 497.863V425.859M881.134 497.863H947M881.134 497.863V425.859M520.966 0V65.8389M520.966 65.8389V137.843M520.966 65.8389H593M520.966 137.843V209.847M520.966 137.843H593M520.966 209.847V281.851M520.966 209.847H593M520.966 281.851V353.855M520.966 281.851H593M520.966 353.855V425.859M520.966 353.855H593M520.966 425.859H593M593 425.859H665.033M593 425.859V353.855M665.033 425.859H737.067M665.033 425.859V353.855M737.067 425.859H809.101M737.067 425.859V353.855M809.101 425.859H881.134M809.101 425.859V353.855M881.134 425.859H947M881.134 425.859V353.855M593 0V65.8389M593 65.8389V137.843M593 65.8389H665.033M593 137.843V209.847M593 137.843H665.033M593 209.847V281.851M593 209.847H665.033M593 281.851L593 353.855M593 281.851H665.033M593 353.855H665.033M665.033 353.855H737.067M665.033 353.855V281.851M737.067 353.855H809.101M737.067 353.855V281.851M809.101 353.855H881.134M809.101 353.855V281.851M881.134 353.855H947M881.134 353.855L881.134 281.851M665.033 0V65.8389M665.033 65.8389V137.843M665.033 65.8389H737.067M665.033 137.843V209.847M665.033 137.843H737.067M665.033 209.847V281.851M665.033 209.847H737.067M665.033 281.851H737.067M737.067 281.851H809.101M737.067 281.851V209.847M809.101 281.851H881.134M809.101 281.851V209.847M881.134 281.851H947M881.134 281.851V209.847M737.067 0V65.8389M737.067 65.8389V137.843M737.067 65.8389H809.101M737.067 137.843V209.847M737.067 137.843H809.101M737.067 209.847H809.101M809.101 209.847H881.134M809.101 209.847V137.843M881.134 209.847H947M881.134 209.847V137.843M809.101 0V65.8389M809.101 65.8389V137.843M809.101 65.8389H881.134M809.101 137.843H881.134M881.134 137.843H947M881.134 137.843V65.8389M881.134 0V65.8389M881.134 65.8389H947M-764.403 569.563V635.402M-764.403 635.402L-764.403 707.406M-764.403 635.402H-831M-764.403 635.402H-692.37M-764.403 707.406V779.41M-764.403 707.406H-831M-764.403 707.406H-692.37M-764.403 779.41V851.414M-764.403 779.41H-831M-764.403 779.41H-692.37M-764.403 851.414V923.418M-764.403 851.414H-831M-764.403 851.414H-692.37M-764.403 923.418L-764.403 995.423M-764.403 923.418H-831M-764.403 923.418H-692.37M-764.403 995.423V1067.43M-764.403 995.423H-831M-764.403 995.423H-692.37M-764.403 1067.43L-764.403 1139.43M-764.403 1067.43H-831M-764.403 1067.43H-692.37M-764.403 1139.43V1206M-764.403 1139.43H-831M-764.403 1139.43H-692.37M-692.37 1139.43H-620.336M-692.37 1139.43V1067.43M-692.37 1139.43V1206M-620.336 1139.43H-548.303M-620.336 1139.43V1067.43M-620.336 1139.43V1206M-548.303 1139.43H-476.269M-548.303 1139.43V1067.43M-548.303 1139.43V1206M-476.269 1139.43H-404.235M-476.269 1139.43V1067.43M-476.269 1139.43V1206M-404.235 1139.43H-332.202M-404.235 1139.43V1067.43M-404.235 1139.43V1206M-332.202 1139.43H-260.168M-332.202 1139.43V1067.43M-332.202 1139.43V1206M-260.168 1139.43H-194.302M-260.168 1139.43V1067.43M-260.168 1139.43V1206M-692.37 569.563V635.402M-692.37 635.402V707.406M-692.37 635.402H-620.336M-692.37 707.406L-692.37 779.41M-692.37 707.406H-620.336M-692.37 779.41V851.414M-692.37 779.41H-620.336M-692.37 851.414V923.418M-692.37 851.414H-620.336M-692.37 923.418V995.423M-692.37 923.418H-620.336M-692.37 995.423V1067.43M-692.37 995.423H-620.336M-692.37 1067.43H-620.336M-620.336 1067.43H-548.303M-620.336 1067.43V995.423M-548.303 1067.43H-476.269M-548.303 1067.43V995.423M-476.269 1067.43H-404.235M-476.269 1067.43V995.423M-404.235 1067.43H-332.202M-404.235 1067.43V995.423M-332.202 1067.43H-260.168M-332.202 1067.43V995.423M-260.168 1067.43H-194.302M-260.168 1067.43V995.423M-620.336 569.563V635.402M-620.336 635.402V707.406M-620.336 635.402H-548.303M-620.336 707.406V779.41M-620.336 707.406H-548.303M-620.336 779.41V851.414M-620.336 779.41H-548.303M-620.336 851.414V923.418M-620.336 851.414H-548.303M-620.336 923.418V995.423M-620.336 923.418H-548.303M-620.336 995.423H-548.303M-548.303 995.423H-476.269M-548.303 995.423V923.418M-476.269 995.423H-404.235M-476.269 995.423V923.418M-404.235 995.423H-332.202M-404.235 995.423V923.418M-332.202 995.423H-260.168M-332.202 995.423V923.418M-260.168 995.423H-194.302M-260.168 995.423V923.418M-548.303 569.563V635.402M-548.303 635.402V707.406M-548.303 635.402H-476.269M-548.303 707.406V779.41M-548.303 707.406H-476.269M-548.303 779.41V851.414M-548.303 779.41H-476.269M-548.303 851.414L-548.303 923.418M-548.303 851.414H-476.269M-548.303 923.418H-476.269M-476.269 923.418H-404.235M-476.269 923.418L-476.269 851.414M-404.235 923.418H-332.202M-404.235 923.418L-404.235 851.414M-332.202 923.418H-260.168M-332.202 923.418L-332.202 851.414M-260.168 923.418H-194.302M-260.168 923.418V851.414M-476.269 569.563V635.402M-476.269 635.402V707.406M-476.269 635.402H-404.235M-476.269 707.406V779.41M-476.269 707.406H-404.235M-476.269 779.41V851.414M-476.269 779.41H-404.235M-476.269 851.414H-404.235M-404.235 851.414H-332.202M-404.235 851.414V779.41M-332.202 851.414H-260.168M-332.202 851.414V779.41M-260.168 851.414H-194.302M-260.168 851.414V779.41M-404.235 569.563V635.402M-404.235 635.402V707.406M-404.235 635.402H-332.202M-404.235 707.406V779.41M-404.235 707.406H-332.202M-404.235 779.41H-332.202M-332.202 779.41H-260.168M-332.202 779.41V707.406M-260.168 779.41H-194.302M-260.168 779.41V707.406M-332.202 569.563V635.402M-332.202 635.402V707.406M-332.202 635.402H-260.168M-332.202 707.406H-260.168M-260.168 707.406H-194.302M-260.168 707.406V635.402M-260.168 569.563V635.402M-260.168 635.402H-194.302M-193.752 569.563V635.402M-193.752 635.402V707.406M-193.752 635.402H-260.349M-193.752 635.402H-121.719M-193.752 707.406V779.41M-193.752 707.406H-260.349M-193.752 707.406H-121.719M-193.752 779.41V851.414M-193.752 779.41H-260.349M-193.752 779.41H-121.719M-193.752 851.414V923.418M-193.752 851.414H-260.349M-193.752 851.414H-121.719M-193.752 923.418V995.423M-193.752 923.418H-260.349M-193.752 923.418H-121.719M-193.752 995.423V1067.43M-193.752 995.423H-260.349M-193.752 995.423H-121.719M-193.752 1067.43V1139.43M-193.752 1067.43H-260.349M-193.752 1067.43H-121.719M-193.752 1139.43V1206M-193.752 1139.43H-260.349M-193.752 1139.43H-121.719M-121.719 1139.43H-49.685M-121.719 1139.43V1067.43M-121.719 1139.43V1206M-49.685 1139.43H22.3486M-49.685 1139.43V1067.43M-49.685 1139.43V1206M22.3486 1139.43H94.3821M22.3486 1139.43V1067.43M22.3486 1139.43V1206M94.3821 1139.43H166.416M94.3821 1139.43V1067.43M94.3821 1139.43V1206M166.416 1139.43H238.449M166.416 1139.43V1067.43M166.416 1139.43V1206M238.449 1139.43H310.483M238.449 1139.43V1067.43M238.449 1139.43V1206M310.483 1139.43H376.349M310.483 1139.43V1067.43M310.483 1139.43V1206M-121.719 569.563V635.402M-121.719 635.402V707.406M-121.719 635.402H-49.685M-121.719 707.406V779.41M-121.719 707.406H-49.685M-121.719 779.41V851.414M-121.719 779.41H-49.685M-121.719 851.414V923.418M-121.719 851.414H-49.685M-121.719 923.418V995.423M-121.719 923.418H-49.685M-121.719 995.423V1067.43M-121.719 995.423H-49.685M-121.719 1067.43H-49.685M-49.685 1067.43H22.3486M-49.685 1067.43V995.423M22.3486 1067.43H94.3821M22.3486 1067.43V995.423M94.3821 1067.43H166.416M94.3821 1067.43V995.423M166.416 1067.43H238.449M166.416 1067.43V995.423M238.449 1067.43H310.483M238.449 1067.43V995.423M310.483 1067.43H376.349M310.483 1067.43V995.423M-49.685 569.563V635.402M-49.685 635.402V707.406M-49.685 635.402H22.3486M-49.685 707.406V779.41M-49.685 707.406H22.3486M-49.685 779.41V851.414M-49.685 779.41H22.3486M-49.685 851.414V923.418M-49.685 851.414H22.3486M-49.685 923.418V995.423M-49.685 923.418H22.3486M-49.685 995.423H22.3486M22.3486 995.423H94.3821M22.3486 995.423V923.418M94.3821 995.423H166.416M94.3821 995.423V923.418M166.416 995.423H238.449M166.416 995.423V923.418M238.449 995.423H310.483M238.449 995.423V923.418M310.483 995.423H376.349M310.483 995.423V923.418M22.3486 569.563V635.402M22.3486 635.402V707.406M22.3486 635.402H94.3821M22.3486 707.406V779.41M22.3486 707.406H94.3821M22.3486 779.41V851.414M22.3486 779.41H94.3821M22.3486 851.414V923.418M22.3486 851.414H94.3821M22.3486 923.418H94.3821M94.3821 923.418H166.416M94.3821 923.418V851.414M166.416 923.418H238.449M166.416 923.418V851.414M238.449 923.418H310.483M238.449 923.418V851.414M310.483 923.418H376.349M310.483 923.418L310.483 851.414M94.3821 569.563V635.402M94.3821 635.402V707.406M94.3821 635.402H166.416M94.3821 707.406V779.41M94.3821 707.406H166.416M94.3821 779.41V851.414M94.3821 779.41H166.416M94.3821 851.414H166.416M166.416 851.414H238.449M166.416 851.414V779.41M238.449 851.414H310.483M238.449 851.414V779.41M310.483 851.414H376.349M310.483 851.414V779.41M166.416 569.563V635.402M166.416 635.402V707.406M166.416 635.402H238.449M166.416 707.406V779.41M166.416 707.406H238.449M166.416 779.41H238.449M238.449 779.41H310.483M238.449 779.41V707.406M310.483 779.41H376.349M310.483 779.41V707.406M238.449 569.563V635.402M238.449 635.402V707.406M238.449 635.402H310.483M238.449 707.406H310.483M310.483 707.406H376.349M310.483 707.406V635.402M310.483 569.563V635.402M310.483 635.402H376.349M376.899 569.563V635.402M376.899 635.402V707.406M376.899 635.402H310.302M376.899 635.402H448.933M376.899 707.406V779.41M376.899 707.406H310.302M376.899 707.406H448.933M376.899 779.41V851.414M376.899 779.41H310.302M376.899 779.41H448.932M376.899 851.414V923.418M376.899 851.414H310.302M376.899 851.414H448.932M376.899 923.418V995.423M376.899 923.418H310.302M376.899 923.418H448.932M376.899 995.423V1067.43M376.899 995.423H310.302M376.899 995.423H448.932M376.899 1067.43V1139.43M376.899 1067.43H310.302M376.899 1067.43H448.932M376.899 1139.43V1206M376.899 1139.43H310.302M376.899 1139.43H448.932M448.932 1139.43H520.966M448.932 1139.43V1067.43M448.932 1139.43V1206M520.966 1139.43H593M520.966 1139.43V1067.43M520.966 1139.43V1206M593 1139.43H665.033M593 1139.43V1067.43M593 1139.43V1206M665.033 1139.43H737.067M665.033 1139.43V1067.43M665.033 1139.43V1206M737.067 1139.43H809.101M737.067 1139.43V1067.43M737.067 1139.43V1206M809.101 1139.43H881.134M809.101 1139.43V1067.43M809.101 1139.43V1206M881.134 1139.43H947M881.134 1139.43V1067.43M881.134 1139.43V1206M448.933 569.563V635.402M448.933 635.402V707.406M448.933 635.402H520.966M448.933 707.406L448.932 779.41M448.933 707.406H520.966M448.932 779.41V851.414M448.932 779.41H520.966M448.932 851.414V923.418M448.932 851.414H520.966M448.932 923.418V995.423M448.932 923.418H520.966M448.932 995.423V1067.43M448.932 995.423H520.966M448.932 1067.43H520.966M520.966 1067.43H593M520.966 1067.43V995.423M593 1067.43H665.033M593 1067.43V995.423M665.033 1067.43H737.067M665.033 1067.43V995.423M737.067 1067.43H809.101M737.067 1067.43V995.423M809.101 1067.43H881.134M809.101 1067.43V995.423M881.134 1067.43H947M881.134 1067.43V995.423M520.966 569.563V635.402M520.966 635.402V707.406M520.966 635.402H593M520.966 707.406V779.41M520.966 707.406H593M520.966 779.41V851.414M520.966 779.41H593M520.966 851.414V923.418M520.966 851.414H593M520.966 923.418V995.423M520.966 923.418H593M520.966 995.423H593M593 995.423H665.033M593 995.423V923.418M665.033 995.423H737.067M665.033 995.423V923.418M737.067 995.423H809.101M737.067 995.423V923.418M809.101 995.423H881.134M809.101 995.423V923.418M881.134 995.423H947M881.134 995.423V923.418M593 569.563V635.402M593 635.402V707.406M593 635.402H665.033M593 707.406V779.41M593 707.406H665.033M593 779.41V851.414M593 779.41H665.033M593 851.414L593 923.418M593 851.414H665.033M593 923.418H665.033M665.033 923.418H737.067M665.033 923.418V851.414M737.067 923.418H809.101M737.067 923.418V851.414M809.101 923.418H881.134M809.101 923.418V851.414M881.134 923.418H947M881.134 923.418L881.134 851.414M665.033 569.563V635.402M665.033 635.402V707.406M665.033 635.402H737.067M665.033 707.406V779.41M665.033 707.406H737.067M665.033 779.41V851.414M665.033 779.41H737.067M665.033 851.414H737.067M737.067 851.414H809.101M737.067 851.414V779.41M809.101 851.414H881.134M809.101 851.414V779.41M881.134 851.414H947M881.134 851.414V779.41M737.067 569.563V635.402M737.067 635.402V707.406M737.067 635.402H809.101M737.067 707.406V779.41M737.067 707.406H809.101M737.067 779.41H809.101M809.101 779.41H881.134M809.101 779.41V707.406M881.134 779.41H947M881.134 779.41V707.406M809.101 569.563V635.402M809.101 635.402V707.406M809.101 635.402H881.134M809.101 707.406H881.134M881.134 707.406H947M881.134 707.406V635.402M881.134 569.563V635.402M881.134 635.402H947" stroke="url(#paint1_radial_605_270)" stroke-opacity="0.23" stroke-width="2"/>
</g>
<defs>
<filter id="filter0_f_605_270" x="-276" y="295" width="669" height="669" filterUnits="userSpaceOnUse" color-interpolation-filters="sRGB">
<feFlood flood-opacity="0" result="BackgroundImageFix"/>
<feBlend mode="normal" in="SourceGraphic" in2="BackgroundImageFix" result="shape"/>
<feGaussianBlur stdDeviation="60" result="effect1_foregroundBlur_605_270"/>
</filter>
<radialGradient id="paint0_radial_605_270" cx="0" cy="0" r="1" gradientUnits="userSpaceOnUse" gradientTransform="translate(58.5 629.5) rotate(90) scale(214.5)">
<stop stop-color="#FFB600" stop-opacity="0.92"/>
<stop offset="1" stop-color="#FFB600" stop-opacity="0"/>
</radialGradient>
<radialGradient id="paint1_radial_605_270" cx="0" cy="0" r="1" gradientUnits="userSpaceOnUse" gradientTransform="translate(57.9999 603) rotate(90) scale(281.5 415.014)">
<stop stop-color="#FFB600" stop-opacity="0.92"/>
<stop offset="1" stop-color="#FFB600" stop-opacity="0.04"/>
</radialGradient>
<clipPath id="clip0_605_270">
<rect width="947" height="691" fill="white"/>
</clipPath>
</defs>
</svg>
