<svg width="32" height="32" viewBox="0 0 32 32" fill="none" xmlns="http://www.w3.org/2000/svg">
<rect width="32" height="32" rx="16" fill="#FDB913"/>
<path d="M21.8609 16.4051C22.0237 16.2656 22.105 16.1959 22.1348 16.1129C22.161 16.04 22.161 15.9604 22.1348 15.8875C22.105 15.8045 22.0237 15.7348 21.8609 15.5953L16.2138 10.7548C15.9336 10.5147 15.7935 10.3946 15.6749 10.3917C15.5719 10.3891 15.4734 10.4344 15.4083 10.5143C15.3333 10.6063 15.3333 10.7908 15.3333 11.1598V14.0233C13.9102 14.2723 12.6077 14.9934 11.6398 16.0761C10.5845 17.2565 10.0008 18.7842 10 20.3675V20.7755C10.6996 19.9328 11.573 19.2512 12.5605 18.7775C13.4311 18.3598 14.3723 18.1124 15.3333 18.0472V20.8406C15.3333 21.2096 15.3333 21.3941 15.4083 21.486C15.4734 21.566 15.5719 21.6112 15.6749 21.6087C15.7935 21.6057 15.9336 21.4857 16.2138 21.2455L21.8609 16.4051Z" stroke="white" stroke-linecap="round" stroke-linejoin="round"/>
</svg>
