<svg width="1778" height="1206" viewBox="0 0 1778 1206" fill="none" xmlns="http://www.w3.org/2000/svg">
<path d="M66.5966 0V65.8389M66.5966 65.8389L66.5966 137.843M66.5966 65.8389H0M66.5966 65.8389H138.63M66.5966 137.843V209.847M66.5966 137.843H0M66.5966 137.843H138.63M66.5966 209.847L66.5966 281.851M66.5966 209.847H0M66.5966 209.847H138.63M66.5966 281.851V353.855M66.5966 281.851H0M66.5966 281.851H138.63M66.5966 353.855L66.5966 425.859M66.5966 353.855H0M66.5966 353.855H138.63M66.5966 425.859V497.863M66.5966 425.859H0M66.5966 425.859H138.63M66.5966 497.863L66.5966 569.867M66.5966 497.863H0M66.5966 497.863H138.63M66.5966 569.867V636.437M66.5966 569.867H0M66.5966 569.867H138.63M138.63 569.867H210.664M138.63 569.867V497.863M138.63 569.867V636.437M210.664 569.867H282.697M210.664 569.867V497.863M210.664 569.867V636.437M282.697 569.867H354.731M282.697 569.867V497.863M282.697 569.867V636.437M354.731 569.867H426.765M354.731 569.867V497.863M354.731 569.867V636.437M426.765 569.867H498.798M426.765 569.867V497.863M426.765 569.867V636.437M498.798 569.867H570.832M498.798 569.867V497.863M498.798 569.867V636.437M570.832 569.867H636.698M570.832 569.867V497.863M570.832 569.867V636.437M138.63 0V65.8389M138.63 65.8389V137.843M138.63 65.8389H210.664M138.63 137.843L138.63 209.847M138.63 137.843H210.664M138.63 209.847V281.851M138.63 209.847H210.664M138.63 281.851V353.855M138.63 281.851H210.664M138.63 353.855V425.859M138.63 353.855H210.664M138.63 425.859L138.63 497.863M138.63 425.859H210.664M138.63 497.863H210.664M210.664 497.863H282.697M210.664 497.863V425.859M282.697 497.863H354.731M282.697 497.863V425.859M354.731 497.863H426.765M354.731 497.863V425.859M426.765 497.863H498.798M426.765 497.863V425.859M498.798 497.863H570.832M498.798 497.863V425.859M570.832 497.863H636.698M570.832 497.863V425.859M210.664 0V65.8389M210.664 65.8389V137.843M210.664 65.8389H282.697M210.664 137.843V209.847M210.664 137.843H282.697M210.664 209.847V281.851M210.664 209.847H282.697M210.664 281.851L210.664 353.855M210.664 281.851H282.697M210.664 353.855V425.859M210.664 353.855H282.697M210.664 425.859H282.697M282.697 425.859H354.731M282.697 425.859V353.855M354.731 425.859H426.765M354.731 425.859V353.855M426.765 425.859H498.798M426.765 425.859V353.855M498.798 425.859H570.832M498.798 425.859V353.855M570.832 425.859H636.698M570.832 425.859V353.855M282.697 0V65.8389M282.697 65.8389V137.843M282.697 65.8389H354.731M282.697 137.843V209.847M282.697 137.843H354.731M282.697 209.847V281.851M282.697 209.847H354.731M282.697 281.851L282.697 353.855M282.697 281.851H354.731M282.697 353.855H354.731M354.731 353.855H426.765M354.731 353.855L354.731 281.851M426.765 353.855H498.798M426.765 353.855L426.765 281.851M498.798 353.855H570.832M498.798 353.855L498.798 281.851M570.832 353.855H636.698M570.832 353.855L570.832 281.851M354.731 0V65.8389M354.731 65.8389V137.843M354.731 65.8389H426.765M354.731 137.843V209.847M354.731 137.843H426.765M354.731 209.847V281.851M354.731 209.847H426.765M354.731 281.851H426.765M426.765 281.851H498.798M426.765 281.851V209.847M498.798 281.851H570.832M498.798 281.851V209.847M570.832 281.851H636.698M570.832 281.851V209.847M426.765 0V65.8389M426.765 65.8389V137.843M426.765 65.8389H498.798M426.765 137.843V209.847M426.765 137.843H498.798M426.765 209.847H498.798M498.798 209.847H570.832M498.798 209.847V137.843M570.832 209.847H636.698M570.832 209.847V137.843M498.798 0V65.8389M498.798 65.8389V137.843M498.798 65.8389H570.832M498.798 137.843H570.832M570.832 137.843H636.698M570.832 137.843V65.8389M570.832 0V65.8389M570.832 65.8389H636.698M637.248 0V65.8389M637.248 65.8389V137.843M637.248 65.8389H570.651M637.248 65.8389H709.281M637.248 137.843V209.847M637.248 137.843H570.651M637.248 137.843H709.281M637.248 209.847V281.851M637.248 209.847H570.651M637.248 209.847H709.281M637.248 281.851V353.855M637.248 281.851H570.651M637.248 281.851H709.281M637.248 353.855L637.248 425.859M637.248 353.855H570.651M637.248 353.855H709.281M637.248 425.859V497.863M637.248 425.859H570.651M637.248 425.859H709.281M637.248 497.863V569.867M637.248 497.863H570.651M637.248 497.863H709.281M637.248 569.867V636.437M637.248 569.867H570.651M637.248 569.867H709.281M709.281 569.867H781.315M709.281 569.867V497.863M709.281 569.867V636.437M781.315 569.867H853.349M781.315 569.867V497.863M781.315 569.867V636.437M853.349 569.867H925.382M853.349 569.867V497.863M853.349 569.867V636.437M925.382 569.867H997.416M925.382 569.867V497.863M925.382 569.867V636.437M997.416 569.867H1069.45M997.416 569.867V497.863M997.416 569.867V636.437M1069.45 569.867H1141.48M1069.45 569.867V497.863M1069.45 569.867V636.437M1141.48 569.867H1207.35M1141.48 569.867V497.863M1141.48 569.867V636.437M709.281 0V65.8389M709.281 65.8389V137.843M709.281 65.8389H781.315M709.281 137.843V209.847M709.281 137.843H781.315M709.281 209.847V281.851M709.281 209.847H781.315M709.281 281.851V353.855M709.281 281.851H781.315M709.281 353.855V425.859M709.281 353.855H781.315M709.281 425.859L709.281 497.863M709.281 425.859H781.315M709.281 497.863H781.315M781.315 497.863H853.349M781.315 497.863V425.859M853.349 497.863H925.382M853.349 497.863V425.859M925.382 497.863H997.416M925.382 497.863V425.859M997.416 497.863H1069.45M997.416 497.863V425.859M1069.45 497.863H1141.48M1069.45 497.863V425.859M1141.48 497.863H1207.35M1141.48 497.863V425.859M781.315 0V65.8389M781.315 65.8389V137.843M781.315 65.8389H853.349M781.315 137.843V209.847M781.315 137.843H853.349M781.315 209.847V281.851M781.315 209.847H853.349M781.315 281.851V353.855M781.315 281.851H853.349M781.315 353.855V425.859M781.315 353.855H853.349M781.315 425.859H853.349M853.349 425.859H925.382M853.349 425.859V353.855M925.382 425.859H997.416M925.382 425.859V353.855M997.416 425.859H1069.45M997.416 425.859V353.855M1069.45 425.859H1141.48M1069.45 425.859V353.855M1141.48 425.859H1207.35M1141.48 425.859V353.855M853.349 0V65.8389M853.349 65.8389V137.843M853.349 65.8389H925.382M853.349 137.843V209.847M853.349 137.843H925.382M853.349 209.847V281.851M853.349 209.847H925.382M853.349 281.851L853.349 353.855M853.349 281.851H925.382M853.349 353.855H925.382M925.382 353.855H997.416M925.382 353.855V281.851M997.416 353.855H1069.45M997.416 353.855V281.851M1069.45 353.855H1141.48M1069.45 353.855V281.851M1141.48 353.855H1207.35M1141.48 353.855L1141.48 281.851M925.382 0V65.8389M925.382 65.8389V137.843M925.382 65.8389H997.416M925.382 137.843V209.847M925.382 137.843H997.416M925.382 209.847V281.851M925.382 209.847H997.416M925.382 281.851H997.416M997.416 281.851H1069.45M997.416 281.851V209.847M1069.45 281.851H1141.48M1069.45 281.851V209.847M1141.48 281.851H1207.35M1141.48 281.851V209.847M997.416 0V65.8389M997.416 65.8389V137.843M997.416 65.8389H1069.45M997.416 137.843V209.847M997.416 137.843H1069.45M997.416 209.847H1069.45M1069.45 209.847H1141.48M1069.45 209.847V137.843M1141.48 209.847H1207.35M1141.48 209.847V137.843M1069.45 0V65.8389M1069.45 65.8389V137.843M1069.45 65.8389H1141.48M1069.45 137.843H1141.48M1141.48 137.843H1207.35M1141.48 137.843V65.8389M1141.48 0V65.8389M1141.48 65.8389H1207.35M1207.9 0V65.8389M1207.9 65.8389V137.843M1207.9 65.8389H1141.3M1207.9 65.8389H1279.93M1207.9 137.843V209.847M1207.9 137.843H1141.3M1207.9 137.843H1279.93M1207.9 209.847V281.851M1207.9 209.847H1141.3M1207.9 209.847H1279.93M1207.9 281.851V353.855M1207.9 281.851H1141.3M1207.9 281.851H1279.93M1207.9 353.855V425.859M1207.9 353.855H1141.3M1207.9 353.855H1279.93M1207.9 425.859V497.863M1207.9 425.859H1141.3M1207.9 425.859H1279.93M1207.9 497.863V569.867M1207.9 497.863H1141.3M1207.9 497.863H1279.93M1207.9 569.867V636.437M1207.9 569.867H1141.3M1207.9 569.867H1279.93M1279.93 569.867H1351.97M1279.93 569.867V497.863M1279.93 569.867V636.437M1351.97 569.867H1424M1351.97 569.867V497.863M1351.97 569.867V636.437M1424 569.867H1496.03M1424 569.867V497.863M1424 569.867V636.437M1496.03 569.867H1568.07M1496.03 569.867V497.863M1496.03 569.867V636.437M1568.07 569.867H1640.1M1568.07 569.867V497.863M1568.07 569.867V636.437M1640.1 569.867H1712.13M1640.1 569.867V497.863M1640.1 569.867V636.437M1712.13 569.867H1778M1712.13 569.867V497.863M1712.13 569.867V636.437M1279.93 0V65.8389M1279.93 65.8389V137.843M1279.93 65.8389H1351.97M1279.93 137.843L1279.93 209.847M1279.93 137.843H1351.97M1279.93 209.847V281.851M1279.93 209.847H1351.97M1279.93 281.851V353.855M1279.93 281.851H1351.97M1279.93 353.855V425.859M1279.93 353.855H1351.97M1279.93 425.859V497.863M1279.93 425.859H1351.97M1279.93 497.863H1351.97M1351.97 497.863H1424M1351.97 497.863V425.859M1424 497.863H1496.03M1424 497.863V425.859M1496.03 497.863H1568.07M1496.03 497.863V425.859M1568.07 497.863H1640.1M1568.07 497.863V425.859M1640.1 497.863H1712.13M1640.1 497.863V425.859M1712.13 497.863H1778M1712.13 497.863V425.859M1351.97 0V65.8389M1351.97 65.8389V137.843M1351.97 65.8389H1424M1351.97 137.843V209.847M1351.97 137.843H1424M1351.97 209.847V281.851M1351.97 209.847H1424M1351.97 281.851V353.855M1351.97 281.851H1424M1351.97 353.855V425.859M1351.97 353.855H1424M1351.97 425.859H1424M1424 425.859H1496.03M1424 425.859V353.855M1496.03 425.859H1568.07M1496.03 425.859V353.855M1568.07 425.859H1640.1M1568.07 425.859V353.855M1640.1 425.859H1712.13M1640.1 425.859V353.855M1712.13 425.859H1778M1712.13 425.859V353.855M1424 0V65.8389M1424 65.8389V137.843M1424 65.8389H1496.03M1424 137.843V209.847M1424 137.843H1496.03M1424 209.847V281.851M1424 209.847H1496.03M1424 281.851L1424 353.855M1424 281.851H1496.03M1424 353.855H1496.03M1496.03 353.855H1568.07M1496.03 353.855V281.851M1568.07 353.855H1640.1M1568.07 353.855V281.851M1640.1 353.855H1712.13M1640.1 353.855V281.851M1712.13 353.855H1778M1712.13 353.855L1712.13 281.851M1496.03 0V65.8389M1496.03 65.8389V137.843M1496.03 65.8389H1568.07M1496.03 137.843V209.847M1496.03 137.843H1568.07M1496.03 209.847V281.851M1496.03 209.847H1568.07M1496.03 281.851H1568.07M1568.07 281.851H1640.1M1568.07 281.851V209.847M1640.1 281.851H1712.13M1640.1 281.851V209.847M1712.13 281.851H1778M1712.13 281.851V209.847M1568.07 0V65.8389M1568.07 65.8389V137.843M1568.07 65.8389H1640.1M1568.07 137.843V209.847M1568.07 137.843H1640.1M1568.07 209.847H1640.1M1640.1 209.847H1712.13M1640.1 209.847V137.843M1712.13 209.847H1778M1712.13 209.847V137.843M1640.1 0V65.8389M1640.1 65.8389V137.843M1640.1 65.8389H1712.13M1640.1 137.843H1712.13M1712.13 137.843H1778M1712.13 137.843V65.8389M1712.13 0V65.8389M1712.13 65.8389H1778M66.5966 569.563V635.402M66.5966 635.402L66.5966 707.406M66.5966 635.402H0M66.5966 635.402H138.63M66.5966 707.406V779.41M66.5966 707.406H0M66.5966 707.406H138.63M66.5966 779.41L66.5966 851.414M66.5966 779.41H0M66.5966 779.41H138.63M66.5966 851.414V923.418M66.5966 851.414H0M66.5966 851.414H138.63M66.5966 923.418L66.5966 995.423M66.5966 923.418H0M66.5966 923.418H138.63M66.5966 995.423V1067.43M66.5966 995.423H0M66.5966 995.423H138.63M66.5966 1067.43L66.5966 1139.43M66.5966 1067.43H0M66.5966 1067.43H138.63M66.5966 1139.43V1206M66.5966 1139.43H0M66.5966 1139.43H138.63M138.63 1139.43H210.664M138.63 1139.43V1067.43M138.63 1139.43V1206M210.664 1139.43H282.697M210.664 1139.43V1067.43M210.664 1139.43V1206M282.697 1139.43H354.731M282.697 1139.43V1067.43M282.697 1139.43V1206M354.731 1139.43H426.765M354.731 1139.43V1067.43M354.731 1139.43V1206M426.765 1139.43H498.798M426.765 1139.43V1067.43M426.765 1139.43V1206M498.798 1139.43H570.832M498.798 1139.43V1067.43M498.798 1139.43V1206M570.832 1139.43H636.698M570.832 1139.43V1067.43M570.832 1139.43V1206M138.63 569.563V635.402M138.63 635.402V707.406M138.63 635.402H210.664M138.63 707.406L138.63 779.41M138.63 707.406H210.664M138.63 779.41V851.414M138.63 779.41H210.664M138.63 851.414V923.418M138.63 851.414H210.664M138.63 923.418V995.423M138.63 923.418H210.664M138.63 995.423L138.63 1067.43M138.63 995.423H210.664M138.63 1067.43H210.664M210.664 1067.43H282.697M210.664 1067.43V995.423M282.697 1067.43H354.731M282.697 1067.43V995.423M354.731 1067.43H426.765M354.731 1067.43V995.423M426.765 1067.43H498.798M426.765 1067.43V995.423M498.798 1067.43H570.832M498.798 1067.43V995.423M570.832 1067.43H636.698M570.832 1067.43V995.423M210.664 569.563V635.402M210.664 635.402V707.406M210.664 635.402H282.697M210.664 707.406V779.41M210.664 707.406H282.697M210.664 779.41V851.414M210.664 779.41H282.697M210.664 851.414L210.664 923.418M210.664 851.414H282.697M210.664 923.418V995.423M210.664 923.418H282.697M210.664 995.423H282.697M282.697 995.423H354.731M282.697 995.423V923.418M354.731 995.423H426.765M354.731 995.423V923.418M426.765 995.423H498.798M426.765 995.423V923.418M498.798 995.423H570.832M498.798 995.423V923.418M570.832 995.423H636.698M570.832 995.423V923.418M282.697 569.563V635.402M282.697 635.402V707.406M282.697 635.402H354.731M282.697 707.406V779.41M282.697 707.406H354.731M282.697 779.41V851.414M282.697 779.41H354.731M282.697 851.414L282.697 923.418M282.697 851.414H354.731M282.697 923.418H354.731M354.731 923.418H426.765M354.731 923.418L354.731 851.414M426.765 923.418H498.798M426.765 923.418L426.765 851.414M498.798 923.418H570.832M498.798 923.418L498.798 851.414M570.832 923.418H636.698M570.832 923.418L570.832 851.414M354.731 569.563V635.402M354.731 635.402V707.406M354.731 635.402H426.765M354.731 707.406V779.41M354.731 707.406H426.765M354.731 779.41V851.414M354.731 779.41H426.765M354.731 851.414H426.765M426.765 851.414H498.798M426.765 851.414V779.41M498.798 851.414H570.832M498.798 851.414V779.41M570.832 851.414H636.698M570.832 851.414V779.41M426.765 569.563V635.402M426.765 635.402V707.406M426.765 635.402H498.798M426.765 707.406V779.41M426.765 707.406H498.798M426.765 779.41H498.798M498.798 779.41H570.832M498.798 779.41V707.406M570.832 779.41H636.698M570.832 779.41V707.406M498.798 569.563V635.402M498.798 635.402V707.406M498.798 635.402H570.832M498.798 707.406H570.832M570.832 707.406H636.698M570.832 707.406V635.402M570.832 569.563V635.402M570.832 635.402H636.698M637.248 569.563V635.402M637.248 635.402V707.406M637.248 635.402H570.651M637.248 635.402H709.281M637.248 707.406V779.41M637.248 707.406H570.651M637.248 707.406H709.281M637.248 779.41V851.414M637.248 779.41H570.651M637.248 779.41H709.281M637.248 851.414V923.418M637.248 851.414H570.651M637.248 851.414H709.281M637.248 923.418L637.248 995.423M637.248 923.418H570.651M637.248 923.418H709.281M637.248 995.423V1067.43M637.248 995.423H570.651M637.248 995.423H709.281M637.248 1067.43V1139.43M637.248 1067.43H570.651M637.248 1067.43H709.281M637.248 1139.43V1206M637.248 1139.43H570.651M637.248 1139.43H709.281M709.281 1139.43H781.315M709.281 1139.43V1067.43M709.281 1139.43V1206M781.315 1139.43H853.349M781.315 1139.43V1067.43M781.315 1139.43V1206M853.349 1139.43H925.382M853.349 1139.43V1067.43M853.349 1139.43V1206M925.382 1139.43H997.416M925.382 1139.43V1067.43M925.382 1139.43V1206M997.416 1139.43H1069.45M997.416 1139.43V1067.43M997.416 1139.43V1206M1069.45 1139.43H1141.48M1069.45 1139.43V1067.43M1069.45 1139.43V1206M1141.48 1139.43H1207.35M1141.48 1139.43V1067.43M1141.48 1139.43V1206M709.281 569.563V635.402M709.281 635.402V707.406M709.281 635.402H781.315M709.281 707.406V779.41M709.281 707.406H781.315M709.281 779.41V851.414M709.281 779.41H781.315M709.281 851.414V923.418M709.281 851.414H781.315M709.281 923.418V995.423M709.281 923.418H781.315M709.281 995.423L709.281 1067.43M709.281 995.423H781.315M709.281 1067.43H781.315M781.315 1067.43H853.349M781.315 1067.43V995.423M853.349 1067.43H925.382M853.349 1067.43V995.423M925.382 1067.43H997.416M925.382 1067.43V995.423M997.416 1067.43H1069.45M997.416 1067.43V995.423M1069.45 1067.43H1141.48M1069.45 1067.43V995.423M1141.48 1067.43H1207.35M1141.48 1067.43V995.423M781.315 569.563V635.402M781.315 635.402V707.406M781.315 635.402H853.349M781.315 707.406V779.41M781.315 707.406H853.349M781.315 779.41V851.414M781.315 779.41H853.349M781.315 851.414V923.418M781.315 851.414H853.349M781.315 923.418V995.423M781.315 923.418H853.349M781.315 995.423H853.349M853.349 995.423H925.382M853.349 995.423V923.418M925.382 995.423H997.416M925.382 995.423V923.418M997.416 995.423H1069.45M997.416 995.423V923.418M1069.45 995.423H1141.48M1069.45 995.423V923.418M1141.48 995.423H1207.35M1141.48 995.423V923.418M853.349 569.563V635.402M853.349 635.402V707.406M853.349 635.402H925.382M853.349 707.406V779.41M853.349 707.406H925.382M853.349 779.41V851.414M853.349 779.41H925.382M853.349 851.414L853.349 923.418M853.349 851.414H925.382M853.349 923.418H925.382M925.382 923.418H997.416M925.382 923.418V851.414M997.416 923.418H1069.45M997.416 923.418V851.414M1069.45 923.418H1141.48M1069.45 923.418V851.414M1141.48 923.418H1207.35M1141.48 923.418L1141.48 851.414M925.382 569.563V635.402M925.382 635.402V707.406M925.382 635.402H997.416M925.382 707.406V779.41M925.382 707.406H997.416M925.382 779.41V851.414M925.382 779.41H997.416M925.382 851.414H997.416M997.416 851.414H1069.45M997.416 851.414V779.41M1069.45 851.414H1141.48M1069.45 851.414V779.41M1141.48 851.414H1207.35M1141.48 851.414V779.41M997.416 569.563V635.402M997.416 635.402V707.406M997.416 635.402H1069.45M997.416 707.406V779.41M997.416 707.406H1069.45M997.416 779.41H1069.45M1069.45 779.41H1141.48M1069.45 779.41V707.406M1141.48 779.41H1207.35M1141.48 779.41V707.406M1069.45 569.563V635.402M1069.45 635.402V707.406M1069.45 635.402H1141.48M1069.45 707.406H1141.48M1141.48 707.406H1207.35M1141.48 707.406V635.402M1141.48 569.563V635.402M1141.48 635.402H1207.35M1207.9 569.563V635.402M1207.9 635.402V707.406M1207.9 635.402H1141.3M1207.9 635.402H1279.93M1207.9 707.406V779.41M1207.9 707.406H1141.3M1207.9 707.406H1279.93M1207.9 779.41V851.414M1207.9 779.41H1141.3M1207.9 779.41H1279.93M1207.9 851.414V923.418M1207.9 851.414H1141.3M1207.9 851.414H1279.93M1207.9 923.418V995.423M1207.9 923.418H1141.3M1207.9 923.418H1279.93M1207.9 995.423V1067.43M1207.9 995.423H1141.3M1207.9 995.423H1279.93M1207.9 1067.43V1139.43M1207.9 1067.43H1141.3M1207.9 1067.43H1279.93M1207.9 1139.43V1206M1207.9 1139.43H1141.3M1207.9 1139.43H1279.93M1279.93 1139.43H1351.97M1279.93 1139.43V1067.43M1279.93 1139.43V1206M1351.97 1139.43H1424M1351.97 1139.43V1067.43M1351.97 1139.43V1206M1424 1139.43H1496.03M1424 1139.43V1067.43M1424 1139.43V1206M1496.03 1139.43H1568.07M1496.03 1139.43V1067.43M1496.03 1139.43V1206M1568.07 1139.43H1640.1M1568.07 1139.43V1067.43M1568.07 1139.43V1206M1640.1 1139.43H1712.13M1640.1 1139.43V1067.43M1640.1 1139.43V1206M1712.13 1139.43H1778M1712.13 1139.43V1067.43M1712.13 1139.43V1206M1279.93 569.563V635.402M1279.93 635.402V707.406M1279.93 635.402H1351.97M1279.93 707.406L1279.93 779.41M1279.93 707.406H1351.97M1279.93 779.41V851.414M1279.93 779.41H1351.97M1279.93 851.414V923.418M1279.93 851.414H1351.97M1279.93 923.418V995.423M1279.93 923.418H1351.97M1279.93 995.423V1067.43M1279.93 995.423H1351.97M1279.93 1067.43H1351.97M1351.97 1067.43H1424M1351.97 1067.43V995.423M1424 1067.43H1496.03M1424 1067.43V995.423M1496.03 1067.43H1568.07M1496.03 1067.43V995.423M1568.07 1067.43H1640.1M1568.07 1067.43V995.423M1640.1 1067.43H1712.13M1640.1 1067.43V995.423M1712.13 1067.43H1778M1712.13 1067.43V995.423M1351.97 569.563V635.402M1351.97 635.402V707.406M1351.97 635.402H1424M1351.97 707.406V779.41M1351.97 707.406H1424M1351.97 779.41V851.414M1351.97 779.41H1424M1351.97 851.414V923.418M1351.97 851.414H1424M1351.97 923.418V995.423M1351.97 923.418H1424M1351.97 995.423H1424M1424 995.423H1496.03M1424 995.423V923.418M1496.03 995.423H1568.07M1496.03 995.423V923.418M1568.07 995.423H1640.1M1568.07 995.423V923.418M1640.1 995.423H1712.13M1640.1 995.423V923.418M1712.13 995.423H1778M1712.13 995.423V923.418M1424 569.563V635.402M1424 635.402V707.406M1424 635.402H1496.03M1424 707.406V779.41M1424 707.406H1496.03M1424 779.41V851.414M1424 779.41H1496.03M1424 851.414L1424 923.418M1424 851.414H1496.03M1424 923.418H1496.03M1496.03 923.418H1568.07M1496.03 923.418V851.414M1568.07 923.418H1640.1M1568.07 923.418V851.414M1640.1 923.418H1712.13M1640.1 923.418V851.414M1712.13 923.418H1778M1712.13 923.418L1712.13 851.414M1496.03 569.563V635.402M1496.03 635.402V707.406M1496.03 635.402H1568.07M1496.03 707.406V779.41M1496.03 707.406H1568.07M1496.03 779.41V851.414M1496.03 779.41H1568.07M1496.03 851.414H1568.07M1568.07 851.414H1640.1M1568.07 851.414V779.41M1640.1 851.414H1712.13M1640.1 851.414V779.41M1712.13 851.414H1778M1712.13 851.414V779.41M1568.07 569.563V635.402M1568.07 635.402V707.406M1568.07 635.402H1640.1M1568.07 707.406V779.41M1568.07 707.406H1640.1M1568.07 779.41H1640.1M1640.1 779.41H1712.13M1640.1 779.41V707.406M1712.13 779.41H1778M1712.13 779.41V707.406M1640.1 569.563V635.402M1640.1 635.402V707.406M1640.1 635.402H1712.13M1640.1 707.406H1712.13M1712.13 707.406H1778M1712.13 707.406V635.402M1712.13 569.563V635.402M1712.13 635.402H1778" stroke="url(#paint0_radial_546_3)" stroke-opacity="0.23" stroke-width="2"/>
<defs>
<radialGradient id="paint0_radial_546_3" cx="0" cy="0" r="1" gradientUnits="userSpaceOnUse" gradientTransform="translate(889 603) rotate(90) scale(281.5 415.014)">
<stop stop-color="#FFB600" stop-opacity="0.92"/>
<stop offset="1" stop-color="#FFB600" stop-opacity="0.04"/>
</radialGradient>
</defs>
</svg>
