<svg width="32" height="32" viewBox="0 0 32 32" fill="none" xmlns="http://www.w3.org/2000/svg">
<rect width="32" height="32" rx="16" fill="url(#paint0_linear_3328_4288)"/>
<path d="M6.29492 25.3082L7.66683 20.3263C6.81866 18.8641 6.37371 17.2081 6.37835 15.5152C6.37835 10.2104 10.7166 5.89746 16.042 5.89746C18.6282 5.89746 21.0569 6.89844 22.8784 8.71589C24.7045 10.5333 25.7103 12.9505 25.7056 15.5198C25.7056 20.8245 21.3674 25.1375 16.0373 25.1375H16.0327C14.4152 25.1375 12.8254 24.7316 11.4118 23.9658L6.29492 25.3082ZM11.6574 22.2268L11.9494 22.4021C13.1823 23.1309 14.5959 23.5138 16.0373 23.5184H16.042C20.4683 23.5184 24.0742 19.9342 24.0742 15.5244C24.0742 13.3887 23.2399 11.3821 21.7243 9.86909C20.2087 8.35609 18.1879 7.52578 16.042 7.52578C11.6157 7.52117 8.00981 11.1053 8.00981 15.5152C8.00981 17.0236 8.43158 18.4951 9.23804 19.7682L9.42807 20.0726L8.61697 23.0202L11.6574 22.2268Z" fill="white"/>
<path d="M6.63281 24.9716L7.95838 20.1605C7.13801 18.7535 6.70697 17.1529 6.70697 15.52C6.7116 10.3997 10.8969 6.23438 16.0415 6.23438C18.5397 6.23438 20.8803 7.20307 22.6415 8.95593C24.4028 10.7088 25.3715 13.0429 25.3715 15.5246C25.3715 20.6448 21.1816 24.8102 16.0415 24.8102H16.0369C14.475 24.8102 12.9408 24.4181 11.5782 23.68L6.63281 24.9716Z" fill="url(#paint1_linear_3328_4288)"/>
<path d="M6.29492 25.3082L7.66683 20.3263C6.81866 18.8641 6.37371 17.2081 6.37835 15.5152C6.37835 10.2104 10.7166 5.89746 16.042 5.89746C18.6282 5.89746 21.0569 6.89844 22.8784 8.71589C24.7045 10.5333 25.7103 12.9505 25.7056 15.5198C25.7056 20.8245 21.3674 25.1375 16.0373 25.1375H16.0327C14.4152 25.1375 12.8254 24.7316 11.4118 23.9658L6.29492 25.3082ZM11.6574 22.2268L11.9494 22.4021C13.1823 23.1309 14.5959 23.5138 16.0373 23.5184H16.042C20.4683 23.5184 24.0742 19.9342 24.0742 15.5244C24.0742 13.3887 23.2399 11.3821 21.7243 9.86909C20.2087 8.35609 18.1879 7.52578 16.042 7.52578C11.6157 7.52117 8.00981 11.1053 8.00981 15.5152C8.00981 17.0236 8.43158 18.4951 9.23804 19.7682L9.42807 20.0726L8.61697 23.0202L11.6574 22.2268Z" fill="url(#paint2_linear_3328_4288)"/>
<path fill-rule="evenodd" clip-rule="evenodd" d="M13.6264 11.493C13.4456 11.0917 13.2556 11.0825 13.0841 11.0779C12.945 11.0732 12.7828 11.0732 12.6206 11.0732C12.4584 11.0732 12.1988 11.1332 11.9764 11.3731C11.7539 11.6129 11.1328 12.1942 11.1328 13.3796C11.1328 14.5605 11.9995 15.7045 12.12 15.866C12.2405 16.0274 13.7932 18.5322 16.245 19.4962C18.2844 20.2989 18.7015 20.1374 19.1418 20.0959C19.5821 20.0544 20.5693 19.5147 20.7733 18.9519C20.9726 18.3892 20.9726 17.9094 20.9123 17.8079C20.8521 17.7065 20.6898 17.6465 20.4488 17.5266C20.2078 17.4066 19.0213 16.8254 18.7988 16.7424C18.5764 16.664 18.4141 16.6225 18.2566 16.8623C18.0943 17.1022 17.6309 17.6419 17.4918 17.8033C17.3528 17.9648 17.2091 17.9832 16.9681 17.8633C16.7271 17.7434 15.9484 17.4897 15.0261 16.6686C14.3077 16.032 13.821 15.2432 13.682 15.0034C13.5429 14.7635 13.6681 14.6343 13.7886 14.5144C13.8952 14.4083 14.0296 14.233 14.1501 14.0946C14.2706 13.9562 14.3123 13.8548 14.3911 13.6933C14.4699 13.5319 14.4328 13.3935 14.3726 13.2736C14.3123 13.1582 13.8396 11.9681 13.6264 11.493Z" fill="white"/>
<defs>
<linearGradient id="paint0_linear_3328_4288" x1="15.9992" y1="31.9984" x2="15.9992" y2="-0.0011196" gradientUnits="userSpaceOnUse">
<stop stop-color="#20B038"/>
<stop offset="1" stop-color="#60D66A"/>
</linearGradient>
<linearGradient id="paint1_linear_3328_4288" x1="16.0016" y1="24.9707" x2="16.0016" y2="6.23372" gradientUnits="userSpaceOnUse">
<stop stop-color="#20B038"/>
<stop offset="1" stop-color="#60D66A"/>
</linearGradient>
<linearGradient id="paint2_linear_3328_4288" x1="16.0022" y1="25.3063" x2="16.0022" y2="5.89746" gradientUnits="userSpaceOnUse">
<stop stop-color="#F9F9F9"/>
<stop offset="1" stop-color="white"/>
</linearGradient>
</defs>
</svg>
