<svg width="938" height="1208" viewBox="0 0 938 1208" fill="none" xmlns="http://www.w3.org/2000/svg">
<g clip-path="url(#clip0_606_344)">
<g filter="url(#filter0_f_606_344)">
<path d="M264 631.5C264 749.965 167.965 846 49.5 846C-68.9651 846 -165 749.965 -165 631.5C-165 513.035 -68.9651 417 49.5 417C167.965 417 264 513.035 264 631.5Z" fill="url(#paint0_radial_606_344)" fill-opacity="0.3"/>
</g>
<path d="M-773.403 -4V61.8389M-773.403 61.8389L-773.403 133.843M-773.403 61.8389H-840M-773.403 61.8389H-701.37M-773.403 133.843V205.847M-773.403 133.843H-840M-773.403 133.843H-701.37M-773.403 205.847L-773.403 277.851M-773.403 205.847H-840M-773.403 205.847H-701.37M-773.403 277.851V349.855M-773.403 277.851H-840M-773.403 277.851H-701.37M-773.403 349.855L-773.403 421.859M-773.403 349.855H-840M-773.403 349.855H-701.37M-773.403 421.859V493.863M-773.403 421.859H-840M-773.403 421.859H-701.37M-773.403 493.863L-773.403 565.867M-773.403 493.863H-840M-773.403 493.863H-701.37M-773.403 565.867V632.437M-773.403 565.867H-840M-773.403 565.867H-701.37M-701.37 565.867H-629.336M-701.37 565.867V493.863M-701.37 565.867V632.437M-629.336 565.867H-557.303M-629.336 565.867V493.863M-629.336 565.867V632.437M-557.303 565.867H-485.269M-557.303 565.867V493.863M-557.303 565.867V632.437M-485.269 565.867H-413.235M-485.269 565.867V493.863M-485.269 565.867V632.437M-413.235 565.867H-341.202M-413.235 565.867V493.863M-413.235 565.867V632.437M-341.202 565.867H-269.168M-341.202 565.867V493.863M-341.202 565.867V632.437M-269.168 565.867H-203.302M-269.168 565.867V493.863M-269.168 565.867V632.437M-701.37 -4V61.8389M-701.37 61.8389V133.843M-701.37 61.8389H-629.336M-701.37 133.843L-701.37 205.847M-701.37 133.843H-629.336M-701.37 205.847V277.851M-701.37 205.847H-629.336M-701.37 277.851V349.855M-701.37 277.851H-629.336M-701.37 349.855V421.859M-701.37 349.855H-629.336M-701.37 421.859L-701.37 493.863M-701.37 421.859H-629.336M-701.37 493.863H-629.336M-629.336 493.863H-557.303M-629.336 493.863V421.859M-557.303 493.863H-485.269M-557.303 493.863V421.859M-485.269 493.863H-413.235M-485.269 493.863V421.859M-413.235 493.863H-341.202M-413.235 493.863V421.859M-341.202 493.863H-269.168M-341.202 493.863V421.859M-269.168 493.863H-203.302M-269.168 493.863V421.859M-629.336 -4V61.8389M-629.336 61.8389V133.843M-629.336 61.8389H-557.303M-629.336 133.843V205.847M-629.336 133.843H-557.303M-629.336 205.847V277.851M-629.336 205.847H-557.303M-629.336 277.851L-629.336 349.855M-629.336 277.851H-557.303M-629.336 349.855V421.859M-629.336 349.855H-557.303M-629.336 421.859H-557.303M-557.303 421.859H-485.269M-557.303 421.859V349.855M-485.269 421.859H-413.235M-485.269 421.859V349.855M-413.235 421.859H-341.202M-413.235 421.859V349.855M-341.202 421.859H-269.168M-341.202 421.859V349.855M-269.168 421.859H-203.302M-269.168 421.859V349.855M-557.303 -4V61.8389M-557.303 61.8389V133.843M-557.303 61.8389H-485.269M-557.303 133.843V205.847M-557.303 133.843H-485.269M-557.303 205.847V277.851M-557.303 205.847H-485.269M-557.303 277.851L-557.303 349.855M-557.303 277.851H-485.269M-557.303 349.855H-485.269M-485.269 349.855H-413.235M-485.269 349.855L-485.269 277.851M-413.235 349.855H-341.202M-413.235 349.855L-413.235 277.851M-341.202 349.855H-269.168M-341.202 349.855L-341.202 277.851M-269.168 349.855H-203.302M-269.168 349.855L-269.168 277.851M-485.269 -4V61.8389M-485.269 61.8389V133.843M-485.269 61.8389H-413.235M-485.269 133.843V205.847M-485.269 133.843H-413.235M-485.269 205.847V277.851M-485.269 205.847H-413.235M-485.269 277.851H-413.235M-413.235 277.851H-341.202M-413.235 277.851V205.847M-341.202 277.851H-269.168M-341.202 277.851V205.847M-269.168 277.851H-203.302M-269.168 277.851V205.847M-413.235 -4V61.8389M-413.235 61.8389V133.843M-413.235 61.8389H-341.202M-413.235 133.843V205.847M-413.235 133.843H-341.202M-413.235 205.847H-341.202M-341.202 205.847H-269.168M-341.202 205.847V133.843M-269.168 205.847H-203.302M-269.168 205.847V133.843M-341.202 -4V61.8389M-341.202 61.8389V133.843M-341.202 61.8389H-269.168M-341.202 133.843H-269.168M-269.168 133.843H-203.302M-269.168 133.843V61.8389M-269.168 -4V61.8389M-269.168 61.8389H-203.302M-202.752 -4V61.8389M-202.752 61.8389V133.843M-202.752 61.8389H-269.349M-202.752 61.8389H-130.719M-202.752 133.843V205.847M-202.752 133.843H-269.349M-202.752 133.843H-130.719M-202.752 205.847V277.851M-202.752 205.847H-269.349M-202.752 205.847H-130.719M-202.752 277.851V349.855M-202.752 277.851H-269.349M-202.752 277.851H-130.719M-202.752 349.855L-202.752 421.859M-202.752 349.855H-269.349M-202.752 349.855H-130.719M-202.752 421.859V493.863M-202.752 421.859H-269.349M-202.752 421.859H-130.719M-202.752 493.863V565.867M-202.752 493.863H-269.349M-202.752 493.863H-130.719M-202.752 565.867V632.437M-202.752 565.867H-269.349M-202.752 565.867H-130.719M-130.719 565.867H-58.685M-130.719 565.867V493.863M-130.719 565.867V632.437M-58.685 565.867H13.3485M-58.685 565.867V493.863M-58.685 565.867V632.437M13.3485 565.867H85.3821M13.3485 565.867V493.863M13.3485 565.867V632.437M85.3821 565.867H157.416M85.3821 565.867V493.863M85.3821 565.867V632.437M157.416 565.867H229.449M157.416 565.867V493.863M157.416 565.867V632.437M229.449 565.867H301.483M229.449 565.867V493.863M229.449 565.867V632.437M301.483 565.867H367.349M301.483 565.867V493.863M301.483 565.867V632.437M-130.719 -4V61.8389M-130.719 61.8389V133.843M-130.719 61.8389H-58.685M-130.719 133.843V205.847M-130.719 133.843H-58.685M-130.719 205.847V277.851M-130.719 205.847H-58.685M-130.719 277.851V349.855M-130.719 277.851H-58.685M-130.719 349.855V421.859M-130.719 349.855H-58.685M-130.719 421.859L-130.719 493.863M-130.719 421.859H-58.685M-130.719 493.863H-58.685M-58.685 493.863H13.3485M-58.685 493.863V421.859M13.3485 493.863H85.3821M13.3485 493.863V421.859M85.3821 493.863H157.416M85.3821 493.863V421.859M157.416 493.863H229.449M157.416 493.863V421.859M229.449 493.863H301.483M229.449 493.863V421.859M301.483 493.863H367.349M301.483 493.863V421.859M-58.685 -4V61.8389M-58.685 61.8389V133.843M-58.685 61.8389H13.3486M-58.685 133.843V205.847M-58.685 133.843H13.3486M-58.685 205.847V277.851M-58.685 205.847H13.3486M-58.685 277.851V349.855M-58.685 277.851H13.3486M-58.685 349.855V421.859M-58.685 349.855H13.3485M-58.685 421.859H13.3485M13.3485 421.859H85.3821M13.3485 421.859V349.855M85.3821 421.859H157.416M85.3821 421.859V349.855M157.416 421.859H229.449M157.416 421.859V349.855M229.449 421.859H301.483M229.449 421.859V349.855M301.483 421.859H367.349M301.483 421.859V349.855M13.3486 -4V61.8389M13.3486 61.8389V133.843M13.3486 61.8389H85.3821M13.3486 133.843V205.847M13.3486 133.843H85.3821M13.3486 205.847V277.851M13.3486 205.847H85.3821M13.3486 277.851L13.3485 349.855M13.3486 277.851H85.3821M13.3485 349.855H85.3821M85.3821 349.855H157.416M85.3821 349.855V277.851M157.416 349.855H229.449M157.416 349.855V277.851M229.449 349.855H301.483M229.449 349.855V277.851M301.483 349.855H367.349M301.483 349.855L301.483 277.851M85.3821 -4V61.8389M85.3821 61.8389V133.843M85.3821 61.8389H157.416M85.3821 133.843V205.847M85.3821 133.843H157.416M85.3821 205.847V277.851M85.3821 205.847H157.416M85.3821 277.851H157.416M157.416 277.851H229.449M157.416 277.851V205.847M229.449 277.851H301.483M229.449 277.851V205.847M301.483 277.851H367.349M301.483 277.851V205.847M157.416 -4V61.8389M157.416 61.8389V133.843M157.416 61.8389H229.449M157.416 133.843V205.847M157.416 133.843H229.449M157.416 205.847H229.449M229.449 205.847H301.483M229.449 205.847V133.843M301.483 205.847H367.349M301.483 205.847V133.843M229.449 -4V61.8389M229.449 61.8389V133.843M229.449 61.8389H301.483M229.449 133.843H301.483M301.483 133.843H367.349M301.483 133.843V61.8389M301.483 -4V61.8389M301.483 61.8389H367.349M367.899 -4V61.8389M367.899 61.8389V133.843M367.899 61.8389H301.302M367.899 61.8389H439.933M367.899 133.843V205.847M367.899 133.843H301.302M367.899 133.843H439.933M367.899 205.847V277.851M367.899 205.847H301.302M367.899 205.847H439.933M367.899 277.851V349.855M367.899 277.851H301.302M367.899 277.851H439.933M367.899 349.855V421.859M367.899 349.855H301.302M367.899 349.855H439.933M367.899 421.859V493.863M367.899 421.859H301.302M367.899 421.859H439.933M367.899 493.863V565.867M367.899 493.863H301.302M367.899 493.863H439.933M367.899 565.867V632.437M367.899 565.867H301.302M367.899 565.867H439.933M439.933 565.867H511.966M439.933 565.867V493.863M439.933 565.867V632.437M511.966 565.867H584M511.966 565.867V493.863M511.966 565.867V632.437M584 565.867H656.033M584 565.867V493.863M584 565.867V632.437M656.033 565.867H728.067M656.033 565.867V493.863M656.033 565.867V632.437M728.067 565.867H800.101M728.067 565.867V493.863M728.067 565.867V632.437M800.101 565.867H872.134M800.101 565.867V493.863M800.101 565.867V632.437M872.134 565.867H938M872.134 565.867V493.863M872.134 565.867V632.437M439.933 -4V61.8389M439.933 61.8389V133.843M439.933 61.8389H511.966M439.933 133.843L439.933 205.847M439.933 133.843H511.966M439.933 205.847V277.851M439.933 205.847H511.966M439.933 277.851V349.855M439.933 277.851H511.966M439.933 349.855V421.859M439.933 349.855H511.966M439.933 421.859V493.863M439.933 421.859H511.966M439.933 493.863H511.966M511.966 493.863H584M511.966 493.863V421.859M584 493.863H656.033M584 493.863V421.859M656.033 493.863H728.067M656.033 493.863V421.859M728.067 493.863H800.101M728.067 493.863V421.859M800.101 493.863H872.134M800.101 493.863V421.859M872.134 493.863H938M872.134 493.863V421.859M511.966 -4V61.8389M511.966 61.8389V133.843M511.966 61.8389H584M511.966 133.843V205.847M511.966 133.843H584M511.966 205.847V277.851M511.966 205.847H584M511.966 277.851V349.855M511.966 277.851H584M511.966 349.855V421.859M511.966 349.855H584M511.966 421.859H584M584 421.859H656.033M584 421.859V349.855M656.033 421.859H728.067M656.033 421.859V349.855M728.067 421.859H800.101M728.067 421.859V349.855M800.101 421.859H872.134M800.101 421.859V349.855M872.134 421.859H938M872.134 421.859V349.855M584 -4V61.8389M584 61.8389V133.843M584 61.8389H656.033M584 133.843V205.847M584 133.843H656.033M584 205.847V277.851M584 205.847H656.033M584 277.851L584 349.855M584 277.851H656.033M584 349.855H656.033M656.033 349.855H728.067M656.033 349.855V277.851M728.067 349.855H800.101M728.067 349.855V277.851M800.101 349.855H872.134M800.101 349.855V277.851M872.134 349.855H938M872.134 349.855L872.134 277.851M656.033 -4V61.8389M656.033 61.8389V133.843M656.033 61.8389H728.067M656.033 133.843V205.847M656.033 133.843H728.067M656.033 205.847V277.851M656.033 205.847H728.067M656.033 277.851H728.067M728.067 277.851H800.101M728.067 277.851V205.847M800.101 277.851H872.134M800.101 277.851V205.847M872.134 277.851H938M872.134 277.851V205.847M728.067 -4V61.8389M728.067 61.8389V133.843M728.067 61.8389H800.101M728.067 133.843V205.847M728.067 133.843H800.101M728.067 205.847H800.101M800.101 205.847H872.134M800.101 205.847V133.843M872.134 205.847H938M872.134 205.847V133.843M800.101 -4V61.8389M800.101 61.8389V133.843M800.101 61.8389H872.134M800.101 133.843H872.134M872.134 133.843H938M872.134 133.843V61.8389M872.134 -4V61.8389M872.134 61.8389H938M-773.403 565.563V631.402M-773.403 631.402L-773.403 703.406M-773.403 631.402H-840M-773.403 631.402H-701.37M-773.403 703.406V775.41M-773.403 703.406H-840M-773.403 703.406H-701.37M-773.403 775.41L-773.403 847.414M-773.403 775.41H-840M-773.403 775.41H-701.37M-773.403 847.414V919.418M-773.403 847.414H-840M-773.403 847.414H-701.37M-773.403 919.418L-773.403 991.423M-773.403 919.418H-840M-773.403 919.418H-701.37M-773.403 991.423V1063.43M-773.403 991.423H-840M-773.403 991.423H-701.37M-773.403 1063.43L-773.403 1135.43M-773.403 1063.43H-840M-773.403 1063.43H-701.37M-773.403 1135.43V1202M-773.403 1135.43H-840M-773.403 1135.43H-701.37M-701.37 1135.43H-629.336M-701.37 1135.43V1063.43M-701.37 1135.43V1202M-629.336 1135.43H-557.303M-629.336 1135.43V1063.43M-629.336 1135.43V1202M-557.303 1135.43H-485.269M-557.303 1135.43V1063.43M-557.303 1135.43V1202M-485.269 1135.43H-413.235M-485.269 1135.43V1063.43M-485.269 1135.43V1202M-413.235 1135.43H-341.202M-413.235 1135.43V1063.43M-413.235 1135.43V1202M-341.202 1135.43H-269.168M-341.202 1135.43V1063.43M-341.202 1135.43V1202M-269.168 1135.43H-203.302M-269.168 1135.43V1063.43M-269.168 1135.43V1202M-701.37 565.563V631.402M-701.37 631.402V703.406M-701.37 631.402H-629.336M-701.37 703.406L-701.37 775.41M-701.37 703.406H-629.336M-701.37 775.41V847.414M-701.37 775.41H-629.336M-701.37 847.414V919.418M-701.37 847.414H-629.336M-701.37 919.418V991.423M-701.37 919.418H-629.336M-701.37 991.423L-701.37 1063.43M-701.37 991.423H-629.336M-701.37 1063.43H-629.336M-629.336 1063.43H-557.303M-629.336 1063.43V991.423M-557.303 1063.43H-485.269M-557.303 1063.43V991.423M-485.269 1063.43H-413.235M-485.269 1063.43V991.423M-413.235 1063.43H-341.202M-413.235 1063.43V991.423M-341.202 1063.43H-269.168M-341.202 1063.43V991.423M-269.168 1063.43H-203.302M-269.168 1063.43V991.423M-629.336 565.563V631.402M-629.336 631.402V703.406M-629.336 631.402H-557.303M-629.336 703.406V775.41M-629.336 703.406H-557.303M-629.336 775.41V847.414M-629.336 775.41H-557.303M-629.336 847.414L-629.336 919.418M-629.336 847.414H-557.303M-629.336 919.418V991.423M-629.336 919.418H-557.303M-629.336 991.423H-557.303M-557.303 991.423H-485.269M-557.303 991.423V919.418M-485.269 991.423H-413.235M-485.269 991.423V919.418M-413.235 991.423H-341.202M-413.235 991.423V919.418M-341.202 991.423H-269.168M-341.202 991.423V919.418M-269.168 991.423H-203.302M-269.168 991.423V919.418M-557.303 565.563V631.402M-557.303 631.402V703.406M-557.303 631.402H-485.269M-557.303 703.406V775.41M-557.303 703.406H-485.269M-557.303 775.41V847.414M-557.303 775.41H-485.269M-557.303 847.414L-557.303 919.418M-557.303 847.414H-485.269M-557.303 919.418H-485.269M-485.269 919.418H-413.235M-485.269 919.418L-485.269 847.414M-413.235 919.418H-341.202M-413.235 919.418L-413.235 847.414M-341.202 919.418H-269.168M-341.202 919.418L-341.202 847.414M-269.168 919.418H-203.302M-269.168 919.418L-269.168 847.414M-485.269 565.563V631.402M-485.269 631.402V703.406M-485.269 631.402H-413.235M-485.269 703.406V775.41M-485.269 703.406H-413.235M-485.269 775.41V847.414M-485.269 775.41H-413.235M-485.269 847.414H-413.235M-413.235 847.414H-341.202M-413.235 847.414V775.41M-341.202 847.414H-269.168M-341.202 847.414V775.41M-269.168 847.414H-203.302M-269.168 847.414V775.41M-413.235 565.563V631.402M-413.235 631.402V703.406M-413.235 631.402H-341.202M-413.235 703.406V775.41M-413.235 703.406H-341.202M-413.235 775.41H-341.202M-341.202 775.41H-269.168M-341.202 775.41V703.406M-269.168 775.41H-203.302M-269.168 775.41V703.406M-341.202 565.563V631.402M-341.202 631.402V703.406M-341.202 631.402H-269.168M-341.202 703.406H-269.168M-269.168 703.406H-203.302M-269.168 703.406V631.402M-269.168 565.563V631.402M-269.168 631.402H-203.302M-202.752 565.563V631.402M-202.752 631.402V703.406M-202.752 631.402H-269.349M-202.752 631.402H-130.719M-202.752 703.406V775.41M-202.752 703.406H-269.349M-202.752 703.406H-130.719M-202.752 775.41V847.414M-202.752 775.41H-269.349M-202.752 775.41H-130.719M-202.752 847.414V919.418M-202.752 847.414H-269.349M-202.752 847.414H-130.719M-202.752 919.418L-202.752 991.423M-202.752 919.418H-269.349M-202.752 919.418H-130.719M-202.752 991.423V1063.43M-202.752 991.423H-269.349M-202.752 991.423H-130.719M-202.752 1063.43V1135.43M-202.752 1063.43H-269.349M-202.752 1063.43H-130.719M-202.752 1135.43V1202M-202.752 1135.43H-269.349M-202.752 1135.43H-130.719M-130.719 1135.43H-58.685M-130.719 1135.43V1063.43M-130.719 1135.43V1202M-58.685 1135.43H13.3485M-58.685 1135.43V1063.43M-58.685 1135.43V1202M13.3485 1135.43H85.3821M13.3485 1135.43V1063.43M13.3485 1135.43V1202M85.3821 1135.43H157.416M85.3821 1135.43V1063.43M85.3821 1135.43V1202M157.416 1135.43H229.449M157.416 1135.43V1063.43M157.416 1135.43V1202M229.449 1135.43H301.483M229.449 1135.43V1063.43M229.449 1135.43V1202M301.483 1135.43H367.349M301.483 1135.43V1063.43M301.483 1135.43V1202M-130.719 565.563V631.402M-130.719 631.402V703.406M-130.719 631.402H-58.685M-130.719 703.406V775.41M-130.719 703.406H-58.685M-130.719 775.41V847.414M-130.719 775.41H-58.685M-130.719 847.414V919.418M-130.719 847.414H-58.685M-130.719 919.418V991.423M-130.719 919.418H-58.685M-130.719 991.423L-130.719 1063.43M-130.719 991.423H-58.685M-130.719 1063.43H-58.685M-58.685 1063.43H13.3485M-58.685 1063.43V991.423M13.3485 1063.43H85.3821M13.3485 1063.43V991.423M85.3821 1063.43H157.416M85.3821 1063.43V991.423M157.416 1063.43H229.449M157.416 1063.43V991.423M229.449 1063.43H301.483M229.449 1063.43V991.423M301.483 1063.43H367.349M301.483 1063.43V991.423M-58.685 565.563V631.402M-58.685 631.402V703.406M-58.685 631.402H13.3486M-58.685 703.406V775.41M-58.685 703.406H13.3486M-58.685 775.41V847.414M-58.685 775.41H13.3486M-58.685 847.414V919.418M-58.685 847.414H13.3486M-58.685 919.418V991.423M-58.685 919.418H13.3485M-58.685 991.423H13.3485M13.3485 991.423H85.3821M13.3485 991.423V919.418M85.3821 991.423H157.416M85.3821 991.423V919.418M157.416 991.423H229.449M157.416 991.423V919.418M229.449 991.423H301.483M229.449 991.423V919.418M301.483 991.423H367.349M301.483 991.423V919.418M13.3486 565.563V631.402M13.3486 631.402V703.406M13.3486 631.402H85.3821M13.3486 703.406V775.41M13.3486 703.406H85.3821M13.3486 775.41V847.414M13.3486 775.41H85.3821M13.3486 847.414L13.3485 919.418M13.3486 847.414H85.3821M13.3485 919.418H85.3821M85.3821 919.418H157.416M85.3821 919.418V847.414M157.416 919.418H229.449M157.416 919.418V847.414M229.449 919.418H301.483M229.449 919.418V847.414M301.483 919.418H367.349M301.483 919.418L301.483 847.414M85.3821 565.563V631.402M85.3821 631.402V703.406M85.3821 631.402H157.416M85.3821 703.406V775.41M85.3821 703.406H157.416M85.3821 775.41V847.414M85.3821 775.41H157.416M85.3821 847.414H157.416M157.416 847.414H229.449M157.416 847.414V775.41M229.449 847.414H301.483M229.449 847.414V775.41M301.483 847.414H367.349M301.483 847.414V775.41M157.416 565.563V631.402M157.416 631.402V703.406M157.416 631.402H229.449M157.416 703.406V775.41M157.416 703.406H229.449M157.416 775.41H229.449M229.449 775.41H301.483M229.449 775.41V703.406M301.483 775.41H367.349M301.483 775.41V703.406M229.449 565.563V631.402M229.449 631.402V703.406M229.449 631.402H301.483M229.449 703.406H301.483M301.483 703.406H367.349M301.483 703.406V631.402M301.483 565.563V631.402M301.483 631.402H367.349M367.899 565.563V631.402M367.899 631.402V703.406M367.899 631.402H301.302M367.899 631.402H439.933M367.899 703.406V775.41M367.899 703.406H301.302M367.899 703.406H439.933M367.899 775.41V847.414M367.899 775.41H301.302M367.899 775.41H439.933M367.899 847.414V919.418M367.899 847.414H301.302M367.899 847.414H439.933M367.899 919.418V991.423M367.899 919.418H301.302M367.899 919.418H439.933M367.899 991.423V1063.43M367.899 991.423H301.302M367.899 991.423H439.933M367.899 1063.43V1135.43M367.899 1063.43H301.302M367.899 1063.43H439.933M367.899 1135.43V1202M367.899 1135.43H301.302M367.899 1135.43H439.933M439.933 1135.43H511.966M439.933 1135.43V1063.43M439.933 1135.43V1202M511.966 1135.43H584M511.966 1135.43V1063.43M511.966 1135.43V1202M584 1135.43H656.033M584 1135.43V1063.43M584 1135.43V1202M656.033 1135.43H728.067M656.033 1135.43V1063.43M656.033 1135.43V1202M728.067 1135.43H800.101M728.067 1135.43V1063.43M728.067 1135.43V1202M800.101 1135.43H872.134M800.101 1135.43V1063.43M800.101 1135.43V1202M872.134 1135.43H938M872.134 1135.43V1063.43M872.134 1135.43V1202M439.933 565.563V631.402M439.933 631.402V703.406M439.933 631.402H511.966M439.933 703.406L439.933 775.41M439.933 703.406H511.966M439.933 775.41V847.414M439.933 775.41H511.966M439.933 847.414V919.418M439.933 847.414H511.966M439.933 919.418V991.423M439.933 919.418H511.966M439.933 991.423V1063.43M439.933 991.423H511.966M439.933 1063.43H511.966M511.966 1063.43H584M511.966 1063.43V991.423M584 1063.43H656.033M584 1063.43V991.423M656.033 1063.43H728.067M656.033 1063.43V991.423M728.067 1063.43H800.101M728.067 1063.43V991.423M800.101 1063.43H872.134M800.101 1063.43V991.423M872.134 1063.43H938M872.134 1063.43V991.423M511.966 565.563V631.402M511.966 631.402V703.406M511.966 631.402H584M511.966 703.406V775.41M511.966 703.406H584M511.966 775.41V847.414M511.966 775.41H584M511.966 847.414V919.418M511.966 847.414H584M511.966 919.418V991.423M511.966 919.418H584M511.966 991.423H584M584 991.423H656.033M584 991.423V919.418M656.033 991.423H728.067M656.033 991.423V919.418M728.067 991.423H800.101M728.067 991.423V919.418M800.101 991.423H872.134M800.101 991.423V919.418M872.134 991.423H938M872.134 991.423V919.418M584 565.563V631.402M584 631.402V703.406M584 631.402H656.033M584 703.406V775.41M584 703.406H656.033M584 775.41V847.414M584 775.41H656.033M584 847.414L584 919.418M584 847.414H656.033M584 919.418H656.033M656.033 919.418H728.067M656.033 919.418V847.414M728.067 919.418H800.101M728.067 919.418V847.414M800.101 919.418H872.134M800.101 919.418V847.414M872.134 919.418H938M872.134 919.418L872.134 847.414M656.033 565.563V631.402M656.033 631.402V703.406M656.033 631.402H728.067M656.033 703.406V775.41M656.033 703.406H728.067M656.033 775.41V847.414M656.033 775.41H728.067M656.033 847.414H728.067M728.067 847.414H800.101M728.067 847.414V775.41M800.101 847.414H872.134M800.101 847.414V775.41M872.134 847.414H938M872.134 847.414V775.41M728.067 565.563V631.402M728.067 631.402V703.406M728.067 631.402H800.101M728.067 703.406V775.41M728.067 703.406H800.101M728.067 775.41H800.101M800.101 775.41H872.134M800.101 775.41V703.406M872.134 775.41H938M872.134 775.41V703.406M800.101 565.563V631.402M800.101 631.402V703.406M800.101 631.402H872.134M800.101 703.406H872.134M872.134 703.406H938M872.134 703.406V631.402M872.134 565.563V631.402M872.134 631.402H938" stroke="url(#paint1_radial_606_344)" stroke-opacity="0.23" stroke-width="2"/>
</g>
<defs>
<filter id="filter0_f_606_344" x="-285" y="297" width="669" height="669" filterUnits="userSpaceOnUse" color-interpolation-filters="sRGB">
<feFlood flood-opacity="0" result="BackgroundImageFix"/>
<feBlend mode="normal" in="SourceGraphic" in2="BackgroundImageFix" result="shape"/>
<feGaussianBlur stdDeviation="60" result="effect1_foregroundBlur_606_344"/>
</filter>
<radialGradient id="paint0_radial_606_344" cx="0" cy="0" r="1" gradientUnits="userSpaceOnUse" gradientTransform="translate(49.5 631.5) rotate(90) scale(214.5)">
<stop stop-color="#FFB600" stop-opacity="0.92"/>
<stop offset="1" stop-color="#FFB600" stop-opacity="0"/>
</radialGradient>
<radialGradient id="paint1_radial_606_344" cx="0" cy="0" r="1" gradientUnits="userSpaceOnUse" gradientTransform="translate(48.9999 599) rotate(90) scale(281.5 415.014)">
<stop stop-color="#FFB600" stop-opacity="0.92"/>
<stop offset="1" stop-color="#FFB600" stop-opacity="0.04"/>
</radialGradient>
<clipPath id="clip0_606_344">
<rect width="938" height="1208" fill="white"/>
</clipPath>
</defs>
</svg>
