<svg width="1033" height="933" viewBox="0 0 1033 933" fill="none" xmlns="http://www.w3.org/2000/svg">
<g clip-path="url(#clip0_605_336)">
<g filter="url(#filter0_f_605_336)">
<path d="M1105 356.5C1105 474.965 1008.97 571 890.5 571C772.035 571 676 474.965 676 356.5C676 238.035 772.035 142 890.5 142C1008.97 142 1105 238.035 1105 356.5Z" fill="url(#paint0_radial_605_336)" fill-opacity="0.3"/>
</g>
<path d="M67.5966 -273V-207.161M67.5966 -207.161L67.5966 -135.157M67.5966 -207.161H1M67.5966 -207.161H139.63M67.5966 -135.157V-63.153M67.5966 -135.157H1M67.5966 -135.157H139.63M67.5966 -63.153L67.5966 8.85108M67.5966 -63.153H1M67.5966 -63.153H139.63M67.5966 8.85108V80.8551M67.5966 8.85108H1M67.5966 8.85108H139.63M67.5966 80.8551L67.5966 152.859M67.5966 80.8551H1M67.5966 80.8551H139.63M67.5966 152.859V224.863M67.5966 152.859H1M67.5966 152.859H139.63M67.5966 224.863L67.5966 296.867M67.5966 224.863H1M67.5966 224.863H139.63M67.5966 296.867V363.437M67.5966 296.867H1M67.5966 296.867H139.63M139.63 296.867H211.664M139.63 296.867V224.863M139.63 296.867V363.437M211.664 296.867H283.697M211.664 296.867V224.863M211.664 296.867V363.437M283.697 296.867H355.731M283.697 296.867V224.863M283.697 296.867V363.437M355.731 296.867H427.765M355.731 296.867V224.863M355.731 296.867V363.437M427.765 296.867H499.798M427.765 296.867V224.863M427.765 296.867V363.437M499.798 296.867H571.832M499.798 296.867V224.863M499.798 296.867V363.437M571.832 296.867H637.698M571.832 296.867V224.863M571.832 296.867V363.437M139.63 -273V-207.161M139.63 -207.161V-135.157M139.63 -207.161H211.664M139.63 -135.157L139.63 -63.153M139.63 -135.157H211.664M139.63 -63.153V8.85108M139.63 -63.153H211.664M139.63 8.85108V80.8551M139.63 8.85108H211.664M139.63 80.8551V152.859M139.63 80.8551H211.664M139.63 152.859L139.63 224.863M139.63 152.859H211.664M139.63 224.863H211.664M211.664 224.863H283.697M211.664 224.863V152.859M283.697 224.863H355.731M283.697 224.863V152.859M355.731 224.863H427.765M355.731 224.863V152.859M427.765 224.863H499.798M427.765 224.863V152.859M499.798 224.863H571.832M499.798 224.863V152.859M571.832 224.863H637.698M571.832 224.863V152.859M211.664 -273V-207.161M211.664 -207.161V-135.157M211.664 -207.161H283.697M211.664 -135.157V-63.153M211.664 -135.157H283.697M211.664 -63.153V8.85108M211.664 -63.153H283.697M211.664 8.85108L211.664 80.8551M211.664 8.85108H283.697M211.664 80.8551V152.859M211.664 80.8551H283.697M211.664 152.859H283.697M283.697 152.859H355.731M283.697 152.859V80.8551M355.731 152.859H427.765M355.731 152.859V80.8551M427.765 152.859H499.798M427.765 152.859V80.8551M499.798 152.859H571.832M499.798 152.859V80.8551M571.832 152.859H637.698M571.832 152.859V80.8551M283.697 -273V-207.161M283.697 -207.161V-135.157M283.697 -207.161H355.731M283.697 -135.157V-63.153M283.697 -135.157H355.731M283.697 -63.153V8.85108M283.697 -63.153H355.731M283.697 8.85108L283.697 80.8551M283.697 8.85108H355.731M283.697 80.8551H355.731M355.731 80.8551H427.765M355.731 80.8551L355.731 8.85108M427.765 80.8551H499.798M427.765 80.8551L427.765 8.85108M499.798 80.8551H571.832M499.798 80.8551L499.798 8.85108M571.832 80.8551H637.698M571.832 80.8551L571.832 8.85108M355.731 -273V-207.161M355.731 -207.161V-135.157M355.731 -207.161H427.765M355.731 -135.157V-63.153M355.731 -135.157H427.765M355.731 -63.153V8.85108M355.731 -63.153H427.765M355.731 8.85108H427.765M427.765 8.85108H499.798M427.765 8.85108V-63.153M499.798 8.85108H571.832M499.798 8.85108V-63.153M571.832 8.85108H637.698M571.832 8.85108V-63.153M427.765 -273V-207.161M427.765 -207.161V-135.157M427.765 -207.161H499.798M427.765 -135.157V-63.153M427.765 -135.157H499.798M427.765 -63.153H499.798M499.798 -63.153H571.832M499.798 -63.153V-135.157M571.832 -63.153H637.698M571.832 -63.153V-135.157M499.798 -273V-207.161M499.798 -207.161V-135.157M499.798 -207.161H571.832M499.798 -135.157H571.832M571.832 -135.157H637.698M571.832 -135.157V-207.161M571.832 -273V-207.161M571.832 -207.161H637.698M638.248 -273V-207.161M638.248 -207.161V-135.157M638.248 -207.161H571.651M638.248 -207.161H710.281M638.248 -135.157V-63.153M638.248 -135.157H571.651M638.248 -135.157H710.281M638.248 -63.153V8.85108M638.248 -63.153H571.651M638.248 -63.153H710.281M638.248 8.85108V80.8551M638.248 8.85108H571.651M638.248 8.85108H710.281M638.248 80.8551L638.248 152.859M638.248 80.8551H571.651M638.248 80.8551H710.281M638.248 152.859V224.863M638.248 152.859H571.651M638.248 152.859H710.281M638.248 224.863V296.867M638.248 224.863H571.651M638.248 224.863H710.281M638.248 296.867V363.437M638.248 296.867H571.651M638.248 296.867H710.281M710.281 296.867H782.315M710.281 296.867V224.863M710.281 296.867V363.437M782.315 296.867H854.349M782.315 296.867V224.863M782.315 296.867V363.437M854.349 296.867H926.382M854.349 296.867V224.863M854.349 296.867V363.437M926.382 296.867H998.416M926.382 296.867V224.863M926.382 296.867V363.437M998.416 296.867H1070.45M998.416 296.867V224.863M998.416 296.867V363.437M1070.45 296.867H1142.48M1070.45 296.867V224.863M1070.45 296.867V363.437M1142.48 296.867H1208.35M1142.48 296.867V224.863M1142.48 296.867V363.437M710.281 -273V-207.161M710.281 -207.161V-135.157M710.281 -207.161H782.315M710.281 -135.157V-63.153M710.281 -135.157H782.315M710.281 -63.153V8.85108M710.281 -63.153H782.315M710.281 8.85108V80.8551M710.281 8.85108H782.315M710.281 80.8551V152.859M710.281 80.8551H782.315M710.281 152.859L710.281 224.863M710.281 152.859H782.315M710.281 224.863H782.315M782.315 224.863H854.349M782.315 224.863V152.859M854.349 224.863H926.382M854.349 224.863V152.859M926.382 224.863H998.416M926.382 224.863V152.859M998.416 224.863H1070.45M998.416 224.863V152.859M1070.45 224.863H1142.48M1070.45 224.863V152.859M1142.48 224.863H1208.35M1142.48 224.863V152.859M782.315 -273V-207.161M782.315 -207.161V-135.157M782.315 -207.161H854.349M782.315 -135.157V-63.153M782.315 -135.157H854.349M782.315 -63.153V8.85108M782.315 -63.153H854.349M782.315 8.85108V80.8551M782.315 8.85108H854.349M782.315 80.8551V152.859M782.315 80.8551H854.349M782.315 152.859H854.349M854.349 152.859H926.382M854.349 152.859V80.8551M926.382 152.859H998.416M926.382 152.859V80.8551M998.416 152.859H1070.45M998.416 152.859V80.8551M1070.45 152.859H1142.48M1070.45 152.859V80.8551M1142.48 152.859H1208.35M1142.48 152.859V80.8551M854.349 -273V-207.161M854.349 -207.161V-135.157M854.349 -207.161H926.382M854.349 -135.157V-63.153M854.349 -135.157H926.382M854.349 -63.153V8.85108M854.349 -63.153H926.382M854.349 8.85108L854.349 80.8551M854.349 8.85108H926.382M854.349 80.8551H926.382M926.382 80.8551H998.416M926.382 80.8551V8.85108M998.416 80.8551H1070.45M998.416 80.8551V8.85108M1070.45 80.8551H1142.48M1070.45 80.8551V8.85108M1142.48 80.8551H1208.35M1142.48 80.8551L1142.48 8.85108M926.382 -273V-207.161M926.382 -207.161V-135.157M926.382 -207.161H998.416M926.382 -135.157V-63.153M926.382 -135.157H998.416M926.382 -63.153V8.85108M926.382 -63.153H998.416M926.382 8.85108H998.416M998.416 8.85108H1070.45M998.416 8.85108V-63.153M1070.45 8.85108H1142.48M1070.45 8.85108V-63.153M1142.48 8.85108H1208.35M1142.48 8.85108V-63.153M998.416 -273V-207.161M998.416 -207.161V-135.157M998.416 -207.161H1070.45M998.416 -135.157V-63.153M998.416 -135.157H1070.45M998.416 -63.153H1070.45M1070.45 -63.153H1142.48M1070.45 -63.153V-135.157M1142.48 -63.153H1208.35M1142.48 -63.153V-135.157M1070.45 -273V-207.161M1070.45 -207.161V-135.157M1070.45 -207.161H1142.48M1070.45 -135.157H1142.48M1142.48 -135.157H1208.35M1142.48 -135.157V-207.161M1142.48 -273V-207.161M1142.48 -207.161H1208.35M1208.9 -273V-207.161M1208.9 -207.161V-135.157M1208.9 -207.161H1142.3M1208.9 -207.161H1280.93M1208.9 -135.157V-63.153M1208.9 -135.157H1142.3M1208.9 -135.157H1280.93M1208.9 -63.153V8.85108M1208.9 -63.153H1142.3M1208.9 -63.153H1280.93M1208.9 8.85108V80.8551M1208.9 8.85108H1142.3M1208.9 8.85108H1280.93M1208.9 80.8551V152.859M1208.9 80.8551H1142.3M1208.9 80.8551H1280.93M1208.9 152.859V224.863M1208.9 152.859H1142.3M1208.9 152.859H1280.93M1208.9 224.863V296.867M1208.9 224.863H1142.3M1208.9 224.863H1280.93M1208.9 296.867V363.437M1208.9 296.867H1142.3M1208.9 296.867H1280.93M1280.93 296.867H1352.97M1280.93 296.867V224.863M1280.93 296.867V363.437M1352.97 296.867H1425M1352.97 296.867V224.863M1352.97 296.867V363.437M1425 296.867H1497.03M1425 296.867V224.863M1425 296.867V363.437M1497.03 296.867H1569.07M1497.03 296.867V224.863M1497.03 296.867V363.437M1569.07 296.867H1641.1M1569.07 296.867V224.863M1569.07 296.867V363.437M1641.1 296.867H1713.13M1641.1 296.867V224.863M1641.1 296.867V363.437M1713.13 296.867H1779M1713.13 296.867V224.863M1713.13 296.867V363.437M1280.93 -273V-207.161M1280.93 -207.161V-135.157M1280.93 -207.161H1352.97M1280.93 -135.157L1280.93 -63.153M1280.93 -135.157H1352.97M1280.93 -63.153V8.85108M1280.93 -63.153H1352.97M1280.93 8.85108V80.8551M1280.93 8.85108H1352.97M1280.93 80.8551V152.859M1280.93 80.8551H1352.97M1280.93 152.859V224.863M1280.93 152.859H1352.97M1280.93 224.863H1352.97M1352.97 224.863H1425M1352.97 224.863V152.859M1425 224.863H1497.03M1425 224.863V152.859M1497.03 224.863H1569.07M1497.03 224.863V152.859M1569.07 224.863H1641.1M1569.07 224.863V152.859M1641.1 224.863H1713.13M1641.1 224.863V152.859M1713.13 224.863H1779M1713.13 224.863V152.859M1352.97 -273V-207.161M1352.97 -207.161V-135.157M1352.97 -207.161H1425M1352.97 -135.157V-63.153M1352.97 -135.157H1425M1352.97 -63.153V8.85108M1352.97 -63.153H1425M1352.97 8.85108V80.8551M1352.97 8.85108H1425M1352.97 80.8551V152.859M1352.97 80.8551H1425M1352.97 152.859H1425M1425 152.859H1497.03M1425 152.859V80.8551M1497.03 152.859H1569.07M1497.03 152.859V80.8551M1569.07 152.859H1641.1M1569.07 152.859V80.8551M1641.1 152.859H1713.13M1641.1 152.859V80.8551M1713.13 152.859H1779M1713.13 152.859V80.8551M1425 -273V-207.161M1425 -207.161V-135.157M1425 -207.161H1497.03M1425 -135.157V-63.153M1425 -135.157H1497.03M1425 -63.153V8.85108M1425 -63.153H1497.03M1425 8.85108L1425 80.8551M1425 8.85108H1497.03M1425 80.8551H1497.03M1497.03 80.8551H1569.07M1497.03 80.8551V8.85108M1569.07 80.8551H1641.1M1569.07 80.8551V8.85108M1641.1 80.8551H1713.13M1641.1 80.8551V8.85108M1713.13 80.8551H1779M1713.13 80.8551L1713.13 8.85108M1497.03 -273V-207.161M1497.03 -207.161V-135.157M1497.03 -207.161H1569.07M1497.03 -135.157V-63.153M1497.03 -135.157H1569.07M1497.03 -63.153V8.85108M1497.03 -63.153H1569.07M1497.03 8.85108H1569.07M1569.07 8.85108H1641.1M1569.07 8.85108V-63.153M1641.1 8.85108H1713.13M1641.1 8.85108V-63.153M1713.13 8.85108H1779M1713.13 8.85108V-63.153M1569.07 -273V-207.161M1569.07 -207.161V-135.157M1569.07 -207.161H1641.1M1569.07 -135.157V-63.153M1569.07 -135.157H1641.1M1569.07 -63.153H1641.1M1641.1 -63.153H1713.13M1641.1 -63.153V-135.157M1713.13 -63.153H1779M1713.13 -63.153V-135.157M1641.1 -273V-207.161M1641.1 -207.161V-135.157M1641.1 -207.161H1713.13M1641.1 -135.157H1713.13M1713.13 -135.157H1779M1713.13 -135.157V-207.161M1713.13 -273V-207.161M1713.13 -207.161H1779M67.5966 296.563V362.402M67.5966 362.402L67.5966 434.406M67.5966 362.402H1M67.5966 362.402H139.63M67.5966 434.406V506.41M67.5966 434.406H1M67.5966 434.406H139.63M67.5966 506.41L67.5966 578.414M67.5966 506.41H1M67.5966 506.41H139.63M67.5966 578.414V650.418M67.5966 578.414H1M67.5966 578.414H139.63M67.5966 650.418L67.5966 722.423M67.5966 650.418H1M67.5966 650.418H139.63M67.5966 722.423V794.427M67.5966 722.423H1M67.5966 722.423H139.63M67.5966 794.427L67.5966 866.431M67.5966 794.427H1M67.5966 794.427H139.63M67.5966 866.431V933M67.5966 866.431H1M67.5966 866.431H139.63M139.63 866.431H211.664M139.63 866.431V794.427M139.63 866.431V933M211.664 866.431H283.697M211.664 866.431V794.427M211.664 866.431V933M283.697 866.431H355.731M283.697 866.431V794.427M283.697 866.431V933M355.731 866.431H427.765M355.731 866.431V794.427M355.731 866.431V933M427.765 866.431H499.798M427.765 866.431V794.427M427.765 866.431V933M499.798 866.431H571.832M499.798 866.431V794.427M499.798 866.431V933M571.832 866.431H637.698M571.832 866.431V794.427M571.832 866.431V933M139.63 296.563V362.402M139.63 362.402V434.406M139.63 362.402H211.664M139.63 434.406L139.63 506.41M139.63 434.406H211.664M139.63 506.41V578.414M139.63 506.41H211.664M139.63 578.414V650.418M139.63 578.414H211.664M139.63 650.418V722.423M139.63 650.418H211.664M139.63 722.423L139.63 794.427M139.63 722.423H211.664M139.63 794.427H211.664M211.664 794.427H283.697M211.664 794.427V722.423M283.697 794.427H355.731M283.697 794.427V722.423M355.731 794.427H427.765M355.731 794.427V722.423M427.765 794.427H499.798M427.765 794.427V722.423M499.798 794.427H571.832M499.798 794.427V722.423M571.832 794.427H637.698M571.832 794.427V722.423M211.664 296.563V362.402M211.664 362.402V434.406M211.664 362.402H283.697M211.664 434.406V506.41M211.664 434.406H283.697M211.664 506.41V578.414M211.664 506.41H283.697M211.664 578.414L211.664 650.418M211.664 578.414H283.697M211.664 650.418V722.423M211.664 650.418H283.697M211.664 722.423H283.697M283.697 722.423H355.731M283.697 722.423V650.418M355.731 722.423H427.765M355.731 722.423V650.418M427.765 722.423H499.798M427.765 722.423V650.418M499.798 722.423H571.832M499.798 722.423V650.418M571.832 722.423H637.698M571.832 722.423V650.418M283.697 296.563V362.402M283.697 362.402V434.406M283.697 362.402H355.731M283.697 434.406V506.41M283.697 434.406H355.731M283.697 506.41V578.414M283.697 506.41H355.731M283.697 578.414L283.697 650.418M283.697 578.414H355.731M283.697 650.418H355.731M355.731 650.418H427.765M355.731 650.418L355.731 578.414M427.765 650.418H499.798M427.765 650.418L427.765 578.414M499.798 650.418H571.832M499.798 650.418L499.798 578.414M571.832 650.418H637.698M571.832 650.418L571.832 578.414M355.731 296.563V362.402M355.731 362.402V434.406M355.731 362.402H427.765M355.731 434.406V506.41M355.731 434.406H427.765M355.731 506.41V578.414M355.731 506.41H427.765M355.731 578.414H427.765M427.765 578.414H499.798M427.765 578.414V506.41M499.798 578.414H571.832M499.798 578.414V506.41M571.832 578.414H637.698M571.832 578.414V506.41M427.765 296.563V362.402M427.765 362.402V434.406M427.765 362.402H499.798M427.765 434.406V506.41M427.765 434.406H499.798M427.765 506.41H499.798M499.798 506.41H571.832M499.798 506.41V434.406M571.832 506.41H637.698M571.832 506.41V434.406M499.798 296.563V362.402M499.798 362.402V434.406M499.798 362.402H571.832M499.798 434.406H571.832M571.832 434.406H637.698M571.832 434.406V362.402M571.832 296.563V362.402M571.832 362.402H637.698M638.248 296.563V362.402M638.248 362.402V434.406M638.248 362.402H571.651M638.248 362.402H710.281M638.248 434.406V506.41M638.248 434.406H571.651M638.248 434.406H710.281M638.248 506.41V578.414M638.248 506.41H571.651M638.248 506.41H710.281M638.248 578.414V650.418M638.248 578.414H571.651M638.248 578.414H710.281M638.248 650.418L638.248 722.423M638.248 650.418H571.651M638.248 650.418H710.281M638.248 722.423V794.427M638.248 722.423H571.651M638.248 722.423H710.281M638.248 794.427V866.431M638.248 794.427H571.651M638.248 794.427H710.281M638.248 866.431V933M638.248 866.431H571.651M638.248 866.431H710.281M710.281 866.431H782.315M710.281 866.431V794.427M710.281 866.431V933M782.315 866.431H854.349M782.315 866.431V794.427M782.315 866.431V933M854.349 866.431H926.382M854.349 866.431V794.427M854.349 866.431V933M926.382 866.431H998.416M926.382 866.431V794.427M926.382 866.431V933M998.416 866.431H1070.45M998.416 866.431V794.427M998.416 866.431V933M1070.45 866.431H1142.48M1070.45 866.431V794.427M1070.45 866.431V933M1142.48 866.431H1208.35M1142.48 866.431V794.427M1142.48 866.431V933M710.281 296.563V362.402M710.281 362.402V434.406M710.281 362.402H782.315M710.281 434.406V506.41M710.281 434.406H782.315M710.281 506.41V578.414M710.281 506.41H782.315M710.281 578.414V650.418M710.281 578.414H782.315M710.281 650.418V722.423M710.281 650.418H782.315M710.281 722.423L710.281 794.427M710.281 722.423H782.315M710.281 794.427H782.315M782.315 794.427H854.349M782.315 794.427V722.423M854.349 794.427H926.382M854.349 794.427V722.423M926.382 794.427H998.416M926.382 794.427V722.423M998.416 794.427H1070.45M998.416 794.427V722.423M1070.45 794.427H1142.48M1070.45 794.427V722.423M1142.48 794.427H1208.35M1142.48 794.427V722.423M782.315 296.563V362.402M782.315 362.402V434.406M782.315 362.402H854.349M782.315 434.406V506.41M782.315 434.406H854.349M782.315 506.41V578.414M782.315 506.41H854.349M782.315 578.414V650.418M782.315 578.414H854.349M782.315 650.418V722.423M782.315 650.418H854.349M782.315 722.423H854.349M854.349 722.423H926.382M854.349 722.423V650.418M926.382 722.423H998.416M926.382 722.423V650.418M998.416 722.423H1070.45M998.416 722.423V650.418M1070.45 722.423H1142.48M1070.45 722.423V650.418M1142.48 722.423H1208.35M1142.48 722.423V650.418M854.349 296.563V362.402M854.349 362.402V434.406M854.349 362.402H926.382M854.349 434.406V506.41M854.349 434.406H926.382M854.349 506.41V578.414M854.349 506.41H926.382M854.349 578.414L854.349 650.418M854.349 578.414H926.382M854.349 650.418H926.382M926.382 650.418H998.416M926.382 650.418V578.414M998.416 650.418H1070.45M998.416 650.418V578.414M1070.45 650.418H1142.48M1070.45 650.418V578.414M1142.48 650.418H1208.35M1142.48 650.418L1142.48 578.414M926.382 296.563V362.402M926.382 362.402V434.406M926.382 362.402H998.416M926.382 434.406V506.41M926.382 434.406H998.416M926.382 506.41V578.414M926.382 506.41H998.416M926.382 578.414H998.416M998.416 578.414H1070.45M998.416 578.414V506.41M1070.45 578.414H1142.48M1070.45 578.414V506.41M1142.48 578.414H1208.35M1142.48 578.414V506.41M998.416 296.563V362.402M998.416 362.402V434.406M998.416 362.402H1070.45M998.416 434.406V506.41M998.416 434.406H1070.45M998.416 506.41H1070.45M1070.45 506.41H1142.48M1070.45 506.41V434.406M1142.48 506.41H1208.35M1142.48 506.41V434.406M1070.45 296.563V362.402M1070.45 362.402V434.406M1070.45 362.402H1142.48M1070.45 434.406H1142.48M1142.48 434.406H1208.35M1142.48 434.406V362.402M1142.48 296.563V362.402M1142.48 362.402H1208.35M1208.9 296.563V362.402M1208.9 362.402V434.406M1208.9 362.402H1142.3M1208.9 362.402H1280.93M1208.9 434.406V506.41M1208.9 434.406H1142.3M1208.9 434.406H1280.93M1208.9 506.41V578.414M1208.9 506.41H1142.3M1208.9 506.41H1280.93M1208.9 578.414V650.418M1208.9 578.414H1142.3M1208.9 578.414H1280.93M1208.9 650.418V722.423M1208.9 650.418H1142.3M1208.9 650.418H1280.93M1208.9 722.423V794.427M1208.9 722.423H1142.3M1208.9 722.423H1280.93M1208.9 794.427V866.431M1208.9 794.427H1142.3M1208.9 794.427H1280.93M1208.9 866.431V933M1208.9 866.431H1142.3M1208.9 866.431H1280.93M1280.93 866.431H1352.97M1280.93 866.431V794.427M1280.93 866.431V933M1352.97 866.431H1425M1352.97 866.431V794.427M1352.97 866.431V933M1425 866.431H1497.03M1425 866.431V794.427M1425 866.431V933M1497.03 866.431H1569.07M1497.03 866.431V794.427M1497.03 866.431V933M1569.07 866.431H1641.1M1569.07 866.431V794.427M1569.07 866.431V933M1641.1 866.431H1713.13M1641.1 866.431V794.427M1641.1 866.431V933M1713.13 866.431H1779M1713.13 866.431V794.427M1713.13 866.431V933M1280.93 296.563V362.402M1280.93 362.402V434.406M1280.93 362.402H1352.97M1280.93 434.406L1280.93 506.41M1280.93 434.406H1352.97M1280.93 506.41V578.414M1280.93 506.41H1352.97M1280.93 578.414V650.418M1280.93 578.414H1352.97M1280.93 650.418V722.423M1280.93 650.418H1352.97M1280.93 722.423V794.427M1280.93 722.423H1352.97M1280.93 794.427H1352.97M1352.97 794.427H1425M1352.97 794.427V722.423M1425 794.427H1497.03M1425 794.427V722.423M1497.03 794.427H1569.07M1497.03 794.427V722.423M1569.07 794.427H1641.1M1569.07 794.427V722.423M1641.1 794.427H1713.13M1641.1 794.427V722.423M1713.13 794.427H1779M1713.13 794.427V722.423M1352.97 296.563V362.402M1352.97 362.402V434.406M1352.97 362.402H1425M1352.97 434.406V506.41M1352.97 434.406H1425M1352.97 506.41V578.414M1352.97 506.41H1425M1352.97 578.414V650.418M1352.97 578.414H1425M1352.97 650.418V722.423M1352.97 650.418H1425M1352.97 722.423H1425M1425 722.423H1497.03M1425 722.423V650.418M1497.03 722.423H1569.07M1497.03 722.423V650.418M1569.07 722.423H1641.1M1569.07 722.423V650.418M1641.1 722.423H1713.13M1641.1 722.423V650.418M1713.13 722.423H1779M1713.13 722.423V650.418M1425 296.563V362.402M1425 362.402V434.406M1425 362.402H1497.03M1425 434.406V506.41M1425 434.406H1497.03M1425 506.41V578.414M1425 506.41H1497.03M1425 578.414L1425 650.418M1425 578.414H1497.03M1425 650.418H1497.03M1497.03 650.418H1569.07M1497.03 650.418V578.414M1569.07 650.418H1641.1M1569.07 650.418V578.414M1641.1 650.418H1713.13M1641.1 650.418V578.414M1713.13 650.418H1779M1713.13 650.418L1713.13 578.414M1497.03 296.563V362.402M1497.03 362.402V434.406M1497.03 362.402H1569.07M1497.03 434.406V506.41M1497.03 434.406H1569.07M1497.03 506.41V578.414M1497.03 506.41H1569.07M1497.03 578.414H1569.07M1569.07 578.414H1641.1M1569.07 578.414V506.41M1641.1 578.414H1713.13M1641.1 578.414V506.41M1713.13 578.414H1779M1713.13 578.414V506.41M1569.07 296.563V362.402M1569.07 362.402V434.406M1569.07 362.402H1641.1M1569.07 434.406V506.41M1569.07 434.406H1641.1M1569.07 506.41H1641.1M1641.1 506.41H1713.13M1641.1 506.41V434.406M1713.13 506.41H1779M1713.13 506.41V434.406M1641.1 296.563V362.402M1641.1 362.402V434.406M1641.1 362.402H1713.13M1641.1 434.406H1713.13M1713.13 434.406H1779M1713.13 434.406V362.402M1713.13 296.563V362.402M1713.13 362.402H1779" stroke="url(#paint1_radial_605_336)" stroke-opacity="0.23" stroke-width="2"/>
</g>
<defs>
<filter id="filter0_f_605_336" x="556" y="22" width="669" height="669" filterUnits="userSpaceOnUse" color-interpolation-filters="sRGB">
<feFlood flood-opacity="0" result="BackgroundImageFix"/>
<feBlend mode="normal" in="SourceGraphic" in2="BackgroundImageFix" result="shape"/>
<feGaussianBlur stdDeviation="60" result="effect1_foregroundBlur_605_336"/>
</filter>
<radialGradient id="paint0_radial_605_336" cx="0" cy="0" r="1" gradientUnits="userSpaceOnUse" gradientTransform="translate(890.5 356.5) rotate(90) scale(214.5)">
<stop stop-color="#FFB600" stop-opacity="0.92"/>
<stop offset="1" stop-color="#FFB600" stop-opacity="0"/>
</radialGradient>
<radialGradient id="paint1_radial_605_336" cx="0" cy="0" r="1" gradientUnits="userSpaceOnUse" gradientTransform="translate(890 330) rotate(90) scale(281.5 415.014)">
<stop stop-color="#FFB600" stop-opacity="0.92"/>
<stop offset="1" stop-color="#FFB600" stop-opacity="0.04"/>
</radialGradient>
<clipPath id="clip0_605_336">
<rect width="1033" height="933" fill="white"/>
</clipPath>
</defs>
</svg>
