<svg width="100" height="100" viewBox="0 0 100 100" fill="none" xmlns="http://www.w3.org/2000/svg">
<rect width="100" height="100" rx="50" fill="#F9FAFB"/>
<path d="M73.3337 76.25V70.4167C73.3337 67.3225 72.1045 64.355 69.9166 62.1671C67.7286 59.9792 64.7612 58.75 61.667 58.75H38.3337C35.2395 58.75 32.272 59.9792 30.0841 62.1671C27.8962 64.355 26.667 67.3225 26.667 70.4167V76.25M61.667 35.4167C61.667 41.86 56.4436 47.0833 50.0003 47.0833C43.557 47.0833 38.3337 41.86 38.3337 35.4167C38.3337 28.9733 43.557 23.75 50.0003 23.75C56.4436 23.75 61.667 28.9733 61.667 35.4167Z" stroke="#475467" stroke-width="4" stroke-linecap="round" stroke-linejoin="round"/>
</svg>
