<svg width="20" height="20" viewBox="0 0 20 20" fill="none" xmlns="http://www.w3.org/2000/svg">
<path d="M9.96016 6.275C10.5508 6.275 11.1168 5.97734 11.5539 5.43711C11.9531 4.94375 12.182 4.32148 12.182 3.7293C12.182 2.53633 11.227 1.63672 9.96016 1.63672C8.69336 1.63672 7.73828 2.53516 7.73828 3.7293C7.73828 4.32148 7.96719 4.94375 8.36641 5.43711C8.80352 5.97773 9.36953 6.275 9.96016 6.275ZM9.96016 2.28125C10.8742 2.28125 11.5375 2.89023 11.5375 3.7293C11.5375 4.78398 10.6746 5.63047 9.96016 5.63047C9.08633 5.63047 8.38281 4.59023 8.38281 3.7293C8.38281 2.8918 9.04609 2.28125 9.96016 2.28125Z" fill="#505050" stroke="#505050" stroke-width="0.2"/>
<path d="M7.33244 9.36798L7.10627 12.5942C7.10329 12.6364 7.10866 12.6788 7.12206 12.7189C7.13547 12.7591 7.15665 12.7962 7.1844 12.8281C7.21215 12.8601 7.24592 12.8863 7.28379 12.9052C7.32166 12.9241 7.36288 12.9353 7.4051 12.9383H7.42775C7.50928 12.9382 7.58774 12.9073 7.64738 12.8517C7.70702 12.7961 7.74341 12.72 7.74924 12.6387L7.97541 9.41525C7.97838 9.37303 7.97301 9.33064 7.95961 9.2905C7.9462 9.25036 7.92502 9.21325 7.89727 9.18129C7.86952 9.14933 7.83575 9.12316 7.79788 9.10425C7.76002 9.08535 7.7188 9.07409 7.67658 9.07111C7.63436 9.06813 7.59197 9.0735 7.55183 9.08691C7.51169 9.10032 7.47458 9.1215 7.44262 9.14925C7.41066 9.177 7.38449 9.21077 7.36558 9.24864C7.34668 9.2865 7.33541 9.32772 7.33244 9.36994V9.36798Z" fill="#505050" stroke="#505050" stroke-width="0.2"/>
<path d="M14.3309 12.9371C14.4184 12.9294 14.4992 12.8873 14.5556 12.8201C14.6121 12.7528 14.6396 12.666 14.6321 12.5785C14.6321 12.5785 14.2915 10.1359 14.2415 9.31641C14.1489 7.84492 13.2501 6.66445 11.8458 6.44961C11.352 6.37383 10.4552 6.3168 9.98641 6.31641C9.34654 6.32749 8.70766 6.37169 8.07235 6.44883C7.41371 6.539 6.81047 6.86603 6.37548 7.36875C5.91845 7.89648 5.71415 8.57109 5.67235 9.31797C5.62548 10.1383 5.31493 12.582 5.31493 12.582C5.3097 12.6244 5.31293 12.6674 5.32445 12.7085C5.33597 12.7496 5.35554 12.788 5.38203 12.8215C5.40851 12.855 5.44139 12.8828 5.47874 12.9035C5.51609 12.9242 5.55717 12.9372 5.59961 12.9419C5.64204 12.9465 5.68498 12.9427 5.72592 12.9306C5.76686 12.9186 5.805 12.8985 5.83812 12.8715C5.87124 12.8446 5.89867 12.8113 5.91883 12.7737C5.93899 12.7361 5.95147 12.6948 5.95555 12.6523C5.95555 12.6523 6.27079 10.182 6.31571 9.35352C6.37977 8.1793 7.0747 7.23555 8.16024 7.08789C8.76612 7.0143 9.3754 6.97206 9.98563 6.96133C10.4224 6.96133 11.2891 7.0168 11.7477 7.08711C12.252 7.16343 12.713 7.41552 13.0493 7.79883C13.4071 8.20977 13.5622 8.76172 13.5962 9.35547C13.6458 10.1852 13.9919 12.6559 13.9919 12.6559C14.0044 12.736 14.0458 12.8088 14.1082 12.8606C14.1707 12.9124 14.2499 12.9396 14.3309 12.9371Z" fill="#505050" stroke="#505050" stroke-width="0.2"/>
<path d="M12.2377 9.06711C12.1952 9.07003 12.1538 9.08132 12.1157 9.10032C12.0777 9.11933 12.0438 9.14568 12.016 9.17785C11.9882 9.21003 11.967 9.24739 11.9537 9.28778C11.9404 9.32817 11.9352 9.3708 11.9384 9.41321L12.165 12.639C12.1706 12.7203 12.2069 12.7965 12.2665 12.8522C12.3261 12.9079 12.4045 12.9389 12.4861 12.939H12.5091C12.5944 12.9329 12.6737 12.8932 12.7297 12.8287C12.7857 12.7642 12.8139 12.6801 12.808 12.5948L12.5814 9.36868C12.5787 9.32629 12.5676 9.28486 12.5489 9.24676C12.5301 9.20865 12.504 9.17462 12.4721 9.14661C12.4401 9.1186 12.403 9.09716 12.3628 9.08352C12.3226 9.06988 12.28 9.0643 12.2377 9.06711Z" fill="#505050" stroke="#505050" stroke-width="0.2"/>
<path d="M12.0176 15.8556L13.5676 14.3446C13.6106 14.3027 13.6411 14.2495 13.6555 14.1911C13.6699 14.1328 13.6676 14.0715 13.6491 14.0144C13.6305 13.9572 13.5963 13.9064 13.5504 13.8676C13.5044 13.8288 13.4485 13.8037 13.3891 13.795L11.2473 13.4825L10.2895 11.5431C10.2629 11.4891 10.2217 11.4437 10.1706 11.4119C10.1195 11.3801 10.0605 11.3633 10.0004 11.3633C9.94023 11.3633 9.88127 11.3801 9.83018 11.4119C9.77909 11.4437 9.73792 11.4891 9.71133 11.5431L8.75351 13.4837L6.61172 13.7962C6.55223 13.8049 6.49636 13.83 6.45041 13.8688C6.40446 13.9075 6.37027 13.9584 6.3517 14.0155C6.33313 14.0727 6.33092 14.1339 6.34532 14.1923C6.35973 14.2507 6.39016 14.3038 6.4332 14.3458L7.9832 15.8567L7.61758 17.9884C7.60723 18.0478 7.61377 18.109 7.63645 18.1649C7.65914 18.2208 7.69706 18.2692 7.7459 18.3046C7.79475 18.34 7.85255 18.361 7.91273 18.3652C7.97291 18.3693 8.03306 18.3565 8.08633 18.3282L10.0004 17.3212L11.9145 18.3282C11.9607 18.3525 12.0122 18.3652 12.0645 18.3653C12.1114 18.3653 12.1577 18.355 12.2003 18.3351C12.2428 18.3153 12.2805 18.2865 12.3107 18.2506C12.341 18.2147 12.363 18.1726 12.3753 18.1274C12.3876 18.0821 12.3899 18.0346 12.382 17.9884L12.0176 15.8556ZM9.85039 16.672C9.47617 16.8626 8.36289 17.4532 8.36289 17.4532L8.64687 15.7966C8.6557 15.7451 8.65189 15.6923 8.63576 15.6426C8.61964 15.5929 8.59168 15.5479 8.55429 15.5114L7.35078 14.3396L9.01406 14.0978C9.06573 14.0902 9.1148 14.0702 9.15705 14.0396C9.19931 14.0089 9.23348 13.9684 9.25664 13.9216L9.99883 12.4142L10.741 13.9216C10.7642 13.9684 10.7983 14.0089 10.8406 14.0396C10.8829 14.0702 10.9319 14.0902 10.9836 14.0978L12.6469 14.3396L11.4434 15.5114C11.406 15.5479 11.378 15.5929 11.3619 15.6426C11.3458 15.6923 11.3419 15.7451 11.3508 15.7966L11.6348 17.4532C11.6348 17.4532 10.5215 16.8618 10.1473 16.672C10.1017 16.6474 10.0506 16.6345 9.99883 16.6345C9.947 16.6345 9.89599 16.6474 9.85039 16.672Z" fill="#505050" stroke="#505050" stroke-width="0.2"/>
<path d="M18.8512 14.7756L17.2852 14.5479L16.5848 13.1291C16.5582 13.0751 16.5171 13.0297 16.466 12.9979C16.415 12.9661 16.356 12.9492 16.2959 12.9492C16.2357 12.9492 16.1768 12.9661 16.1257 12.9979C16.0747 13.0297 16.0336 13.0751 16.007 13.1291L15.3066 14.5479L13.7406 14.7756C13.6811 14.7843 13.6253 14.8094 13.5793 14.8482C13.5334 14.8869 13.4992 14.9378 13.4806 14.9949C13.462 15.0521 13.4598 15.1133 13.4742 15.1717C13.4886 15.2301 13.5191 15.2832 13.5621 15.3252L14.6949 16.4299L14.4273 17.9893C14.417 18.0487 14.4235 18.1098 14.4462 18.1657C14.4689 18.2216 14.5068 18.27 14.5557 18.3055C14.6045 18.3409 14.6623 18.3619 14.7225 18.366C14.7827 18.3702 14.8428 18.3574 14.8961 18.3291L16.2965 17.5928L17.6973 18.3291C17.7436 18.3533 17.795 18.3661 17.8473 18.3662C17.8942 18.3662 17.9405 18.3558 17.9831 18.336C18.0256 18.3162 18.0633 18.2873 18.0935 18.2515C18.1238 18.2156 18.1458 18.1735 18.1581 18.1282C18.1704 18.0829 18.1727 18.0355 18.1648 17.9893L17.8973 16.4299L19.0301 15.3252C19.0731 15.2832 19.1036 15.2301 19.118 15.1717C19.1324 15.1133 19.1301 15.0521 19.1116 14.9949C19.093 14.9378 19.0588 14.8869 19.0129 14.8482C18.9669 14.8094 18.9106 14.7843 18.8512 14.7756ZM16.1461 16.9436C15.9004 17.067 15.173 17.4549 15.173 17.4549L15.359 16.3717C15.3678 16.3202 15.364 16.2674 15.3479 16.2177C15.3317 16.168 15.3038 16.123 15.2664 16.0865L14.4793 15.3193L15.5668 15.1631C15.6185 15.1556 15.6677 15.1356 15.7099 15.1048C15.7522 15.0741 15.7863 15.0335 15.8094 14.9865L16.2957 14.0014L16.782 14.9865C16.8052 15.0334 16.8394 15.074 16.8817 15.1048C16.9241 15.1355 16.9732 15.1555 17.025 15.1631L18.1121 15.3193L17.3254 16.0865C17.288 16.123 17.26 16.168 17.2438 16.2177C17.2277 16.2673 17.2239 16.3202 17.2328 16.3717L17.4203 17.4549C17.4203 17.4549 16.6934 17.067 16.4477 16.9436C16.4013 16.9186 16.3495 16.9055 16.2969 16.9055C16.2442 16.9055 16.1924 16.9186 16.1461 16.9436Z" fill="#505050" stroke="#505050" stroke-width="0.2"/>
<path d="M6.25742 14.7756L4.6914 14.5479L3.99101 13.1291C3.96448 13.0751 3.92335 13.0297 3.8723 12.9979C3.82124 12.9661 3.76229 12.9492 3.70215 12.9492C3.642 12.9492 3.58305 12.9661 3.532 12.9979C3.48094 13.0297 3.43981 13.0751 3.41328 13.1291L2.71289 14.5479L1.14687 14.7756C1.08739 14.7843 1.03151 14.8094 0.985566 14.8482C0.939618 14.8869 0.905426 14.9378 0.886856 14.9949C0.868286 15.0521 0.866077 15.1133 0.88048 15.1717C0.894882 15.2301 0.925321 15.2832 0.968357 15.3252L2.10117 16.4299L1.83554 17.9893C1.8252 18.0487 1.83174 18.1098 1.85442 18.1657C1.87711 18.2216 1.91503 18.27 1.96387 18.3055C2.01271 18.3409 2.07051 18.3619 2.1307 18.366C2.19088 18.3702 2.25103 18.3574 2.30429 18.3291L3.70508 17.5928L5.10547 18.3291C5.15176 18.3533 5.20321 18.3661 5.25547 18.3662C5.30239 18.3662 5.34874 18.3558 5.39128 18.336C5.43381 18.3162 5.47151 18.2873 5.50175 18.2515C5.53198 18.2156 5.55403 18.1735 5.56634 18.1282C5.57865 18.0829 5.58094 18.0355 5.57304 17.9893L5.30547 16.4299L6.43828 15.3252C6.48132 15.2832 6.51175 15.2301 6.52616 15.1717C6.54056 15.1133 6.53835 15.0521 6.51978 14.9949C6.50121 14.9378 6.46702 14.8869 6.42107 14.8482C6.37512 14.8094 6.31925 14.7843 6.25976 14.7756H6.25742ZM3.55429 16.9436L2.57969 17.4549L2.76523 16.3717C2.77413 16.3202 2.77035 16.2673 2.75422 16.2177C2.73809 16.168 2.71009 16.123 2.67265 16.0865L1.88594 15.3193L2.97304 15.1631C3.02481 15.1555 3.07397 15.1355 3.1163 15.1048C3.15862 15.074 3.19284 15.0334 3.21601 14.9865L3.70234 14.0014L4.18867 14.9865C4.2117 15.0335 4.24583 15.0741 4.2881 15.1048C4.33037 15.1356 4.3795 15.1556 4.43125 15.1631L5.51875 15.3193L4.73164 16.0865C4.69426 16.123 4.6663 16.168 4.65017 16.2177C4.63404 16.2674 4.63023 16.3202 4.63906 16.3717L4.825 17.4549L3.85195 16.9436C3.80715 16.9162 3.75565 16.9016 3.70312 16.9016C3.6506 16.9016 3.5991 16.9162 3.55429 16.9436Z" fill="#505050" stroke="#505050" stroke-width="0.2"/>
</svg>
