<svg width="118" height="30" viewBox="0 0 118 30" fill="none" xmlns="http://www.w3.org/2000/svg">
<g clip-path="url(#clip0_2854_3346)">
<path d="M27.8707 18.8949H20.8557V26.8134C20.8557 27.6013 20.6004 28.2447 20.0897 28.7437C19.579 29.2165 18.9205 29.4528 18.1142 29.4528C17.3079 29.4528 16.6494 29.2165 16.1387 28.7437C15.6549 28.2447 15.413 27.6013 15.413 26.8134V9.83391C15.413 7.41766 16.2462 5.39536 17.9126 3.76701C19.579 2.13867 21.6486 1.32449 24.1213 1.32449H27.8707C28.677 1.32449 29.3355 1.574 29.8462 2.07301C30.3569 2.54575 30.6122 3.17608 30.6122 3.96399C30.6122 4.7519 30.3569 5.39536 29.8462 5.89437C29.3355 6.39338 28.677 6.64288 27.8707 6.64288H24.1213C23.2075 6.64288 22.428 6.95804 21.783 7.58837C21.1648 8.19244 20.8557 8.94095 20.8557 9.83391V13.5765H27.8707C28.677 13.5765 29.3355 13.826 29.8462 14.325C30.3569 14.7977 30.6122 15.4281 30.6122 16.216C30.6122 17.0039 30.3569 17.6473 29.8462 18.1464C29.3355 18.6454 28.677 18.8949 27.8707 18.8949Z" fill="#A463FF"/>
<path d="M40.4752 3.96399V26.8134C40.4752 27.6013 40.2198 28.2447 39.7092 28.7437C39.1985 29.2165 38.54 29.4528 37.7337 29.4528C36.9273 29.4528 36.2688 29.2165 35.7582 28.7437C35.2744 28.2447 35.0325 27.6013 35.0325 26.8134V3.96399C35.0325 3.17608 35.2744 2.54575 35.7582 2.07301C36.2688 1.574 36.9273 1.32449 37.7337 1.32449C38.54 1.32449 39.1985 1.574 39.7092 2.07301C40.2198 2.54575 40.4752 3.17608 40.4752 3.96399ZM57.3456 18.8949H50.3306V26.8134C50.3306 27.6013 50.0753 28.2447 49.5646 28.7437C49.0539 29.2165 48.3954 29.4528 47.5891 29.4528C46.7828 29.4528 46.1243 29.2165 45.6136 28.7437C45.1298 28.2447 44.8879 27.6013 44.8879 26.8134V9.83391C44.8879 7.41766 45.7211 5.39536 47.3875 3.76701C49.0539 2.13867 51.1235 1.32449 53.5962 1.32449H57.3456C58.1519 1.32449 58.8104 1.574 59.3211 2.07301C59.8318 2.54575 60.0871 3.17608 60.0871 3.96399C60.0871 4.7519 59.8318 5.39536 59.3211 5.89437C58.8104 6.39338 58.1519 6.64288 57.3456 6.64288H53.5962C52.6824 6.64288 51.9029 6.95804 51.2579 7.58837C50.6397 8.19244 50.3306 8.94095 50.3306 9.83391V13.5765H57.3456C58.1519 13.5765 58.8104 13.826 59.3211 14.325C59.8318 14.7977 60.0871 15.4281 60.0871 16.216C60.0871 17.0039 59.8318 17.6473 59.3211 18.1464C58.8104 18.6454 58.1519 18.8949 57.3456 18.8949Z" fill="#FFB600"/>
<path d="M69.9501 3.96399V26.8134C69.9501 27.6013 69.6947 28.2447 69.184 28.7437C68.6734 29.2165 68.0149 29.4528 67.2086 29.4528C66.4022 29.4528 65.7437 29.2165 65.2331 28.7437C64.7493 28.2447 64.5074 27.6013 64.5074 26.8134V3.96399C64.5074 3.17608 64.7493 2.54575 65.2331 2.07301C65.7437 1.574 66.4022 1.32449 67.2086 1.32449C68.0149 1.32449 68.6734 1.574 69.184 2.07301C69.6947 2.54575 69.9501 3.17608 69.9501 3.96399ZM84.845 29.4528H83.0711C80.5984 29.4528 78.5288 28.6387 76.8624 27.0103C75.196 25.382 74.3628 23.3597 74.3628 20.9434V3.96399C74.3628 3.17608 74.6047 2.54575 75.0885 2.07301C75.5992 1.574 76.2577 1.32449 77.064 1.32449C77.8703 1.32449 78.5288 1.574 79.0395 2.07301C79.5501 2.54575 79.8055 3.17608 79.8055 3.96399V20.9434C79.8055 21.8364 80.1146 22.598 80.7327 23.2284C81.3778 23.8324 82.1573 24.1345 83.0711 24.1345H84.845C85.6513 24.1345 86.2964 24.384 86.7802 24.883C87.2908 25.382 87.5462 26.0254 87.5462 26.8134C87.5462 27.6013 87.2908 28.2447 86.7802 28.7437C86.2964 29.2165 85.6513 29.4528 84.845 29.4528Z" fill="#FF007B"/>
<path fill-rule="evenodd" clip-rule="evenodd" d="M103.499 28.1318C110.699 28.1318 116.535 22.4288 116.535 15.3939C116.535 8.35896 110.699 2.65608 103.499 2.65608C96.2996 2.65608 90.4636 8.35896 90.4636 15.3939C90.4636 22.4288 96.2996 28.1318 103.499 28.1318ZM103.499 29.445C111.441 29.445 117.879 23.1541 117.879 15.3939C117.879 7.63374 111.441 1.3429 103.499 1.3429C95.5578 1.3429 89.1198 7.63374 89.1198 15.3939C89.1198 23.1541 95.5578 29.445 103.499 29.445Z" fill="#00E29C"/>
<path fill-rule="evenodd" clip-rule="evenodd" d="M103.544 20.2527C106.266 20.2527 108.472 18.0969 108.472 15.4377C108.472 12.7784 106.266 10.6227 103.544 10.6227C100.823 10.6227 98.6165 12.7784 98.6165 15.4377C98.6165 18.0969 100.823 20.2527 103.544 20.2527ZM103.544 21.5659C107.008 21.5659 109.815 18.8222 109.815 15.4377C109.815 12.0532 107.008 9.30954 103.544 9.30954C100.08 9.30954 97.2726 12.0532 97.2726 15.4377C97.2726 18.8222 100.08 21.5659 103.544 21.5659Z" fill="#00E29C"/>
<path fill-rule="evenodd" clip-rule="evenodd" d="M103.544 22.9666C107.8 22.9666 111.249 19.5958 111.249 15.4377C111.249 11.2796 107.8 7.90881 103.544 7.90881C99.2884 7.90881 95.8391 11.2796 95.8391 15.4377C95.8391 19.5958 99.2884 22.9666 103.544 22.9666ZM103.544 26.9062C110.026 26.9062 115.28 21.7715 115.28 15.4377C115.28 9.10381 110.026 3.96927 103.544 3.96927C97.0621 3.96927 91.8075 9.10381 91.8075 15.4377C91.8075 21.7715 97.0621 26.9062 103.544 26.9062Z" fill="#00E29C"/>
<path d="M2.60357 5.28223C1.89067 4.9458 1.03365 5.23778 0.689352 5.93439C0.345056 6.63101 0.643863 7.46846 1.35676 7.80489L9.42431 11.6122C10.1372 11.9486 10.9942 11.6566 11.3385 10.96C11.6828 10.2634 11.384 9.42596 10.6711 9.08952L2.60357 5.28223Z" fill="#00E29C"/>
<path d="M15.1373 2.99483C15.4656 2.29089 15.1478 1.46016 14.4274 1.13935C13.707 0.818539 12.8568 1.12913 12.5285 1.83308L8.81319 9.79936C8.48488 10.5033 8.80273 11.334 9.52313 11.6548C10.2435 11.9757 11.0937 11.6651 11.422 10.9611L15.1373 2.99483Z" fill="#A463FF"/>
<path d="M7.8156 5.72366C8.63202 5.72366 9.29386 5.07693 9.29386 4.27916C9.29386 3.48138 8.63202 2.83466 7.8156 2.83466C6.99918 2.83466 6.33734 3.48138 6.33734 4.27916C6.33734 5.07693 6.99918 5.72366 7.8156 5.72366Z" fill="#FF007B"/>
</g>
<defs>
<clipPath id="clip0_2854_3346">
<rect width="117.902" height="28.89" fill="white" transform="translate(0.0487823 0.554993)"/>
</clipPath>
</defs>
</svg>
