<svg width="100" height="100" viewBox="0 0 100 100" fill="none" xmlns="http://www.w3.org/2000/svg">
<rect x="0.5" y="0.5" width="99" height="99" rx="11.5" fill="url(#paint0_linear_2224_1199)" stroke="#ECF7F5"/>
<path d="M35.0859 46.8555C32.1135 46.8555 29.6953 44.4372 29.6953 41.4648C29.6953 38.4925 32.1135 36.0742 35.0859 36.0742C38.0583 36.0742 40.4766 38.4925 40.4766 41.4648C40.4766 44.4372 38.0583 46.8555 35.0859 46.8555Z" fill="white"/>
<path d="M53.9531 43.2617C50.9807 43.2617 48.5625 40.8435 48.5625 37.8711C48.5625 34.8987 50.9807 32.4805 53.9531 32.4805C56.9255 32.4805 59.3438 34.8987 59.3438 37.8711C59.3438 40.8435 56.9255 43.2617 53.9531 43.2617Z" fill="white"/>
<path d="M71.6523 41.4648H66.2617C65.5175 41.4648 64.9141 42.0682 64.9141 42.8125C64.9141 43.5568 65.5175 44.1602 66.2617 44.1602H68.3988L54.582 57.977L51.0427 54.4377C50.5165 53.9114 49.6632 53.9114 49.1369 54.4377L38.7504 64.8242H28.3477C27.6034 64.8242 27 65.4276 27 66.1719C27 66.9161 27.6034 67.5195 28.3477 67.5195H39.3086C39.6661 67.5195 40.0088 67.3776 40.2615 67.1248L50.0898 57.2965L53.6291 60.8358C54.1554 61.362 55.0087 61.362 55.535 60.8358L70.3047 46.066V48.2031C70.3047 48.9474 70.9081 49.5508 71.6523 49.5508C72.3966 49.5508 73 48.9474 73 48.2031V42.8125C73 42.0682 72.3966 41.4648 71.6523 41.4648Z" fill="white"/>
<path d="M58.4205 44.6074C57.1397 45.4596 55.6036 45.9571 53.9531 45.9571C52.3028 45.9571 50.7665 45.4597 49.4857 44.6074C47.305 46.0557 45.8672 48.5336 45.8672 51.3477V53.8957L47.2311 52.5318C47.9947 51.7682 49.01 51.3477 50.0898 51.3477C51.1697 51.3477 52.185 51.7682 52.9486 52.5317L54.582 54.1652L61.1289 47.6182C60.4945 46.3998 59.5587 45.3635 58.4205 44.6074Z" fill="white"/>
<path d="M30.6185 48.2012C28.4379 49.6495 27 52.1273 27 54.9414V62.1289H37.6339L43.1719 56.5911V54.9414C43.1719 52.1273 41.734 49.6495 39.5533 48.2012C38.2725 49.0534 36.7363 49.5508 35.0859 49.5508C33.4356 49.5508 31.8994 49.0534 30.6185 48.2012Z" fill="white"/>
<defs>
<linearGradient id="paint0_linear_2224_1199" x1="50" y1="6.92904e-07" x2="50" y2="100" gradientUnits="userSpaceOnUse">
<stop stop-color="#FFC5A6"/>
<stop offset="1" stop-color="#FFA58E"/>
</linearGradient>
</defs>
</svg>
