<svg width="328" height="327" viewBox="0 0 328 327" fill="none" xmlns="http://www.w3.org/2000/svg">
<rect width="290.292" height="288.168" rx="11.7022" transform="matrix(-0.990268 -0.139173 -0.139173 0.990268 327.799 41.1445)" fill="#F7E8FA"/>
<rect x="0.365695" y="-0.365695" width="117.529" height="117.529" rx="11.3365" transform="matrix(1 0 0 -1 99.4023 214.536)" fill="url(#paint0_linear_2240_5738)" stroke="#F3DBEB" stroke-width="0.73139"/>
<g filter="url(#filter0_b_2240_5738)">
<rect width="88.6954" height="88.6954" rx="11.7022" transform="matrix(1 0 0 -1 186.048 239.129)" fill="#E3CADA" fill-opacity="0.32"/>
<rect x="0.365695" y="-0.365695" width="87.964" height="87.964" rx="11.3365" transform="matrix(1 0 0 -1 186.048 238.398)" stroke="#F3DBEB" stroke-width="0.73139"/>
</g>
<g filter="url(#filter1_b_2240_5738)">
<rect width="111.449" height="111.449" rx="11.7022" transform="matrix(1 0 0 -1 50.1602 221.782)" fill="#E3CADA" fill-opacity="0.32"/>
<rect x="0.365695" y="-0.365695" width="110.718" height="110.718" rx="11.3365" transform="matrix(1 0 0 -1 50.1602 221.051)" stroke="#F3DBEB" stroke-width="0.73139"/>
</g>
<path d="M105.999 176.461C97.5461 176.461 90.6661 169.581 90.6661 161.128C90.6661 152.675 97.5461 145.795 105.999 145.795C114.453 145.795 121.333 152.675 121.333 161.128C121.333 169.581 114.453 176.461 105.999 176.461ZM128.106 156.304C127.511 155.76 126.701 155.013 126.567 154.613C126.418 154.168 126.615 153.112 126.775 152.264C127.09 150.571 127.485 148.461 126.239 146.803C125.005 145.163 122.93 144.893 121.095 144.653C120.205 144.539 119.095 144.395 118.687 144.107C118.306 143.837 117.834 142.883 117.458 142.115C116.687 140.557 115.73 138.616 113.722 137.984C111.797 137.379 109.981 138.325 108.381 139.16C107.525 139.605 106.554 140.112 105.999 140.112C105.445 140.112 104.474 139.605 103.618 139.16C102.018 138.325 100.205 137.381 98.2768 137.984C96.2688 138.616 95.3115 140.557 94.5408 142.117C94.1621 142.885 93.6928 143.84 93.3141 144.107C92.9061 144.392 91.7968 144.536 90.9035 144.653C89.0715 144.891 86.9941 145.163 85.7595 146.803C84.5141 148.461 84.9088 150.571 85.2235 152.264C85.3835 153.112 85.5808 154.168 85.4315 154.616C85.2981 155.013 84.4875 155.76 83.8928 156.304C82.5861 157.509 80.9595 159.005 80.9595 161.128C80.9595 163.251 82.5861 164.747 83.8928 165.952C84.4875 166.496 85.2981 167.243 85.4315 167.643C85.5808 168.088 85.3835 169.144 85.2235 169.992C84.9088 171.685 84.5141 173.795 85.7595 175.453C86.9941 177.093 89.0688 177.363 90.9035 177.603C91.7941 177.717 92.9035 177.861 93.3115 178.149C93.6928 178.419 94.1648 179.373 94.5408 180.141C95.3115 181.699 96.2688 183.64 98.2768 184.272C100.199 184.88 102.018 183.931 103.618 183.096C104.474 182.651 105.445 182.144 105.999 182.144C106.554 182.144 107.525 182.651 108.381 183.096C109.626 183.747 111.005 184.464 112.461 184.464C112.874 184.464 113.295 184.405 113.722 184.272C115.73 183.64 116.687 181.699 117.458 180.139C117.837 179.371 118.306 178.416 118.685 178.149C119.093 177.864 120.202 177.72 121.095 177.603C122.927 177.365 125.005 177.093 126.239 175.453C127.485 173.795 127.09 171.685 126.775 169.992C126.615 169.144 126.418 168.088 126.567 167.64C126.701 167.243 127.511 166.496 128.106 165.952C129.413 164.747 131.039 163.251 131.039 161.128C131.039 159.005 129.413 157.509 128.106 156.304Z" fill="#CF3A9A"/>
<path d="M105.999 149.795C99.7513 149.795 94.666 154.88 94.666 161.128C94.666 167.376 99.7513 172.462 105.999 172.462C112.247 172.462 117.333 167.376 117.333 161.128C117.333 154.88 112.247 149.795 105.999 149.795Z" fill="#CF3A9A"/>
<path d="M132.832 182.747L128.794 178.427C128.424 178.029 127.909 177.803 127.368 177.792C126.85 177.803 126.301 177.995 125.92 178.379C123.93 180.365 122.045 180.456 122 180.459C121.453 180.459 120.933 180.683 120.554 181.075C120.178 181.469 119.978 181.997 120 182.544C120.064 184.032 118.522 185.816 117.984 186.317C117.581 186.685 117.346 187.203 117.333 187.747C117.322 188.293 117.533 188.821 117.92 189.205L121.944 193.232C122.573 193.859 123.426 194.208 124.304 194.208C124.482 194.208 124.658 194.192 124.834 194.165C125.89 193.992 126.805 193.32 127.282 192.365L128.794 189.341L131.714 188.085C132.709 187.656 133.437 186.768 133.658 185.707C133.882 184.645 133.573 183.539 132.832 182.747Z" fill="#CF3A9A"/>
<path d="M91.9969 182.544C92.0183 182.011 91.8103 181.491 91.4476 181.101C91.0849 180.709 90.5649 180.48 90.0316 180.459C89.9516 180.456 88.0663 180.368 86.0796 178.379C85.6956 177.995 85.2156 177.816 84.6316 177.792C84.0903 177.803 83.5729 178.032 83.2049 178.427L79.1649 182.747C78.4263 183.541 78.1169 184.648 78.3383 185.709C78.5596 186.768 79.2876 187.656 80.2823 188.085L83.2023 189.341L84.7169 192.365C85.1916 193.32 86.1089 193.992 87.1623 194.165C87.3383 194.195 87.5169 194.208 87.6929 194.208C88.5703 194.208 89.4263 193.861 90.0529 193.232L94.0796 189.208C94.4636 188.821 94.6716 188.296 94.6636 187.755C94.6529 187.211 94.4183 186.693 94.0209 186.323C93.4769 185.816 91.9329 184.035 91.9969 182.544Z" fill="#CF3A9A"/>
<defs>
<filter id="filter0_b_2240_5738" x="162.644" y="127.029" width="135.504" height="135.504" filterUnits="userSpaceOnUse" color-interpolation-filters="sRGB">
<feFlood flood-opacity="0" result="BackgroundImageFix"/>
<feGaussianBlur in="BackgroundImageFix" stdDeviation="11.7022"/>
<feComposite in2="SourceAlpha" operator="in" result="effect1_backgroundBlur_2240_5738"/>
<feBlend mode="normal" in="SourceGraphic" in2="effect1_backgroundBlur_2240_5738" result="shape"/>
</filter>
<filter id="filter1_b_2240_5738" x="26.7557" y="86.9285" width="158.258" height="158.258" filterUnits="userSpaceOnUse" color-interpolation-filters="sRGB">
<feFlood flood-opacity="0" result="BackgroundImageFix"/>
<feGaussianBlur in="BackgroundImageFix" stdDeviation="11.7022"/>
<feComposite in2="SourceAlpha" operator="in" result="effect1_backgroundBlur_2240_5738"/>
<feBlend mode="normal" in="SourceGraphic" in2="effect1_backgroundBlur_2240_5738" result="shape"/>
</filter>
<linearGradient id="paint0_linear_2240_5738" x1="126.669" y1="59.8381" x2="1.00212" y2="58.5354" gradientUnits="userSpaceOnUse">
<stop stop-color="#FFA4DE"/>
<stop offset="1" stop-color="#F572C6"/>
</linearGradient>
</defs>
</svg>
